#VRML V2.0 utf8
# 3D model generated by easyeda2kicad.py (https://github.com/uPesy/easyeda2kicad.py)

Shape{
    appearance Appearance {
        material  Material 	{
            diffuseColor 1.0 1.0 1.0
            specularColor 0.5019607843137255 0.5019607843137255 0.5019607843137255
            ambientIntensity 1.0
            transparency 0.0
            shininess 0.5
        }
    }
    geometry IndexedFaceSet {
        ccw TRUE
        solid FALSE
        coord DEF co Coordinate {
            point [
                -0.2559 0.4921 0.0, -0.2559 0.4921 0.0591, -0.2563 0.4865 0.0591, -0.2563 0.4865 0.0, -0.2575 0.481 0.0591, -0.2575 0.481 0.0, -0.2595 0.4758 0.0591, -0.2595 0.4758 0.0, -0.2621 0.4708 0.0591, -0.2621 0.4708 0.0, -0.2655 0.4663 0.0591, -0.2655 0.4663 0.0, -0.2695 0.4624 0.0591, -0.2695 0.4624 0.0, -0.274 0.459 0.0591, -0.274 0.459 0.0, -0.2789 0.4563 0.0591, -0.2789 0.4563 0.0, -0.2842 0.4543 0.0591, -0.2842 0.4543 0.0, -0.2897 0.4531 0.0591, -0.2897 0.4531 0.0, -0.2953 0.4527 0.0591, -0.2953 0.4527 0.0, -0.3009 0.4531 0.0591, -0.3009 0.4531 0.0, -0.3064 0.4543 0.0591, -0.3064 0.4543 0.0, -0.3116 0.4563 0.0591, -0.3116 0.4563 0.0, -0.3166 0.459 0.0591, -0.3166 0.459 0.0, -0.321 0.4624 0.0591, -0.321 0.4624 0.0, -0.325 0.4663 0.0591, -0.325 0.4663 0.0, -0.3284 0.4708 0.0591, -0.3284 0.4708 0.0, -0.3311 0.4758 0.0591, -0.3311 0.4758 0.0, -0.333 0.481 0.0591, -0.333 0.481 0.0, -0.3342 0.4865 0.0591, -0.3342 0.4865 0.0, -0.3346 0.4921 0.0591, -0.3346 0.4921 0.0, -0.3346 0.5905 0.0591, -0.3346 0.5905 0.0, -0.2559 0.5905 0.0591, -0.2559 0.5905 0.0, -0.059 0.4921 0.0, -0.059 0.4921 0.0591, -0.0594 0.4865 0.0591, -0.0594 0.4865 0.0, -0.0606 0.481 0.0591, -0.0606 0.481 0.0, -0.0626 0.4758 0.0591, -0.0626 0.4758 0.0, -0.0653 0.4708 0.0591, -0.0653 0.4708 0.0, -0.0687 0.4663 0.0591, -0.0687 0.4663 0.0, -0.0726 0.4624 0.0591, -0.0726 0.4624 0.0, -0.0771 0.459 0.0591, -0.0771 0.459 0.0, -0.0821 0.4563 0.0591, -0.0821 0.4563 0.0, -0.0873 0.4543 0.0591, -0.0873 0.4543 0.0, -0.0928 0.4531 0.0591, -0.0928 0.4531 0.0, -0.0984 0.4527 0.0591, -0.0984 0.4527 0.0, -0.104 0.4531 0.0591, -0.104 0.4531 0.0, -0.1095 0.4543 0.0591, -0.1095 0.4543 0.0, -0.1148 0.4563 0.0591, -0.1148 0.4563 0.0, -0.1197 0.459 0.0591, -0.1197 0.459 0.0, -0.1242 0.4624 0.0591, -0.1242 0.4624 0.0, -0.1282 0.4663 0.0591, -0.1282 0.4663 0.0, -0.1315 0.4708 0.0591, -0.1315 0.4708 0.0, -0.1342 0.4758 0.0591, -0.1342 0.4758 0.0, -0.1362 0.481 0.0591, -0.1362 0.481 0.0, -0.1374 0.4865 0.0591, -0.1374 0.4865 0.0, -0.1378 0.4921 0.0591, -0.1378 0.4921 0.0, -0.1378 0.5905 0.0591, -0.1378 0.5905 0.0, -0.059 0.5905 0.0591, -0.059 0.5905 0.0, 0.1378 0.4921 0.0, 0.1378 0.4921 0.0591, 0.1374 0.4865 0.0591, 0.1374 0.4865 0.0, 0.1362 0.481 0.0591, 0.1362 0.481 0.0, 0.1342 0.4758 0.0591, 0.1342 0.4758 0.0, 0.1316 0.4708 0.0591, 0.1316 0.4708 0.0, 0.1282 0.4663 0.0591, 0.1282 0.4663 0.0, 0.1242 0.4624 0.0591, 0.1242 0.4624 0.0, 0.1197 0.459 0.0591, 0.1197 0.459 0.0, 0.1148 0.4563 0.0591, 0.1148 0.4563 0.0, 0.1095 0.4543 0.0591, 0.1095 0.4543 0.0, 0.104 0.4531 0.0591, 0.104 0.4531 0.0, 0.0984 0.4527 0.0591, 0.0984 0.4527 0.0, 0.0928 0.4531 0.0591, 0.0928 0.4531 0.0, 0.0873 0.4543 0.0591, 0.0873 0.4543 0.0, 0.0821 0.4563 0.0591, 0.0821 0.4563 0.0, 0.0772 0.459 0.0591, 0.0772 0.459 0.0, 0.0727 0.4624 0.0591, 0.0727 0.4624 0.0, 0.0687 0.4663 0.0591, 0.0687 0.4663 0.0, 0.0653 0.4708 0.0591, 0.0653 0.4708 0.0, 0.0626 0.4758 0.0591, 0.0626 0.4758 0.0, 0.0607 0.481 0.0591, 0.0607 0.481 0.0, 0.0595 0.4865 0.0591, 0.0595 0.4865 0.0, 0.0591 0.4921 0.0591, 0.0591 0.4921 0.0, 0.0591 0.5905 0.0591, 0.0591 0.5905 0.0, 0.1378 0.5905 0.0591, 0.1378 0.5905 0.0, 0.3347 0.4921 0.0, 0.3347 0.4921 0.0591, 0.3343 0.4865 0.0591, 0.3343 0.4865 0.0, 0.3331 0.481 0.0591, 0.3331 0.481 0.0, 0.3311 0.4758 0.0591, 0.3311 0.4758 0.0, 0.3284 0.4708 0.0591, 0.3284 0.4708 0.0, 0.325 0.4663 0.0591, 0.325 0.4663 0.0, 0.3211 0.4624 0.0591, 0.3211 0.4624 0.0, 0.3166 0.459 0.0591, 0.3166 0.459 0.0, 0.3116 0.4563 0.0591, 0.3116 0.4563 0.0, 0.3064 0.4543 0.0591, 0.3064 0.4543 0.0, 0.3009 0.4531 0.0591, 0.3009 0.4531 0.0, 0.2953 0.4527 0.0591, 0.2953 0.4527 0.0, 0.2897 0.4531 0.0591, 0.2897 0.4531 0.0, 0.2842 0.4543 0.0591, 0.2842 0.4543 0.0, 0.2789 0.4563 0.0591, 0.2789 0.4563 0.0, 0.274 0.459 0.0591, 0.274 0.459 0.0, 0.2695 0.4624 0.0591, 0.2695 0.4624 0.0, 0.2655 0.4663 0.0591, 0.2655 0.4663 0.0, 0.2622 0.4708 0.0591, 0.2622 0.4708 0.0, 0.2595 0.4758 0.0591, 0.2595 0.4758 0.0, 0.2575 0.481 0.0591, 0.2575 0.481 0.0, 0.2563 0.4865 0.0591, 0.2563 0.4865 0.0, 0.2559 0.4921 0.0591, 0.2559 0.4921 0.0, 0.2559 0.5905 0.0591, 0.2559 0.5905 0.0, 0.3347 0.5905 0.0591, 0.3347 0.5905 0.0, 0.2559 -0.4921 0.0, 0.2559 -0.4921 0.0591, 0.2563 -0.4865 0.0591, 0.2563 -0.4865 0.0, 0.2575 -0.481 0.0591, 0.2575 -0.481 0.0, 0.2595 -0.4758 0.0591, 0.2595 -0.4758 0.0, 0.2622 -0.4709 0.0591, 0.2622 -0.4709 0.0, 0.2655 -0.4664 0.0591, 0.2655 -0.4664 0.0, 0.2695 -0.4624 0.0591, 0.2695 -0.4624 0.0, 0.274 -0.459 0.0591, 0.274 -0.459 0.0, 0.2789 -0.4563 0.0591, 0.2789 -0.4563 0.0, 0.2842 -0.4544 0.0591, 0.2842 -0.4544 0.0, 0.2897 -0.4532 0.0591, 0.2897 -0.4532 0.0, 0.2953 -0.4528 0.0591, 0.2953 -0.4528 0.0, 0.3009 -0.4532 0.0591, 0.3009 -0.4532 0.0, 0.3064 -0.4544 0.0591, 0.3064 -0.4544 0.0, 0.3116 -0.4563 0.0591, 0.3116 -0.4563 0.0, 0.3166 -0.459 0.0591, 0.3166 -0.459 0.0, 0.3211 -0.4624 0.0591, 0.3211 -0.4624 0.0, 0.325 -0.4664 0.0591, 0.325 -0.4664 0.0, 0.3284 -0.4709 0.0591, 0.3284 -0.4709 0.0, 0.3311 -0.4758 0.0591, 0.3311 -0.4758 0.0, 0.3331 -0.481 0.0591, 0.3331 -0.481 0.0, 0.3343 -0.4865 0.0591, 0.3343 -0.4865 0.0, 0.3347 -0.4921 0.0591, 0.3347 -0.4921 0.0, 0.3347 -0.5906 0.0591, 0.3347 -0.5906 0.0, 0.2559 -0.5906 0.0591, 0.2559 -0.5906 0.0, 0.0591 -0.4921 0.0, 0.0591 -0.4921 0.0591, 0.0595 -0.4865 0.0591, 0.0595 -0.4865 0.0, 0.0607 -0.481 0.0591, 0.0607 -0.481 0.0, 0.0626 -0.4758 0.0591, 0.0626 -0.4758 0.0, 0.0653 -0.4709 0.0591, 0.0653 -0.4709 0.0, 0.0687 -0.4664 0.0591, 0.0687 -0.4664 0.0, 0.0727 -0.4624 0.0591, 0.0727 -0.4624 0.0, 0.0772 -0.459 0.0591, 0.0772 -0.459 0.0, 0.0821 -0.4563 0.0591, 0.0821 -0.4563 0.0, 0.0873 -0.4544 0.0591, 0.0873 -0.4544 0.0, 0.0928 -0.4532 0.0591, 0.0928 -0.4532 0.0, 0.0984 -0.4528 0.0591, 0.0984 -0.4528 0.0, 0.104 -0.4532 0.0591, 0.104 -0.4532 0.0, 0.1095 -0.4544 0.0591, 0.1095 -0.4544 0.0, 0.1148 -0.4563 0.0591, 0.1148 -0.4563 0.0, 0.1197 -0.459 0.0591, 0.1197 -0.459 0.0, 0.1242 -0.4624 0.0591, 0.1242 -0.4624 0.0, 0.1282 -0.4664 0.0591, 0.1282 -0.4664 0.0, 0.1316 -0.4709 0.0591, 0.1316 -0.4709 0.0, 0.1342 -0.4758 0.0591, 0.1342 -0.4758 0.0, 0.1362 -0.481 0.0591, 0.1362 -0.481 0.0, 0.1374 -0.4865 0.0591, 0.1374 -0.4865 0.0, 0.1378 -0.4921 0.0591, 0.1378 -0.4921 0.0, 0.1378 -0.5906 0.0591, 0.1378 -0.5906 0.0, 0.0591 -0.5906 0.0591, 0.0591 -0.5906 0.0, -0.1378 -0.4921 0.0, -0.1378 -0.4921 0.0591, -0.1374 -0.4865 0.0591, -0.1374 -0.4865 0.0, -0.1362 -0.481 0.0591, -0.1362 -0.481 0.0, -0.1342 -0.4758 0.0591, -0.1342 -0.4758 0.0, -0.1315 -0.4709 0.0591, -0.1315 -0.4709 0.0, -0.1282 -0.4664 0.0591, -0.1282 -0.4664 0.0, -0.1242 -0.4624 0.0591, -0.1242 -0.4624 0.0, -0.1197 -0.459 0.0591, -0.1197 -0.459 0.0, -0.1148 -0.4563 0.0591, -0.1148 -0.4563 0.0, -0.1095 -0.4544 0.0591, -0.1095 -0.4544 0.0, -0.104 -0.4532 0.0591, -0.104 -0.4532 0.0, -0.0984 -0.4528 0.0591, -0.0984 -0.4528 0.0, -0.0928 -0.4532 0.0591, -0.0928 -0.4532 0.0, -0.0873 -0.4544 0.0591, -0.0873 -0.4544 0.0, -0.0821 -0.4563 0.0591, -0.0821 -0.4563 0.0, -0.0771 -0.459 0.0591, -0.0771 -0.459 0.0, -0.0726 -0.4624 0.0591, -0.0726 -0.4624 0.0, -0.0687 -0.4664 0.0591, -0.0687 -0.4664 0.0, -0.0653 -0.4709 0.0591, -0.0653 -0.4709 0.0, -0.0626 -0.4758 0.0591, -0.0626 -0.4758 0.0, -0.0606 -0.481 0.0591, -0.0606 -0.481 0.0, -0.0594 -0.4865 0.0591, -0.0594 -0.4865 0.0, -0.059 -0.4921 0.0591, -0.059 -0.4921 0.0, -0.059 -0.5906 0.0591, -0.059 -0.5906 0.0, -0.1378 -0.5906 0.0591, -0.1378 -0.5906 0.0, -0.3346 -0.4921 0.0, -0.3346 -0.4921 0.0591, -0.3342 -0.4865 0.0591, -0.3342 -0.4865 0.0, -0.333 -0.481 0.0591, -0.333 -0.481 0.0, -0.3311 -0.4758 0.0591, -0.3311 -0.4758 0.0, -0.3284 -0.4709 0.0591, -0.3284 -0.4709 0.0, -0.325 -0.4664 0.0591, -0.325 -0.4664 0.0, -0.321 -0.4624 0.0591, -0.321 -0.4624 0.0, -0.3166 -0.459 0.0591, -0.3166 -0.459 0.0, -0.3116 -0.4563 0.0591, -0.3116 -0.4563 0.0, -0.3064 -0.4544 0.0591, -0.3064 -0.4544 0.0, -0.3009 -0.4532 0.0591, -0.3009 -0.4532 0.0, -0.2953 -0.4528 0.0591, -0.2953 -0.4528 0.0, -0.2897 -0.4532 0.0591, -0.2897 -0.4532 0.0, -0.2842 -0.4544 0.0591, -0.2842 -0.4544 0.0, -0.2789 -0.4563 0.0591, -0.2789 -0.4563 0.0, -0.274 -0.459 0.0591, -0.274 -0.459 0.0, -0.2695 -0.4624 0.0591, -0.2695 -0.4624 0.0, -0.2655 -0.4664 0.0591, -0.2655 -0.4664 0.0, -0.2621 -0.4709 0.0591, -0.2621 -0.4709 0.0, -0.2595 -0.4758 0.0591, -0.2595 -0.4758 0.0, -0.2575 -0.481 0.0591, -0.2575 -0.481 0.0, -0.2563 -0.4865 0.0591, -0.2563 -0.4865 0.0, -0.2559 -0.4921 0.0591, -0.2559 -0.4921 0.0, -0.2559 -0.5906 0.0591, -0.2559 -0.5906 0.0, -0.3346 -0.5906 0.0591, -0.3346 -0.5906 0.0, -0.4921 0.3346 0.0, -0.4921 0.3346 0.0591, -0.4865 0.3342 0.0591, -0.4865 0.3342 0.0, -0.481 0.333 0.0591, -0.481 0.333 0.0, -0.4758 0.3311 0.0591, -0.4758 0.3311 0.0, -0.4708 0.3284 0.0591, -0.4708 0.3284 0.0, -0.4663 0.325 0.0591, -0.4663 0.325 0.0, -0.4624 0.321 0.0591, -0.4624 0.321 0.0, -0.459 0.3166 0.0591, -0.459 0.3166 0.0, -0.4563 0.3116 0.0591, -0.4563 0.3116 0.0, -0.4543 0.3064 0.0591, -0.4543 0.3064 0.0, -0.4531 0.3009 0.0591, -0.4531 0.3009 0.0, -0.4527 0.2953 0.0591, -0.4527 0.2953 0.0, -0.4531 0.2897 0.0591, -0.4531 0.2897 0.0, -0.4543 0.2842 0.0591, -0.4543 0.2842 0.0, -0.4563 0.2789 0.0591, -0.4563 0.2789 0.0, -0.459 0.274 0.0591, -0.459 0.274 0.0, -0.4624 0.2695 0.0591, -0.4624 0.2695 0.0, -0.4663 0.2655 0.0591, -0.4663 0.2655 0.0, -0.4708 0.2621 0.0591, -0.4708 0.2621 0.0, -0.4758 0.2595 0.0591, -0.4758 0.2595 0.0, -0.481 0.2575 0.0591, -0.481 0.2575 0.0, -0.4865 0.2563 0.0591, -0.4865 0.2563 0.0, -0.4921 0.2559 0.0591, -0.4921 0.2559 0.0, -0.5905 0.2559 0.0591, -0.5905 0.2559 0.0, -0.5905 0.3346 0.0591, -0.5905 0.3346 0.0, -0.4921 0.1378 0.0, -0.4921 0.1378 0.0591, -0.4865 0.1374 0.0591, -0.4865 0.1374 0.0, -0.481 0.1362 0.0591, -0.481 0.1362 0.0, -0.4758 0.1342 0.0591, -0.4758 0.1342 0.0, -0.4708 0.1315 0.0591, -0.4708 0.1315 0.0, -0.4663 0.1282 0.0591, -0.4663 0.1282 0.0, -0.4624 0.1242 0.0591, -0.4624 0.1242 0.0, -0.459 0.1197 0.0591, -0.459 0.1197 0.0, -0.4563 0.1148 0.0591, -0.4563 0.1148 0.0, -0.4543 0.1095 0.0591, -0.4543 0.1095 0.0, -0.4531 0.104 0.0591, -0.4531 0.104 0.0, -0.4527 0.0984 0.0591, -0.4527 0.0984 0.0, -0.4531 0.0928 0.0591, -0.4531 0.0928 0.0, -0.4543 0.0873 0.0591, -0.4543 0.0873 0.0, -0.4563 0.0821 0.0591, -0.4563 0.0821 0.0, -0.459 0.0771 0.0591, -0.459 0.0771 0.0, -0.4624 0.0726 0.0591, -0.4624 0.0726 0.0, -0.4663 0.0687 0.0591, -0.4663 0.0687 0.0, -0.4708 0.0653 0.0591, -0.4708 0.0653 0.0, -0.4758 0.0626 0.0591, -0.4758 0.0626 0.0, -0.481 0.0606 0.0591, -0.481 0.0606 0.0, -0.4865 0.0594 0.0591, -0.4865 0.0594 0.0, -0.4921 0.059 0.0591, -0.4921 0.059 0.0, -0.5905 0.059 0.0591, -0.5905 0.059 0.0, -0.5905 0.1378 0.0591, -0.5905 0.1378 0.0, -0.4921 -0.0591 0.0, -0.4921 -0.0591 0.0591, -0.4865 -0.0595 0.0591, -0.4865 -0.0595 0.0, -0.481 -0.0607 0.0591, -0.481 -0.0607 0.0, -0.4758 -0.0626 0.0591, -0.4758 -0.0626 0.0, -0.4708 -0.0653 0.0591, -0.4708 -0.0653 0.0, -0.4663 -0.0687 0.0591, -0.4663 -0.0687 0.0, -0.4624 -0.0727 0.0591, -0.4624 -0.0727 0.0, -0.459 -0.0772 0.0591, -0.459 -0.0772 0.0, -0.4563 -0.0821 0.0591, -0.4563 -0.0821 0.0, -0.4543 -0.0873 0.0591, -0.4543 -0.0873 0.0, -0.4531 -0.0928 0.0591, -0.4531 -0.0928 0.0, -0.4527 -0.0984 0.0591, -0.4527 -0.0984 0.0, -0.4531 -0.104 0.0591, -0.4531 -0.104 0.0, -0.4543 -0.1095 0.0591, -0.4543 -0.1095 0.0, -0.4563 -0.1148 0.0591, -0.4563 -0.1148 0.0, -0.459 -0.1197 0.0591, -0.459 -0.1197 0.0, -0.4624 -0.1242 0.0591, -0.4624 -0.1242 0.0, -0.4663 -0.1282 0.0591, -0.4663 -0.1282 0.0, -0.4708 -0.1316 0.0591, -0.4708 -0.1316 0.0, -0.4758 -0.1342 0.0591, -0.4758 -0.1342 0.0, -0.481 -0.1362 0.0591, -0.481 -0.1362 0.0, -0.4865 -0.1374 0.0591, -0.4865 -0.1374 0.0, -0.4921 -0.1378 0.0591, -0.4921 -0.1378 0.0, -0.5905 -0.1378 0.0591, -0.5905 -0.1378 0.0, -0.5905 -0.0591 0.0591, -0.5905 -0.0591 0.0, -0.4921 -0.2559 0.0, -0.4921 -0.2559 0.0591, -0.4865 -0.2563 0.0591, -0.4865 -0.2563 0.0, -0.481 -0.2575 0.0591, -0.481 -0.2575 0.0, -0.4758 -0.2595 0.0591, -0.4758 -0.2595 0.0, -0.4708 -0.2622 0.0591, -0.4708 -0.2622 0.0, -0.4663 -0.2655 0.0591, -0.4663 -0.2655 0.0, -0.4624 -0.2695 0.0591, -0.4624 -0.2695 0.0, -0.459 -0.274 0.0591, -0.459 -0.274 0.0, -0.4563 -0.2789 0.0591, -0.4563 -0.2789 0.0, -0.4543 -0.2842 0.0591, -0.4543 -0.2842 0.0, -0.4531 -0.2897 0.0591, -0.4531 -0.2897 0.0, -0.4527 -0.2953 0.0591, -0.4527 -0.2953 0.0, -0.4531 -0.3009 0.0591, -0.4531 -0.3009 0.0, -0.4543 -0.3064 0.0591, -0.4543 -0.3064 0.0, -0.4563 -0.3116 0.0591, -0.4563 -0.3116 0.0, -0.459 -0.3166 0.0591, -0.459 -0.3166 0.0, -0.4624 -0.3211 0.0591, -0.4624 -0.3211 0.0, -0.4663 -0.325 0.0591, -0.4663 -0.325 0.0, -0.4708 -0.3284 0.0591, -0.4708 -0.3284 0.0, -0.4758 -0.3311 0.0591, -0.4758 -0.3311 0.0, -0.481 -0.3331 0.0591, -0.481 -0.3331 0.0, -0.4865 -0.3343 0.0591, -0.4865 -0.3343 0.0, -0.4921 -0.3347 0.0591, -0.4921 -0.3347 0.0, -0.5905 -0.3347 0.0591, -0.5905 -0.3347 0.0, -0.5905 -0.2559 0.0591, -0.5905 -0.2559 0.0, 0.4921 -0.3347 0.0, 0.4921 -0.3347 0.0591, 0.4865 -0.3343 0.0591, 0.4865 -0.3343 0.0, 0.481 -0.3331 0.0591, 0.481 -0.3331 0.0, 0.4758 -0.3311 0.0591, 0.4758 -0.3311 0.0, 0.4709 -0.3284 0.0591, 0.4709 -0.3284 0.0, 0.4664 -0.325 0.0591, 0.4664 -0.325 0.0, 0.4624 -0.3211 0.0591, 0.4624 -0.3211 0.0, 0.459 -0.3166 0.0591, 0.459 -0.3166 0.0, 0.4563 -0.3116 0.0591, 0.4563 -0.3116 0.0, 0.4544 -0.3064 0.0591, 0.4544 -0.3064 0.0, 0.4532 -0.3009 0.0591, 0.4532 -0.3009 0.0, 0.4528 -0.2953 0.0591, 0.4528 -0.2953 0.0, 0.4532 -0.2897 0.0591, 0.4532 -0.2897 0.0, 0.4544 -0.2842 0.0591, 0.4544 -0.2842 0.0, 0.4563 -0.2789 0.0591, 0.4563 -0.2789 0.0, 0.459 -0.274 0.0591, 0.459 -0.274 0.0, 0.4624 -0.2695 0.0591, 0.4624 -0.2695 0.0, 0.4664 -0.2655 0.0591, 0.4664 -0.2655 0.0, 0.4709 -0.2622 0.0591, 0.4709 -0.2622 0.0, 0.4758 -0.2595 0.0591, 0.4758 -0.2595 0.0, 0.481 -0.2575 0.0591, 0.481 -0.2575 0.0, 0.4865 -0.2563 0.0591, 0.4865 -0.2563 0.0, 0.4921 -0.2559 0.0591, 0.4921 -0.2559 0.0, 0.5906 -0.2559 0.0591, 0.5906 -0.2559 0.0, 0.5906 -0.3347 0.0591, 0.5906 -0.3347 0.0, 0.4921 -0.1378 0.0, 0.4921 -0.1378 0.0591, 0.4865 -0.1374 0.0591, 0.4865 -0.1374 0.0, 0.481 -0.1362 0.0591, 0.481 -0.1362 0.0, 0.4758 -0.1342 0.0591, 0.4758 -0.1342 0.0, 0.4709 -0.1316 0.0591, 0.4709 -0.1316 0.0, 0.4664 -0.1282 0.0591, 0.4664 -0.1282 0.0, 0.4624 -0.1242 0.0591, 0.4624 -0.1242 0.0, 0.459 -0.1197 0.0591, 0.459 -0.1197 0.0, 0.4563 -0.1148 0.0591, 0.4563 -0.1148 0.0, 0.4544 -0.1095 0.0591, 0.4544 -0.1095 0.0, 0.4532 -0.104 0.0591, 0.4532 -0.104 0.0, 0.4528 -0.0984 0.0591, 0.4528 -0.0984 0.0, 0.4532 -0.0928 0.0591, 0.4532 -0.0928 0.0, 0.4544 -0.0873 0.0591, 0.4544 -0.0873 0.0, 0.4563 -0.0821 0.0591, 0.4563 -0.0821 0.0, 0.459 -0.0772 0.0591, 0.459 -0.0772 0.0, 0.4624 -0.0727 0.0591, 0.4624 -0.0727 0.0, 0.4664 -0.0687 0.0591, 0.4664 -0.0687 0.0, 0.4709 -0.0653 0.0591, 0.4709 -0.0653 0.0, 0.4758 -0.0626 0.0591, 0.4758 -0.0626 0.0, 0.481 -0.0607 0.0591, 0.481 -0.0607 0.0, 0.4865 -0.0595 0.0591, 0.4865 -0.0595 0.0, 0.4921 -0.0591 0.0591, 0.4921 -0.0591 0.0, 0.5906 -0.0591 0.0591, 0.5906 -0.0591 0.0, 0.5906 -0.1378 0.0591, 0.5906 -0.1378 0.0, 0.4921 0.059 0.0, 0.4921 0.059 0.0591, 0.4865 0.0594 0.0591, 0.4865 0.0594 0.0, 0.481 0.0606 0.0591, 0.481 0.0606 0.0, 0.4758 0.0626 0.0591, 0.4758 0.0626 0.0, 0.4709 0.0653 0.0591, 0.4709 0.0653 0.0, 0.4664 0.0687 0.0591, 0.4664 0.0687 0.0, 0.4624 0.0726 0.0591, 0.4624 0.0726 0.0, 0.459 0.0771 0.0591, 0.459 0.0771 0.0, 0.4563 0.0821 0.0591, 0.4563 0.0821 0.0, 0.4544 0.0873 0.0591, 0.4544 0.0873 0.0, 0.4532 0.0928 0.0591, 0.4532 0.0928 0.0, 0.4528 0.0984 0.0591, 0.4528 0.0984 0.0, 0.4532 0.104 0.0591, 0.4532 0.104 0.0, 0.4544 0.1095 0.0591, 0.4544 0.1095 0.0, 0.4563 0.1148 0.0591, 0.4563 0.1148 0.0, 0.459 0.1197 0.0591, 0.459 0.1197 0.0, 0.4624 0.1242 0.0591, 0.4624 0.1242 0.0, 0.4664 0.1282 0.0591, 0.4664 0.1282 0.0, 0.4709 0.1315 0.0591, 0.4709 0.1315 0.0, 0.4758 0.1342 0.0591, 0.4758 0.1342 0.0, 0.481 0.1362 0.0591, 0.481 0.1362 0.0, 0.4865 0.1374 0.0591, 0.4865 0.1374 0.0, 0.4921 0.1378 0.0591, 0.4921 0.1378 0.0, 0.5906 0.1378 0.0591, 0.5906 0.1378 0.0, 0.5906 0.059 0.0591, 0.5906 0.059 0.0, 0.5906 0.3346 0.0591, 0.5906 0.3346 0.0, 0.4921 0.3346 0.0591, 0.4921 0.3346 0.0, 0.5906 0.2559 0.0591, 0.5906 0.2559 0.0, 0.4921 0.2559 0.0591, 0.4921 0.2559 0.0, 0.4865 0.2563 0.0591, 0.4865 0.2563 0.0, 0.481 0.2575 0.0591, 0.481 0.2575 0.0, 0.4758 0.2595 0.0591, 0.4758 0.2595 0.0, 0.4709 0.2621 0.0591, 0.4709 0.2621 0.0, 0.4664 0.2655 0.0591, 0.4664 0.2655 0.0, 0.4624 0.2695 0.0591, 0.4624 0.2695 0.0, 0.459 0.274 0.0591, 0.459 0.274 0.0, 0.4563 0.2789 0.0591, 0.4563 0.2789 0.0, 0.4544 0.2842 0.0591, 0.4544 0.2842 0.0, 0.4532 0.2897 0.0591, 0.4532 0.2897 0.0, 0.4528 0.2953 0.0591, 0.4528 0.2953 0.0, 0.4532 0.3009 0.0591, 0.4532 0.3009 0.0, 0.4544 0.3064 0.0591, 0.4544 0.3064 0.0, 0.4563 0.3116 0.0591, 0.4563 0.3116 0.0, 0.459 0.3166 0.0591, 0.459 0.3166 0.0, 0.4624 0.321 0.0591, 0.4624 0.321 0.0, 0.4664 0.325 0.0591, 0.4664 0.325 0.0, 0.4709 0.3284 0.0591, 0.4709 0.3284 0.0, 0.4758 0.3311 0.0591, 0.4758 0.3311 0.0, 0.481 0.333 0.0591, 0.481 0.333 0.0, 0.4865 0.3342 0.0591, 0.4865 0.3342 0.0, 0.3268 -0.3268 0.0591, 0.3268 -0.3268 0.0, 0.3268 0.3268 0.0591, 0.3268 0.3268 0.0, -0.3268 -0.3268 0.0591, -0.3268 -0.3268 0.0, -0.3268 0.189 0.0591, -0.3268 0.189 0.0, -0.189 0.3268 0.0591, -0.189 0.3268 0.0
            ]
        }
        coordIndex [
            0,1,2,-1,0,2,3,-1,3,2,4,-1,3,4,5,-1,5,4,6,-1,5,6,7,-1,7,6,8,-1,7,8,9,-1,9,8,10,-1,9,10,11,-1,11,10,12,-1,11,12,13,-1,13,12,14,-1,13,14,15,-1,15,14,16,-1,15,16,17,-1,17,16,18,-1,17,18,19,-1,19,18,20,-1,19,20,21,-1,21,20,22,-1,21,22,23,-1,23,22,24,-1,23,24,25,-1,25,24,26,-1,25,26,27,-1,27,26,28,-1,27,28,29,-1,29,28,30,-1,29,30,31,-1,31,30,32,-1,31,32,33,-1,33,32,34,-1,33,34,35,-1,35,34,36,-1,35,36,37,-1,37,36,38,-1,37,38,39,-1,39,38,40,-1,39,40,41,-1,41,40,42,-1,41,42,43,-1,43,42,44,-1,43,44,45,-1,46,47,44,-1,44,47,45,-1,48,49,46,-1,46,49,47,-1,1,0,48,-1,48,0,49,-1,47,49,45,-1,45,49,0,-1,13,15,45,-1,45,15,17,-1,45,17,19,-1,0,3,45,-1,45,3,5,-1,45,5,7,-1,19,21,45,-1,45,21,23,-1,45,23,25,-1,25,27,45,-1,45,27,29,-1,45,29,31,-1,41,35,39,-1,39,35,37,-1,31,33,45,-1,45,33,35,-1,45,35,43,-1,43,35,41,-1,7,9,45,-1,45,9,11,-1,45,11,13,-1,48,46,1,-1,1,46,44,-1,32,30,1,-1,44,42,1,-1,1,42,40,-1,1,40,38,-1,30,28,1,-1,1,28,26,-1,1,26,24,-1,38,36,1,-1,1,36,34,-1,1,34,32,-1,24,22,1,-1,1,22,20,-1,1,20,18,-1,18,16,1,-1,1,16,14,-1,1,14,2,-1,2,14,4,-1,14,12,4,-1,4,12,10,-1,4,10,6,-1,6,10,8,-1,50,51,52,-1,50,52,53,-1,53,52,54,-1,53,54,55,-1,55,54,56,-1,55,56,57,-1,57,56,58,-1,57,58,59,-1,59,58,60,-1,59,60,61,-1,61,60,62,-1,61,62,63,-1,63,62,64,-1,63,64,65,-1,65,64,66,-1,65,66,67,-1,67,66,68,-1,67,68,69,-1,69,68,70,-1,69,70,71,-1,71,70,72,-1,71,72,73,-1,73,72,74,-1,73,74,75,-1,75,74,76,-1,75,76,77,-1,77,76,78,-1,77,78,79,-1,79,78,80,-1,79,80,81,-1,81,80,82,-1,81,82,83,-1,83,82,84,-1,83,84,85,-1,85,84,86,-1,85,86,87,-1,87,86,88,-1,87,88,89,-1,89,88,90,-1,89,90,91,-1,91,90,92,-1,91,92,93,-1,93,92,94,-1,93,94,95,-1,96,97,94,-1,94,97,95,-1,98,99,96,-1,96,99,97,-1,51,50,98,-1,98,50,99,-1,95,97,99,-1,73,75,95,-1,61,63,95,-1,95,63,65,-1,95,65,67,-1,67,69,95,-1,95,69,71,-1,95,71,73,-1,99,50,95,-1,95,50,53,-1,95,53,55,-1,75,77,95,-1,95,77,79,-1,95,79,81,-1,55,57,95,-1,95,57,59,-1,95,59,61,-1,83,91,81,-1,81,91,93,-1,81,93,95,-1,83,85,91,-1,91,85,87,-1,91,87,89,-1,51,98,96,-1,72,70,51,-1,96,94,51,-1,51,94,92,-1,51,92,90,-1,78,76,51,-1,51,76,74,-1,51,74,72,-1,84,82,51,-1,51,82,80,-1,51,80,78,-1,70,68,51,-1,51,68,66,-1,51,66,64,-1,90,88,51,-1,51,88,86,-1,51,86,84,-1,56,54,58,-1,58,54,60,-1,64,62,51,-1,51,62,60,-1,51,60,52,-1,52,60,54,-1,100,101,102,-1,100,102,103,-1,103,102,104,-1,103,104,105,-1,105,104,106,-1,105,106,107,-1,107,106,108,-1,107,108,109,-1,109,108,110,-1,109,110,111,-1,111,110,112,-1,111,112,113,-1,113,112,114,-1,113,114,115,-1,115,114,116,-1,115,116,117,-1,117,116,118,-1,117,118,119,-1,119,118,120,-1,119,120,121,-1,121,120,122,-1,121,122,123,-1,123,122,124,-1,123,124,125,-1,125,124,126,-1,125,126,127,-1,127,126,128,-1,127,128,129,-1,129,128,130,-1,129,130,131,-1,131,130,132,-1,131,132,133,-1,133,132,134,-1,133,134,135,-1,135,134,136,-1,135,136,137,-1,137,136,138,-1,137,138,139,-1,139,138,140,-1,139,140,141,-1,141,140,142,-1,141,142,143,-1,143,142,144,-1,143,144,145,-1,146,147,144,-1,144,147,145,-1,148,149,146,-1,146,149,147,-1,101,100,148,-1,148,100,149,-1,147,149,145,-1,145,149,100,-1,113,115,145,-1,145,115,117,-1,117,119,145,-1,145,119,121,-1,145,121,123,-1,100,103,145,-1,145,103,105,-1,145,105,107,-1,123,125,145,-1,145,125,127,-1,145,127,129,-1,129,131,145,-1,145,131,133,-1,145,133,135,-1,107,109,145,-1,145,109,111,-1,145,111,113,-1,135,137,139,-1,139,141,135,-1,135,141,143,-1,135,143,145,-1,138,136,134,-1,132,130,144,-1,144,130,128,-1,122,120,144,-1,144,120,118,-1,144,118,116,-1,116,114,144,-1,144,114,112,-1,144,112,110,-1,128,126,144,-1,144,126,124,-1,144,124,122,-1,148,146,101,-1,101,146,144,-1,101,144,102,-1,102,144,104,-1,138,134,140,-1,110,108,144,-1,144,108,106,-1,144,106,104,-1,132,144,134,-1,134,144,142,-1,134,142,140,-1,150,151,152,-1,150,152,153,-1,153,152,154,-1,153,154,155,-1,155,154,156,-1,155,156,157,-1,157,156,158,-1,157,158,159,-1,159,158,160,-1,159,160,161,-1,161,160,162,-1,161,162,163,-1,163,162,164,-1,163,164,165,-1,165,164,166,-1,165,166,167,-1,167,166,168,-1,167,168,169,-1,169,168,170,-1,169,170,171,-1,171,170,172,-1,171,172,173,-1,173,172,174,-1,173,174,175,-1,175,174,176,-1,175,176,177,-1,177,176,178,-1,177,178,179,-1,179,178,180,-1,179,180,181,-1,181,180,182,-1,181,182,183,-1,183,182,184,-1,183,184,185,-1,185,184,186,-1,185,186,187,-1,187,186,188,-1,187,188,189,-1,189,188,190,-1,189,190,191,-1,191,190,192,-1,191,192,193,-1,193,192,194,-1,193,194,195,-1,196,197,194,-1,194,197,195,-1,198,199,196,-1,196,199,197,-1,151,150,198,-1,198,150,199,-1,197,199,195,-1,195,199,150,-1,163,165,195,-1,195,165,167,-1,195,167,169,-1,150,153,195,-1,195,153,155,-1,195,155,157,-1,169,171,195,-1,195,171,173,-1,195,173,175,-1,175,177,195,-1,195,177,179,-1,195,179,181,-1,191,185,189,-1,189,185,187,-1,181,183,195,-1,195,183,185,-1,195,185,193,-1,193,185,191,-1,157,159,195,-1,195,159,161,-1,195,161,163,-1,198,196,151,-1,151,196,194,-1,182,180,151,-1,194,192,151,-1,151,192,190,-1,151,190,188,-1,180,178,151,-1,151,178,176,-1,151,176,174,-1,188,186,151,-1,151,186,184,-1,151,184,182,-1,174,172,151,-1,151,172,170,-1,151,170,168,-1,168,166,151,-1,151,166,164,-1,151,164,152,-1,152,164,154,-1,164,162,154,-1,154,162,160,-1,154,160,156,-1,156,160,158,-1,200,201,202,-1,200,202,203,-1,203,202,204,-1,203,204,205,-1,205,204,206,-1,205,206,207,-1,207,206,208,-1,207,208,209,-1,209,208,210,-1,209,210,211,-1,211,210,212,-1,211,212,213,-1,213,212,214,-1,213,214,215,-1,215,214,216,-1,215,216,217,-1,217,216,218,-1,217,218,219,-1,219,218,220,-1,219,220,221,-1,221,220,222,-1,221,222,223,-1,223,222,224,-1,223,224,225,-1,225,224,226,-1,225,226,227,-1,227,226,228,-1,227,228,229,-1,229,228,230,-1,229,230,231,-1,231,230,232,-1,231,232,233,-1,233,232,234,-1,233,234,235,-1,235,234,236,-1,235,236,237,-1,237,236,238,-1,237,238,239,-1,239,238,240,-1,239,240,241,-1,241,240,242,-1,241,242,243,-1,243,242,244,-1,243,244,245,-1,246,247,244,-1,244,247,245,-1,248,249,246,-1,246,249,247,-1,201,200,248,-1,248,200,249,-1,247,249,245,-1,245,249,200,-1,200,203,245,-1,245,203,205,-1,245,205,207,-1,213,215,245,-1,245,215,217,-1,245,217,219,-1,207,209,245,-1,245,209,211,-1,245,211,213,-1,219,221,245,-1,245,221,223,-1,245,223,225,-1,225,227,245,-1,245,227,229,-1,245,229,231,-1,241,235,239,-1,239,235,237,-1,231,233,245,-1,245,233,235,-1,245,235,243,-1,243,235,241,-1,248,246,201,-1,201,246,244,-1,244,242,201,-1,201,242,240,-1,201,240,238,-1,232,230,201,-1,201,230,228,-1,201,228,226,-1,238,236,201,-1,201,236,234,-1,201,234,232,-1,226,224,201,-1,201,224,222,-1,201,222,220,-1,220,218,201,-1,201,218,216,-1,201,216,214,-1,204,210,206,-1,206,210,208,-1,214,212,201,-1,201,212,210,-1,201,210,202,-1,202,210,204,-1,250,251,252,-1,250,252,253,-1,253,252,254,-1,253,254,255,-1,255,254,256,-1,255,256,257,-1,257,256,258,-1,257,258,259,-1,259,258,260,-1,259,260,261,-1,261,260,262,-1,261,262,263,-1,263,262,264,-1,263,264,265,-1,265,264,266,-1,265,266,267,-1,267,266,268,-1,267,268,269,-1,269,268,270,-1,269,270,271,-1,271,270,272,-1,271,272,273,-1,273,272,274,-1,273,274,275,-1,275,274,276,-1,275,276,277,-1,277,276,278,-1,277,278,279,-1,279,278,280,-1,279,280,281,-1,281,280,282,-1,281,282,283,-1,283,282,284,-1,283,284,285,-1,285,284,286,-1,285,286,287,-1,287,286,288,-1,287,288,289,-1,289,288,290,-1,289,290,291,-1,291,290,292,-1,291,292,293,-1,293,292,294,-1,293,294,295,-1,296,297,294,-1,294,297,295,-1,298,299,296,-1,296,299,297,-1,251,250,298,-1,298,250,299,-1,297,299,295,-1,295,299,250,-1,295,250,293,-1,275,250,273,-1,273,250,271,-1,253,255,261,-1,261,255,257,-1,261,257,259,-1,253,261,250,-1,250,261,263,-1,250,263,265,-1,265,267,250,-1,250,267,269,-1,250,269,271,-1,275,277,250,-1,250,277,279,-1,250,279,281,-1,281,283,250,-1,250,283,285,-1,250,285,287,-1,287,289,250,-1,250,289,291,-1,250,291,293,-1,251,298,296,-1,296,294,251,-1,251,294,292,-1,251,292,290,-1,272,270,251,-1,284,282,251,-1,251,282,280,-1,251,280,278,-1,278,276,251,-1,251,276,274,-1,251,274,272,-1,270,268,251,-1,251,268,266,-1,251,266,264,-1,254,260,256,-1,256,260,258,-1,264,262,251,-1,251,262,260,-1,251,260,252,-1,252,260,254,-1,290,288,251,-1,251,288,286,-1,251,286,284,-1,300,301,302,-1,300,302,303,-1,303,302,304,-1,303,304,305,-1,305,304,306,-1,305,306,307,-1,307,306,308,-1,307,308,309,-1,309,308,310,-1,309,310,311,-1,311,310,312,-1,311,312,313,-1,313,312,314,-1,313,314,315,-1,315,314,316,-1,315,316,317,-1,317,316,318,-1,317,318,319,-1,319,318,320,-1,319,320,321,-1,321,320,322,-1,321,322,323,-1,323,322,324,-1,323,324,325,-1,325,324,326,-1,325,326,327,-1,327,326,328,-1,327,328,329,-1,329,328,330,-1,329,330,331,-1,331,330,332,-1,331,332,333,-1,333,332,334,-1,333,334,335,-1,335,334,336,-1,335,336,337,-1,337,336,338,-1,337,338,339,-1,339,338,340,-1,339,340,341,-1,341,340,342,-1,341,342,343,-1,343,342,344,-1,343,344,345,-1,346,347,344,-1,344,347,345,-1,348,349,346,-1,346,349,347,-1,301,300,348,-1,348,300,349,-1,347,349,345,-1,345,349,300,-1,323,325,345,-1,300,303,345,-1,345,303,305,-1,345,305,307,-1,313,315,345,-1,345,315,317,-1,307,309,345,-1,345,309,311,-1,345,311,313,-1,317,319,345,-1,345,319,321,-1,345,321,323,-1,325,327,345,-1,345,327,329,-1,345,329,331,-1,339,341,337,-1,337,341,335,-1,331,333,345,-1,345,333,335,-1,345,335,343,-1,343,335,341,-1,322,320,344,-1,344,320,318,-1,344,318,316,-1,316,314,344,-1,344,314,312,-1,344,312,310,-1,334,332,344,-1,344,332,330,-1,344,330,328,-1,328,326,344,-1,344,326,324,-1,344,324,322,-1,348,346,301,-1,301,346,344,-1,301,344,302,-1,302,344,304,-1,344,342,334,-1,334,342,340,-1,334,340,336,-1,336,340,338,-1,310,308,344,-1,344,308,306,-1,344,306,304,-1,350,351,352,-1,350,352,353,-1,353,352,354,-1,353,354,355,-1,355,354,356,-1,355,356,357,-1,357,356,358,-1,357,358,359,-1,359,358,360,-1,359,360,361,-1,361,360,362,-1,361,362,363,-1,363,362,364,-1,363,364,365,-1,365,364,366,-1,365,366,367,-1,367,366,368,-1,367,368,369,-1,369,368,370,-1,369,370,371,-1,371,370,372,-1,371,372,373,-1,373,372,374,-1,373,374,375,-1,375,374,376,-1,375,376,377,-1,377,376,378,-1,377,378,379,-1,379,378,380,-1,379,380,381,-1,381,380,382,-1,381,382,383,-1,383,382,384,-1,383,384,385,-1,385,384,386,-1,385,386,387,-1,387,386,388,-1,387,388,389,-1,389,388,390,-1,389,390,391,-1,391,390,392,-1,391,392,393,-1,393,392,394,-1,393,394,395,-1,396,397,394,-1,394,397,395,-1,398,399,396,-1,396,399,397,-1,351,350,398,-1,398,350,399,-1,397,399,395,-1,395,399,350,-1,350,353,395,-1,395,353,355,-1,395,355,357,-1,363,365,395,-1,395,365,367,-1,395,367,369,-1,357,359,395,-1,395,359,361,-1,395,361,363,-1,369,371,395,-1,395,371,373,-1,395,373,375,-1,375,377,395,-1,395,377,379,-1,395,379,381,-1,391,385,389,-1,389,385,387,-1,381,383,395,-1,395,383,385,-1,395,385,393,-1,393,385,391,-1,398,396,351,-1,351,396,394,-1,394,392,351,-1,351,392,390,-1,351,390,388,-1,382,380,351,-1,351,380,378,-1,351,378,376,-1,388,386,351,-1,351,386,384,-1,351,384,382,-1,376,374,351,-1,351,374,372,-1,351,372,370,-1,370,368,351,-1,351,368,366,-1,351,366,364,-1,354,360,356,-1,356,360,358,-1,364,362,351,-1,351,362,360,-1,351,360,352,-1,352,360,354,-1,400,401,402,-1,400,402,403,-1,403,402,404,-1,403,404,405,-1,405,404,406,-1,405,406,407,-1,407,406,408,-1,407,408,409,-1,409,408,410,-1,409,410,411,-1,411,410,412,-1,411,412,413,-1,413,412,414,-1,413,414,415,-1,415,414,416,-1,415,416,417,-1,417,416,418,-1,417,418,419,-1,419,418,420,-1,419,420,421,-1,421,420,422,-1,421,422,423,-1,423,422,424,-1,423,424,425,-1,425,424,426,-1,425,426,427,-1,427,426,428,-1,427,428,429,-1,429,428,430,-1,429,430,431,-1,431,430,432,-1,431,432,433,-1,433,432,434,-1,433,434,435,-1,435,434,436,-1,435,436,437,-1,437,436,438,-1,437,438,439,-1,439,438,440,-1,439,440,441,-1,441,440,442,-1,441,442,443,-1,443,442,444,-1,443,444,445,-1,446,447,444,-1,444,447,445,-1,448,449,446,-1,446,449,447,-1,401,400,448,-1,448,400,449,-1,423,425,445,-1,415,417,445,-1,447,449,445,-1,445,449,400,-1,445,400,403,-1,417,419,445,-1,445,419,421,-1,445,421,423,-1,403,405,445,-1,445,405,407,-1,445,407,409,-1,409,411,445,-1,445,411,413,-1,445,413,415,-1,425,427,445,-1,445,427,429,-1,445,429,431,-1,433,441,431,-1,431,441,443,-1,431,443,445,-1,433,435,441,-1,441,435,437,-1,441,437,439,-1,422,420,444,-1,448,446,401,-1,401,446,444,-1,401,444,402,-1,444,430,428,-1,420,418,444,-1,444,418,416,-1,444,416,414,-1,428,426,444,-1,444,426,424,-1,444,424,422,-1,414,412,444,-1,444,412,410,-1,444,410,408,-1,408,406,444,-1,444,406,404,-1,444,404,402,-1,444,442,430,-1,430,442,440,-1,430,440,438,-1,438,436,430,-1,430,436,434,-1,430,434,432,-1,450,451,452,-1,450,452,453,-1,453,452,454,-1,453,454,455,-1,455,454,456,-1,455,456,457,-1,457,456,458,-1,457,458,459,-1,459,458,460,-1,459,460,461,-1,461,460,462,-1,461,462,463,-1,463,462,464,-1,463,464,465,-1,465,464,466,-1,465,466,467,-1,467,466,468,-1,467,468,469,-1,469,468,470,-1,469,470,471,-1,471,470,472,-1,471,472,473,-1,473,472,474,-1,473,474,475,-1,475,474,476,-1,475,476,477,-1,477,476,478,-1,477,478,479,-1,479,478,480,-1,479,480,481,-1,481,480,482,-1,481,482,483,-1,483,482,484,-1,483,484,485,-1,485,484,486,-1,485,486,487,-1,487,486,488,-1,487,488,489,-1,489,488,490,-1,489,490,491,-1,491,490,492,-1,491,492,493,-1,493,492,494,-1,493,494,495,-1,496,497,494,-1,494,497,495,-1,498,499,496,-1,496,499,497,-1,451,450,498,-1,498,450,499,-1,465,467,495,-1,491,493,481,-1,497,499,495,-1,495,499,450,-1,495,450,453,-1,467,469,495,-1,495,469,471,-1,495,471,473,-1,453,455,495,-1,495,455,457,-1,495,457,459,-1,459,461,495,-1,495,461,463,-1,495,463,465,-1,473,475,495,-1,495,475,477,-1,495,477,493,-1,493,477,479,-1,493,479,481,-1,483,485,487,-1,483,487,481,-1,481,487,489,-1,481,489,491,-1,498,496,451,-1,451,496,494,-1,451,494,452,-1,470,494,472,-1,472,494,474,-1,470,468,494,-1,494,468,466,-1,494,466,464,-1,474,494,476,-1,476,494,492,-1,476,492,490,-1,464,462,494,-1,494,462,460,-1,494,460,458,-1,458,456,494,-1,494,456,454,-1,494,454,452,-1,480,486,482,-1,482,486,484,-1,490,488,476,-1,476,488,486,-1,476,486,478,-1,478,486,480,-1,500,501,502,-1,500,502,503,-1,503,502,504,-1,503,504,505,-1,505,504,506,-1,505,506,507,-1,507,506,508,-1,507,508,509,-1,509,508,510,-1,509,510,511,-1,511,510,512,-1,511,512,513,-1,513,512,514,-1,513,514,515,-1,515,514,516,-1,515,516,517,-1,517,516,518,-1,517,518,519,-1,519,518,520,-1,519,520,521,-1,521,520,522,-1,521,522,523,-1,523,522,524,-1,523,524,525,-1,525,524,526,-1,525,526,527,-1,527,526,528,-1,527,528,529,-1,529,528,530,-1,529,530,531,-1,531,530,532,-1,531,532,533,-1,533,532,534,-1,533,534,535,-1,535,534,536,-1,535,536,537,-1,537,536,538,-1,537,538,539,-1,539,538,540,-1,539,540,541,-1,541,540,542,-1,541,542,543,-1,543,542,544,-1,543,544,545,-1,546,547,544,-1,544,547,545,-1,548,549,546,-1,546,549,547,-1,501,500,548,-1,548,500,549,-1,515,517,545,-1,545,517,519,-1,545,519,521,-1,547,549,545,-1,545,549,500,-1,545,500,503,-1,521,523,545,-1,545,523,525,-1,545,525,527,-1,533,535,537,-1,527,529,545,-1,545,529,531,-1,545,531,543,-1,543,531,541,-1,503,505,545,-1,545,505,507,-1,545,507,509,-1,509,511,545,-1,545,511,513,-1,545,513,515,-1,533,537,531,-1,531,537,539,-1,531,539,541,-1,548,546,501,-1,501,546,544,-1,501,544,502,-1,526,524,544,-1,544,524,522,-1,544,522,520,-1,542,540,530,-1,520,518,544,-1,544,518,516,-1,544,516,514,-1,542,530,544,-1,544,530,528,-1,544,528,526,-1,540,538,530,-1,530,538,536,-1,530,536,532,-1,532,536,534,-1,514,512,544,-1,544,512,510,-1,544,510,508,-1,508,506,544,-1,544,506,504,-1,544,504,502,-1,550,551,552,-1,550,552,553,-1,553,552,554,-1,553,554,555,-1,555,554,556,-1,555,556,557,-1,557,556,558,-1,557,558,559,-1,559,558,560,-1,559,560,561,-1,561,560,562,-1,561,562,563,-1,563,562,564,-1,563,564,565,-1,565,564,566,-1,565,566,567,-1,567,566,568,-1,567,568,569,-1,569,568,570,-1,569,570,571,-1,571,570,572,-1,571,572,573,-1,573,572,574,-1,573,574,575,-1,575,574,576,-1,575,576,577,-1,577,576,578,-1,577,578,579,-1,579,578,580,-1,579,580,581,-1,581,580,582,-1,581,582,583,-1,583,582,584,-1,583,584,585,-1,585,584,586,-1,585,586,587,-1,587,586,588,-1,587,588,589,-1,589,588,590,-1,589,590,591,-1,591,590,592,-1,591,592,593,-1,593,592,594,-1,593,594,595,-1,596,597,594,-1,594,597,595,-1,598,599,596,-1,596,599,597,-1,551,550,598,-1,598,550,599,-1,573,575,595,-1,565,567,595,-1,597,599,595,-1,595,599,550,-1,595,550,553,-1,567,569,595,-1,595,569,571,-1,595,571,573,-1,553,555,595,-1,595,555,557,-1,595,557,559,-1,559,561,595,-1,595,561,563,-1,595,563,565,-1,575,577,595,-1,595,577,579,-1,595,579,581,-1,583,591,581,-1,581,591,593,-1,581,593,595,-1,583,585,591,-1,591,585,587,-1,591,587,589,-1,572,570,594,-1,598,596,551,-1,551,596,594,-1,551,594,552,-1,594,580,578,-1,570,568,594,-1,594,568,566,-1,594,566,564,-1,578,576,594,-1,594,576,574,-1,594,574,572,-1,564,562,594,-1,594,562,560,-1,594,560,558,-1,558,556,594,-1,594,556,554,-1,594,554,552,-1,594,592,580,-1,580,592,590,-1,580,590,588,-1,588,586,580,-1,580,586,584,-1,580,584,582,-1,600,601,602,-1,600,602,603,-1,603,602,604,-1,603,604,605,-1,605,604,606,-1,605,606,607,-1,607,606,608,-1,607,608,609,-1,609,608,610,-1,609,610,611,-1,611,610,612,-1,611,612,613,-1,613,612,614,-1,613,614,615,-1,615,614,616,-1,615,616,617,-1,617,616,618,-1,617,618,619,-1,619,618,620,-1,619,620,621,-1,621,620,622,-1,621,622,623,-1,623,622,624,-1,623,624,625,-1,625,624,626,-1,625,626,627,-1,627,626,628,-1,627,628,629,-1,629,628,630,-1,629,630,631,-1,631,630,632,-1,631,632,633,-1,633,632,634,-1,633,634,635,-1,635,634,636,-1,635,636,637,-1,637,636,638,-1,637,638,639,-1,639,638,640,-1,639,640,641,-1,641,640,642,-1,641,642,643,-1,643,642,644,-1,643,644,645,-1,646,647,644,-1,644,647,645,-1,648,649,646,-1,646,649,647,-1,601,600,648,-1,648,600,649,-1,647,649,645,-1,645,649,600,-1,613,615,645,-1,600,603,645,-1,645,603,605,-1,645,605,607,-1,631,645,629,-1,629,645,627,-1,615,617,645,-1,645,617,619,-1,645,619,621,-1,621,623,645,-1,645,623,625,-1,645,625,627,-1,633,641,631,-1,631,641,643,-1,631,643,645,-1,633,635,641,-1,641,635,637,-1,641,637,639,-1,607,609,645,-1,645,609,611,-1,645,611,613,-1,648,646,601,-1,601,646,644,-1,601,644,602,-1,602,644,604,-1,644,630,628,-1,644,642,630,-1,630,642,640,-1,630,640,638,-1,638,636,630,-1,630,636,634,-1,630,634,632,-1,628,626,644,-1,644,626,624,-1,644,624,622,-1,622,620,644,-1,644,620,618,-1,644,618,616,-1,616,614,644,-1,644,614,612,-1,644,612,610,-1,610,608,644,-1,644,608,606,-1,644,606,604,-1,650,651,652,-1,650,652,653,-1,653,652,654,-1,653,654,655,-1,655,654,656,-1,655,656,657,-1,657,656,658,-1,657,658,659,-1,659,658,660,-1,659,660,661,-1,661,660,662,-1,661,662,663,-1,663,662,664,-1,663,664,665,-1,665,664,666,-1,665,666,667,-1,667,666,668,-1,667,668,669,-1,669,668,670,-1,669,670,671,-1,671,670,672,-1,671,672,673,-1,673,672,674,-1,673,674,675,-1,675,674,676,-1,675,676,677,-1,677,676,678,-1,677,678,679,-1,679,678,680,-1,679,680,681,-1,681,680,682,-1,681,682,683,-1,683,682,684,-1,683,684,685,-1,685,684,686,-1,685,686,687,-1,687,686,688,-1,687,688,689,-1,689,688,690,-1,689,690,691,-1,691,690,692,-1,691,692,693,-1,693,692,694,-1,693,694,695,-1,696,697,694,-1,694,697,695,-1,698,699,696,-1,696,699,697,-1,651,650,698,-1,698,650,699,-1,675,677,695,-1,675,695,673,-1,697,699,695,-1,695,699,650,-1,695,650,653,-1,695,665,667,-1,653,655,695,-1,695,655,657,-1,695,657,659,-1,659,661,695,-1,695,661,663,-1,695,663,665,-1,667,669,695,-1,695,669,671,-1,695,671,673,-1,683,685,687,-1,677,679,695,-1,695,679,681,-1,695,681,693,-1,693,681,691,-1,683,687,681,-1,681,687,689,-1,681,689,691,-1,698,696,651,-1,651,696,694,-1,678,676,694,-1,664,662,694,-1,676,674,694,-1,694,674,672,-1,694,672,670,-1,678,694,680,-1,680,694,692,-1,680,692,690,-1,670,668,694,-1,694,668,666,-1,694,666,664,-1,662,660,694,-1,694,660,658,-1,694,658,656,-1,656,654,694,-1,694,654,652,-1,694,652,651,-1,690,688,680,-1,680,688,686,-1,680,686,682,-1,682,686,684,-1,700,701,702,-1,700,702,703,-1,703,702,704,-1,703,704,705,-1,705,704,706,-1,705,706,707,-1,707,706,708,-1,707,708,709,-1,709,708,710,-1,709,710,711,-1,711,710,712,-1,711,712,713,-1,713,712,714,-1,713,714,715,-1,715,714,716,-1,715,716,717,-1,717,716,718,-1,717,718,719,-1,719,718,720,-1,719,720,721,-1,721,720,722,-1,721,722,723,-1,723,722,724,-1,723,724,725,-1,725,724,726,-1,725,726,727,-1,727,726,728,-1,727,728,729,-1,729,728,730,-1,729,730,731,-1,731,730,732,-1,731,732,733,-1,733,732,734,-1,733,734,735,-1,735,734,736,-1,735,736,737,-1,737,736,738,-1,737,738,739,-1,739,738,740,-1,739,740,741,-1,741,740,742,-1,741,742,743,-1,743,742,744,-1,743,744,745,-1,746,747,744,-1,744,747,745,-1,748,749,746,-1,746,749,747,-1,701,700,748,-1,748,700,749,-1,747,749,745,-1,745,749,700,-1,713,715,745,-1,745,715,717,-1,745,717,719,-1,719,721,745,-1,745,721,723,-1,745,723,725,-1,725,727,745,-1,745,727,729,-1,745,729,731,-1,700,703,745,-1,745,703,705,-1,745,705,707,-1,707,709,745,-1,745,709,711,-1,745,711,713,-1,733,741,731,-1,731,741,743,-1,731,743,745,-1,733,735,741,-1,741,735,737,-1,741,737,739,-1,744,730,728,-1,728,726,744,-1,744,726,724,-1,744,724,722,-1,722,720,744,-1,744,720,718,-1,744,718,716,-1,748,746,701,-1,701,746,744,-1,701,744,702,-1,702,744,704,-1,716,714,744,-1,744,714,712,-1,744,712,710,-1,744,742,730,-1,730,742,740,-1,730,740,738,-1,738,736,730,-1,730,736,734,-1,730,734,732,-1,710,708,744,-1,744,708,706,-1,744,706,704,-1,750,751,752,-1,752,751,753,-1,754,755,750,-1,750,755,751,-1,756,757,754,-1,754,757,755,-1,757,756,758,-1,757,758,759,-1,759,758,760,-1,759,760,761,-1,761,760,762,-1,761,762,763,-1,763,762,764,-1,763,764,765,-1,765,764,766,-1,765,766,767,-1,767,766,768,-1,767,768,769,-1,769,768,770,-1,769,770,771,-1,771,770,772,-1,771,772,773,-1,773,772,774,-1,773,774,775,-1,775,774,776,-1,775,776,777,-1,777,776,778,-1,777,778,779,-1,779,778,780,-1,779,780,781,-1,781,780,782,-1,781,782,783,-1,783,782,784,-1,783,784,785,-1,785,784,786,-1,785,786,787,-1,787,786,788,-1,787,788,789,-1,789,788,790,-1,789,790,791,-1,791,790,792,-1,791,792,793,-1,793,792,794,-1,793,794,795,-1,795,794,796,-1,795,796,797,-1,797,796,798,-1,797,798,799,-1,799,798,752,-1,799,752,753,-1,751,755,753,-1,753,755,757,-1,769,771,753,-1,757,759,753,-1,753,759,761,-1,753,761,763,-1,787,753,785,-1,785,753,783,-1,771,773,753,-1,753,773,775,-1,753,775,777,-1,777,779,753,-1,753,779,781,-1,753,781,783,-1,789,797,787,-1,787,797,799,-1,787,799,753,-1,789,791,797,-1,797,791,793,-1,797,793,795,-1,763,765,753,-1,753,765,767,-1,753,767,769,-1,754,750,756,-1,756,750,752,-1,756,752,758,-1,758,752,760,-1,752,786,784,-1,752,798,786,-1,786,798,796,-1,786,796,794,-1,794,792,786,-1,786,792,790,-1,786,790,788,-1,784,782,752,-1,752,782,780,-1,752,780,778,-1,778,776,752,-1,752,776,774,-1,752,774,772,-1,772,770,752,-1,752,770,768,-1,752,768,766,-1,766,764,752,-1,752,764,762,-1,752,762,760,-1,800,801,802,-1,802,801,803,-1,804,805,800,-1,800,805,801,-1,806,807,804,-1,804,807,805,-1,808,809,806,-1,806,809,807,-1,802,803,808,-1,808,803,809,-1,809,803,807,-1,807,803,801,-1,807,801,805,-1,806,804,808,-1,808,804,800,-1,808,800,802,-1,
        ]
    }
}
Shape{
    appearance Appearance {
        material  Material 	{
            diffuseColor 0.25098039215686274 0.25098039215686274 0.25098039215686274
            specularColor 0.12549019607843137 0.12549019607843137 0.12549019607843137
            ambientIntensity 0.251
            transparency 0.0
            shininess 0.5
        }
    }
    geometry IndexedFaceSet {
        ccw TRUE
        solid FALSE
        coord DEF co Coordinate {
            point [
                0.0591 -0.4921 0.0197, 0.0591 -0.5906 0.0197, 0.0422 -0.5906 0.0197, 0.3268 0.3268 0.0197, 0.227 0.3268 0.0197, 0.227 0.3476 0.0197, 0.0882 0.4541 0.0197, 0.0944 0.4533 0.0197, 0.0944 0.4286 0.0197, 0.0618 0.4225 0.0197, 0.0676 0.4218 0.0197, 0.049 0.3782 0.0197, 0.0479 0.3787 0.0197, 0.0479 0.3723 0.0197, 0.0422 0.3688 0.0197, 0.0542 0.3697 0.0197, 0.0602 0.3688 0.0197, 0.0546 0.4216 0.0197, 0.0479 0.4187 0.0197, 0.0422 0.4286 0.0197, 0.0479 0.4266 0.0197, 0.072 0.4202 0.0197, 0.0761 0.4175 0.0197, 0.0796 0.4136 0.0197, 0.0839 0.3981 0.0197, 0.0833 0.3917 0.0197, 0.0817 0.3866 0.0197, 0.0686 0.3756 0.0197, 0.0631 0.375 0.0197, 0.0729 0.3772 0.0197, 0.0765 0.3796 0.0197, 0.0793 0.3825 0.0197, 0.0552 0.3758 0.0197, 0.0821 0.409 0.0197, 0.0837 0.4027 0.0197, 0.0662 0.4286 0.0197, 0.0618 0.429 0.0197, 0.0788 0.458 0.0197, 0.0604 0.4819 0.0197, 0.0643 0.4724 0.0197, 0.0706 0.4643 0.0197, 0.0591 0.4921 0.0197, 0.0422 0.5905 0.0197, 0.0591 0.5905 0.0197, 0.0566 0.4286 0.0197, 0.0548 0.4285 0.0197, 0.0819 0.3742 0.0197, 0.0864 0.3789 0.0197, 0.0944 0.3688 0.0197, 0.0772 0.3712 0.0197, 0.0853 0.4182 0.0197, 0.0799 0.4233 0.0197, 0.0743 0.4266 0.0197, 0.0919 0.3976 0.0197, 0.091 0.406 0.0197, 0.0887 0.4127 0.0197, 0.0678 0.4285 0.0197, 0.0895 0.3845 0.0197, 0.0913 0.3908 0.0197, 0.0626 0.3685 0.0197, 0.0422 0.3476 0.0197, 0.0642 0.3685 0.0197, 0.0944 0.3476 0.0197, 0.0676 0.3688 0.0197, 0.0714 0.3692 0.0197, 0.3333 -0.4819 0.0197, 0.3294 -0.4725 0.0197, 0.5848 -0.5848 0.0197, 0.4819 -0.3333 0.0197, 0.4921 -0.3347 0.0197, 0.2612 -0.4725 0.0197, 0.227 -0.3268 0.0197, 0.2674 -0.4643 0.0197, 0.2756 -0.458 0.0197, 0.2559 -0.5906 0.0197, 0.227 -0.5906 0.0197, 0.2559 -0.4921 0.0197, 0.2573 -0.4819 0.0197, 0.5906 -0.3347 0.0197, 0.5906 -0.5709 0.0197, 0.5709 -0.5906 0.0197, 0.3347 -0.5906 0.0197, 0.3347 -0.4921 0.0197, 0.3268 -0.3268 0.0197, 0.3231 -0.4643 0.0197, 0.315 -0.458 0.0197, 0.5906 0.3476 0.0197, 0.5906 0.3346 0.0197, 0.4921 0.3346 0.0197, 0.576 -0.5899 0.0197, 0.4528 -0.2953 0.0197, 0.4541 -0.3055 0.0197, 0.5899 -0.576 0.0197, 0.5879 -0.5807 0.0197, 0.3055 -0.4541 0.0197, 0.2953 -0.4528 0.0197, 0.2851 -0.4541 0.0197, 0.4725 -0.1325 0.0197, 0.4819 -0.1365 0.0197, 0.4725 -0.2612 0.0197, 0.4725 0.0643 0.0197, 0.4819 0.0604 0.0197, 0.4725 -0.0643 0.0197, 0.458 -0.0788 0.0197, 0.4541 -0.0882 0.0197, 0.458 0.0787 0.0197, 0.4528 -0.0984 0.0197, 0.4541 0.0882 0.0197, 0.5807 -0.5879 0.0197, 0.4643 -0.1263 0.0197, 0.4643 0.0706 0.0197, 0.458 -0.315 0.0197, 0.4643 -0.3231 0.0197, 0.4725 -0.3294 0.0197, 0.4643 -0.0706 0.0197, 0.4819 0.1364 0.0197, 0.4725 0.1325 0.0197, 0.4643 0.1263 0.0197, 0.458 0.1181 0.0197, 0.4643 -0.2674 0.0197, 0.458 -0.2756 0.0197, 0.4541 -0.2851 0.0197, 0.4819 0.3333 0.0197, 0.4725 0.3294 0.0197, 0.4643 0.3231 0.0197, 0.4528 0.2953 0.0197, 0.4541 0.2851 0.0197, 0.458 0.2756 0.0197, 0.4643 0.2674 0.0197, 0.4725 0.2612 0.0197, 0.5906 -0.1378 0.0197, 0.5906 -0.2559 0.0197, 0.4921 -0.1378 0.0197, 0.4921 -0.2559 0.0197, 0.4819 -0.2573 0.0197, 0.5906 0.059 0.0197, 0.5906 -0.0591 0.0197, 0.4921 0.059 0.0197, 0.4921 -0.0591 0.0197, 0.4819 -0.0604 0.0197, 0.458 0.315 0.0197, 0.4541 0.3055 0.0197, 0.4541 0.1086 0.0197, 0.4528 0.0984 0.0197, 0.4541 -0.1086 0.0197, 0.458 -0.1181 0.0197, 0.4921 0.2559 0.0197, 0.5906 0.2559 0.0197, 0.5906 0.1378 0.0197, 0.4819 0.2572 0.0197, 0.4921 0.1378 0.0197, 0.1365 -0.4819 0.0197, 0.1325 -0.4725 0.0197, 0.1378 -0.4921 0.0197, 0.1378 -0.5906 0.0197, 0.1086 -0.4541 0.0197, 0.0944 -0.3268 0.0197, 0.1181 -0.458 0.0197, 0.1263 -0.4643 0.0197, 0.0422 -0.3268 0.0197, 0.0604 -0.4819 0.0197, 0.0984 -0.4528 0.0197, 0.0944 -0.4533 0.0197, 0.0882 -0.4541 0.0197, 0.0788 -0.458 0.0197, 0.0706 -0.4643 0.0197, 0.0643 -0.4725 0.0197, -0.001 -0.5906 0.0197, -0.001 -0.3268 0.0197, -0.0565 -0.5906 0.0197, -0.0565 -0.3268 0.0197, -0.4921 0.3346 0.0197, -0.5905 0.3346 0.0197, -0.5905 0.3476 0.0197, -0.4724 -0.1325 0.0197, -0.4643 -0.1263 0.0197, -0.4819 -0.2573 0.0197, -0.5848 -0.5848 0.0197, -0.3333 -0.4819 0.0197, -0.3346 -0.4921 0.0197, -0.1364 -0.4819 0.0197, -0.2612 -0.4725 0.0197, -0.2674 -0.4643 0.0197, -0.4724 0.0643 0.0197, -0.4643 0.0706 0.0197, -0.4819 -0.0604 0.0197, -0.0604 -0.4819 0.0197, -0.0643 -0.4725 0.0197, -0.3055 -0.4541 0.0197, -0.315 -0.458 0.0197, -0.3268 -0.3268 0.0197, -0.3231 -0.4643 0.0197, -0.3294 -0.4725 0.0197, -0.3346 -0.5906 0.0197, -0.5709 -0.5906 0.0197, -0.4541 0.3055 0.0197, -0.458 0.315 0.0197, -0.189 0.3268 0.0197, -0.4643 0.3231 0.0197, -0.0706 -0.4643 0.0197, -0.0787 -0.458 0.0197, -0.0882 -0.4541 0.0197, -0.4724 0.3294 0.0197, -0.4819 0.3333 0.0197, -0.458 -0.315 0.0197, -0.4541 -0.3055 0.0197, -0.3268 0.189 0.0197, -0.4724 -0.2612 0.0197, -0.4643 -0.2674 0.0197, -0.576 -0.5899 0.0197, -0.5807 -0.5879 0.0197, -0.1378 -0.5906 0.0197, -0.2559 -0.5906 0.0197, -0.1378 -0.4921 0.0197, -0.2559 -0.4921 0.0197, -0.2572 -0.4819 0.0197, -0.4921 0.2559 0.0197, -0.4819 0.2572 0.0197, -0.4724 0.2612 0.0197, -0.4643 0.2674 0.0197, -0.4921 -0.3347 0.0197, -0.5879 -0.5807 0.0197, -0.4527 -0.2953 0.0197, -0.4541 -0.2851 0.0197, -0.458 -0.2756 0.0197, -0.458 0.0787 0.0197, -0.4527 -0.0984 0.0197, -0.4541 -0.0882 0.0197, -0.458 -0.0788 0.0197, -0.059 -0.4921 0.0197, -0.059 -0.5906 0.0197, -0.1181 -0.458 0.0197, -0.1086 -0.4541 0.0197, -0.0984 -0.4528 0.0197, -0.1263 -0.4643 0.0197, -0.1325 -0.4725 0.0197, -0.458 0.2756 0.0197, -0.4541 0.2851 0.0197, -0.4527 0.2953 0.0197, -0.5899 -0.576 0.0197, -0.5905 -0.5709 0.0197, -0.5905 -0.3347 0.0197, -0.4819 -0.3333 0.0197, -0.4724 -0.3294 0.0197, -0.4643 -0.3231 0.0197, -0.5905 -0.2559 0.0197, -0.5905 -0.1378 0.0197, -0.4921 -0.2559 0.0197, -0.4921 -0.1378 0.0197, -0.4819 -0.1365 0.0197, -0.4643 -0.0706 0.0197, -0.4724 -0.0643 0.0197, -0.4541 0.0882 0.0197, -0.4527 0.0984 0.0197, -0.4541 0.1086 0.0197, -0.458 0.1181 0.0197, -0.2756 -0.458 0.0197, -0.2851 -0.4541 0.0197, -0.2953 -0.4528 0.0197, -0.4541 -0.1086 0.0197, -0.458 -0.1181 0.0197, -0.5905 -0.0591 0.0197, -0.5905 0.059 0.0197, -0.4921 -0.0591 0.0197, -0.4921 0.059 0.0197, -0.4819 0.0604 0.0197, -0.5905 0.1378 0.0197, -0.5905 0.2559 0.0197, -0.4921 0.1378 0.0197, -0.4643 0.1263 0.0197, -0.4724 0.1325 0.0197, -0.4819 0.1364 0.0197, -0.0565 0.3476 0.0197, -0.0565 0.3268 0.0197, -0.001 0.3476 0.0197, -0.001 0.3268 0.0197, 0.0422 0.3268 0.0197, 0.0944 0.3268 0.0197, 0.5906 0.4286 0.0197, 0.3333 0.4819 0.0197, 0.3347 0.4921 0.0197, 0.2573 0.4819 0.0197, 0.2612 0.4724 0.0197, 0.227 0.4286 0.0197, 0.5906 0.5709 0.0197, 0.3347 0.5905 0.0197, 0.5709 0.5905 0.0197, 0.2674 0.4643 0.0197, 0.2756 0.458 0.0197, 0.2851 0.4541 0.0197, 0.2953 0.4527 0.0197, 0.3055 0.4541 0.0197, 0.315 0.458 0.0197, 0.5848 0.5848 0.0197, 0.5899 0.576 0.0197, 0.5879 0.5807 0.0197, 0.227 0.5905 0.0197, 0.2559 0.5905 0.0197, 0.2559 0.4921 0.0197, 0.3231 0.4643 0.0197, 0.3294 0.4724 0.0197, 0.576 0.5899 0.0197, 0.5807 0.5879 0.0197, 0.1263 0.4643 0.0197, 0.1325 0.4724 0.0197, 0.1378 0.5905 0.0197, 0.1378 0.4921 0.0197, 0.1365 0.4819 0.0197, 0.0984 0.4527 0.0197, 0.1086 0.4541 0.0197, 0.1181 0.458 0.0197, -0.059 0.5905 0.0197, -0.0565 0.5905 0.0197, -0.059 0.4921 0.0197, -0.0565 0.4286 0.0197, -0.0604 0.4819 0.0197, -0.3346 0.4921 0.0197, -0.3333 0.4819 0.0197, -0.5905 0.4286 0.0197, -0.3294 0.4724 0.0197, -0.3231 0.4643 0.0197, -0.2572 0.4819 0.0197, -0.1325 0.4724 0.0197, -0.1263 0.4643 0.0197, -0.0882 0.4541 0.0197, -0.0787 0.458 0.0197, -0.2851 0.4541 0.0197, -0.2756 0.458 0.0197, -0.0706 0.4643 0.0197, -0.0643 0.4724 0.0197, -0.315 0.458 0.0197, -0.3055 0.4541 0.0197, -0.2953 0.4527 0.0197, -0.2674 0.4643 0.0197, -0.2612 0.4724 0.0197, -0.2559 0.5905 0.0197, -0.1378 0.5905 0.0197, -0.2559 0.4921 0.0197, -0.1378 0.4921 0.0197, -0.1364 0.4819 0.0197, -0.1181 0.458 0.0197, -0.1086 0.4541 0.0197, -0.0984 0.4527 0.0197, -0.5807 0.5879 0.0197, -0.576 0.5899 0.0197, -0.5848 0.5848 0.0197, -0.5709 0.5905 0.0197, -0.5879 0.5807 0.0197, -0.3346 0.5905 0.0197, -0.5905 0.5709 0.0197, -0.5899 0.576 0.0197, -0.1033 0.3692 0.0197, -0.0565 0.3688 0.0197, -0.112 0.3692 0.0197, -0.5905 0.3688 0.0197, -0.0889 0.4283 0.0197, -0.0973 0.3858 0.0197, -0.0729 0.3858 0.0197, -0.0673 0.3692 0.0197, -0.0587 0.3692 0.0197, -0.081 0.4283 0.0197, -0.0514 0.3854 0.0197, -0.048 0.3801 0.0197, -0.0431 0.3754 0.0197, -0.037 0.3719 0.0197, -0.001 0.5905 0.0197, -0.001 0.4286 0.0197, -0.0235 0.4283 0.0197, -0.032 0.4273 0.0197, -0.0389 0.4249 0.0197, -0.0453 0.4206 0.0197, -0.0454 0.4206 0.0197, -0.0496 0.4159 0.0197, -0.0523 0.4108 0.0197, -0.0302 0.3698 0.0197, -0.0229 0.3692 0.0197, -0.001 0.3688 0.0197, -0.0068 0.3692 0.0197, -0.0068 0.4283 0.0197, -0.0539 0.405 0.0197, -0.0543 0.3995 0.0197, -0.0535 0.3916 0.0197, 0.0364 0.3692 0.0197, 0.0364 0.4283 0.0197, 0.0062 0.4283 0.0197, 0.0062 0.4218 0.0197, 0.0047 0.3757 0.0197, 0.0047 0.3692 0.0197, 0.0285 0.3958 0.0197, 0.0285 0.3757 0.0197, 0.0076 0.3958 0.0197, 0.0076 0.4023 0.0197, 0.0285 0.4023 0.0197, 0.0285 0.4218 0.0197, 0.0969 0.3757 0.0197, 0.0969 0.3692 0.0197, 0.1192 0.3757 0.0197, 0.1192 0.4283 0.0197, 0.1271 0.4283 0.0197, 0.1271 0.3692 0.0197, 0.227 0.3688 0.0197, 0.5906 0.3688 0.0197, 0.5906 0.5709 0.315, 0.5906 -0.5709 0.315, 0.5906 -0.2559 0.0591, 0.5906 -0.1378 0.0591, 0.5906 -0.3347 0.0591, 0.5906 -0.0591 0.0591, 0.5906 0.1378 0.0591, 0.5906 0.2559 0.0591, 0.5906 0.3346 0.0591, 0.5906 0.059 0.0591, -0.5709 -0.5906 0.315, -0.3346 -0.5906 0.0591, -0.2559 -0.5906 0.0591, 0.5709 -0.5906 0.315, 0.0591 -0.5906 0.0591, 0.1378 -0.5906 0.0591, -0.059 -0.5906 0.0591, 0.2559 -0.5906 0.0591, -0.1378 -0.5906 0.0591, 0.3347 -0.5906 0.0591, -0.5905 -0.5709 0.315, -0.5905 0.5709 0.315, -0.5905 0.2559 0.0591, -0.5905 0.3346 0.0591, -0.5905 0.059 0.0591, -0.5905 -0.0591 0.0591, -0.5905 -0.1378 0.0591, -0.5905 0.1378 0.0591, -0.5905 -0.3347 0.0591, -0.5905 -0.2559 0.0591, 0.5709 0.5905 0.315, 0.3347 0.5905 0.0591, 0.2559 0.5905 0.0591, -0.5709 0.5905 0.315, 0.1378 0.5905 0.0591, -0.059 0.5905 0.0591, 0.0591 0.5905 0.0591, -0.1378 0.5905 0.0591, -0.3346 0.5905 0.0591, -0.2559 0.5905 0.0591, -0.4607 0.4028 0.315, -0.4716 0.4111 0.315, -0.3972 0.4855 0.315, -0.3889 0.4746 0.315, 0.5879 0.5807 0.315, 0.5848 0.5848 0.315, -0.3819 0.4483 0.315, 0.5807 0.5879 0.315, 0.576 0.5899 0.315, -0.3836 0.4619 0.315, -0.4081 0.4028 0.315, 0.576 -0.5899 0.315, 0.5879 -0.5807 0.315, -0.3972 0.4111 0.315, 0.5899 -0.576 0.315, -0.3889 0.422 0.315, -0.3836 0.4347 0.315, 0.5899 0.576 0.315, -0.4716 0.4855 0.315, -0.576 0.5899 0.315, -0.5807 0.5879 0.315, -0.4799 0.4746 0.315, -0.5848 0.5848 0.315, -0.5879 0.5807 0.315, -0.4607 0.4938 0.315, -0.448 0.4991 0.315, -0.4344 0.5009 0.315, -0.4208 0.4991 0.315, -0.4081 0.4938 0.315, 0.5807 -0.5879 0.315, 0.5848 -0.5848 0.315, -0.5899 -0.576 0.315, -0.4344 0.3957 0.315, -0.448 0.3975 0.315, -0.5879 -0.5807 0.315, -0.5848 -0.5848 0.315, -0.5807 -0.5879 0.315, -0.4208 0.3975 0.315, -0.576 -0.5899 0.315, -0.4799 0.422 0.315, -0.4852 0.4347 0.315, -0.487 0.4483 0.315, -0.4852 0.4619 0.315, -0.5899 0.576 0.315, -0.2559 0.4921 0.0591, -0.2572 0.4819 0.0591, -0.2612 0.4724 0.0591, -0.2674 0.4643 0.0591, -0.2756 0.458 0.0591, -0.2851 0.4541 0.0591, -0.2953 0.4527 0.0591, -0.3055 0.4541 0.0591, -0.315 0.458 0.0591, -0.3231 0.4643 0.0591, -0.3294 0.4724 0.0591, -0.3333 0.4819 0.0591, -0.3346 0.4921 0.0591, -0.4921 0.1378 0.0591, -0.4819 0.1364 0.0591, -0.4724 0.1325 0.0591, -0.4643 0.1263 0.0591, -0.458 0.1181 0.0591, -0.4541 0.1086 0.0591, -0.4527 0.0984 0.0591, -0.4541 0.0882 0.0591, -0.458 0.0787 0.0591, -0.4643 0.0706 0.0591, -0.4724 0.0643 0.0591, -0.4819 0.0604 0.0591, -0.4921 0.059 0.0591, -0.4921 -0.0591 0.0591, -0.4819 -0.0604 0.0591, -0.4724 -0.0643 0.0591, -0.4643 -0.0706 0.0591, -0.458 -0.0788 0.0591, -0.4541 -0.0882 0.0591, -0.4527 -0.0984 0.0591, -0.4541 -0.1086 0.0591, -0.458 -0.1181 0.0591, -0.4643 -0.1263 0.0591, -0.4724 -0.1325 0.0591, -0.4819 -0.1365 0.0591, -0.4921 -0.1378 0.0591, -0.4921 -0.2559 0.0591, -0.4819 -0.2573 0.0591, -0.4724 -0.2612 0.0591, -0.4643 -0.2674 0.0591, -0.458 -0.2756 0.0591, -0.4541 -0.2851 0.0591, -0.4527 -0.2953 0.0591, -0.4541 -0.3055 0.0591, -0.458 -0.315 0.0591, -0.4643 -0.3231 0.0591, -0.4724 -0.3294 0.0591, -0.4819 -0.3333 0.0591, -0.4921 -0.3347 0.0591, 0.4921 -0.3347 0.0591, 0.4819 -0.3333 0.0591, 0.4725 -0.3294 0.0591, 0.4643 -0.3231 0.0591, 0.458 -0.315 0.0591, 0.4541 -0.3055 0.0591, 0.4528 -0.2953 0.0591, 0.4541 -0.2851 0.0591, 0.458 -0.2756 0.0591, 0.4643 -0.2674 0.0591, 0.4725 -0.2612 0.0591, 0.4819 -0.2573 0.0591, 0.4921 -0.2559 0.0591, 0.3268 -0.3268 0.0591, 0.3268 0.3268 0.0591, -0.189 0.3268 0.0591, -0.3268 0.189 0.0591, -0.3268 -0.3268 0.0591, 0.4921 0.3346 0.0591, 0.4921 0.2559 0.0591, 0.4819 0.2572 0.0591, 0.4725 0.2612 0.0591, 0.4643 0.2674 0.0591, 0.458 0.2756 0.0591, 0.4541 0.2851 0.0591, 0.4528 0.2953 0.0591, 0.4541 0.3055 0.0591, 0.458 0.315 0.0591, 0.4643 0.3231 0.0591, 0.4725 0.3294 0.0591, 0.4819 0.3333 0.0591, 0.4921 0.059 0.0591, 0.4819 0.0604 0.0591, 0.4725 0.0643 0.0591, 0.4643 0.0706 0.0591, 0.458 0.0787 0.0591, 0.4541 0.0882 0.0591, 0.4528 0.0984 0.0591, 0.4541 0.1086 0.0591, 0.458 0.1181 0.0591, 0.4643 0.1263 0.0591, 0.4725 0.1325 0.0591, 0.4819 0.1364 0.0591, 0.4921 0.1378 0.0591, 0.4921 -0.1378 0.0591, 0.4819 -0.1365 0.0591, 0.4725 -0.1325 0.0591, 0.4643 -0.1263 0.0591, 0.458 -0.1181 0.0591, 0.4541 -0.1086 0.0591, 0.4528 -0.0984 0.0591, 0.4541 -0.0882 0.0591, 0.458 -0.0788 0.0591, 0.4643 -0.0706 0.0591, 0.4725 -0.0643 0.0591, 0.4819 -0.0604 0.0591, 0.4921 -0.0591 0.0591, -0.059 0.4921 0.0591, -0.0604 0.4819 0.0591, -0.0643 0.4724 0.0591, -0.0706 0.4643 0.0591, -0.0787 0.458 0.0591, -0.0882 0.4541 0.0591, -0.0984 0.4527 0.0591, -0.1086 0.4541 0.0591, -0.1181 0.458 0.0591, -0.1263 0.4643 0.0591, -0.1325 0.4724 0.0591, -0.1364 0.4819 0.0591, -0.1378 0.4921 0.0591, 0.1378 0.4921 0.0591, 0.1365 0.4819 0.0591, 0.1325 0.4724 0.0591, 0.1263 0.4643 0.0591, 0.1181 0.458 0.0591, 0.1086 0.4541 0.0591, 0.0984 0.4527 0.0591, 0.0882 0.4541 0.0591, 0.0788 0.458 0.0591, 0.0706 0.4643 0.0591, 0.0643 0.4724 0.0591, 0.0604 0.4819 0.0591, 0.0591 0.4921 0.0591, 0.3347 0.4921 0.0591, 0.3333 0.4819 0.0591, 0.3294 0.4724 0.0591, 0.3231 0.4643 0.0591, 0.315 0.458 0.0591, 0.3055 0.4541 0.0591, 0.2953 0.4527 0.0591, 0.2851 0.4541 0.0591, 0.2756 0.458 0.0591, 0.2674 0.4643 0.0591, 0.2612 0.4724 0.0591, 0.2573 0.4819 0.0591, 0.2559 0.4921 0.0591, 0.2559 -0.4921 0.0591, 0.2573 -0.4819 0.0591, 0.2612 -0.4725 0.0591, 0.2674 -0.4643 0.0591, 0.2756 -0.458 0.0591, 0.2851 -0.4541 0.0591, 0.2953 -0.4528 0.0591, 0.3055 -0.4541 0.0591, 0.315 -0.458 0.0591, 0.3231 -0.4643 0.0591, 0.3294 -0.4725 0.0591, 0.3333 -0.4819 0.0591, 0.3347 -0.4921 0.0591, 0.0591 -0.4921 0.0591, 0.0604 -0.4819 0.0591, 0.0643 -0.4725 0.0591, 0.0706 -0.4643 0.0591, 0.0788 -0.458 0.0591, 0.0882 -0.4541 0.0591, 0.0984 -0.4528 0.0591, 0.1086 -0.4541 0.0591, 0.1181 -0.458 0.0591, 0.1263 -0.4643 0.0591, 0.1325 -0.4725 0.0591, 0.1365 -0.4819 0.0591, 0.1378 -0.4921 0.0591, -0.1378 -0.4921 0.0591, -0.1364 -0.4819 0.0591, -0.1325 -0.4725 0.0591, -0.1263 -0.4643 0.0591, -0.1181 -0.458 0.0591, -0.1086 -0.4541 0.0591, -0.0984 -0.4528 0.0591, -0.0882 -0.4541 0.0591, -0.0787 -0.458 0.0591, -0.0706 -0.4643 0.0591, -0.0643 -0.4725 0.0591, -0.0604 -0.4819 0.0591, -0.059 -0.4921 0.0591, -0.3346 -0.4921 0.0591, -0.3333 -0.4819 0.0591, -0.3294 -0.4725 0.0591, -0.3231 -0.4643 0.0591, -0.315 -0.458 0.0591, -0.3055 -0.4541 0.0591, -0.2953 -0.4528 0.0591, -0.2851 -0.4541 0.0591, -0.2756 -0.458 0.0591, -0.2674 -0.4643 0.0591, -0.2612 -0.4725 0.0591, -0.2572 -0.4819 0.0591, -0.2559 -0.4921 0.0591, -0.4921 0.3346 0.0591, -0.4819 0.3333 0.0591, -0.4724 0.3294 0.0591, -0.4643 0.3231 0.0591, -0.458 0.315 0.0591, -0.4541 0.3055 0.0591, -0.4527 0.2953 0.0591, -0.4541 0.2851 0.0591, -0.458 0.2756 0.0591, -0.4643 0.2674 0.0591, -0.4724 0.2612 0.0591, -0.4819 0.2572 0.0591, -0.4921 0.2559 0.0591, -0.0889 0.4283 0.0236, -0.112 0.3692 0.0236, -0.1033 0.3692 0.0236, -0.0973 0.3858 0.0236, -0.0729 0.3858 0.0236, -0.0673 0.3692 0.0236, -0.0587 0.3692 0.0236, -0.081 0.4283 0.0236, -0.0749 0.3922 0.0236, -0.0947 0.3922 0.0236, -0.0837 0.4169 0.0236, -0.0843 0.419 0.0236, -0.0847 0.4211 0.0236, -0.0849 0.4211 0.0236, -0.0853 0.419 0.0236, -0.0858 0.4169 0.0236, -0.0749 0.3922 0.0197, -0.0947 0.3922 0.0197, -0.0837 0.4169 0.0197, -0.0843 0.419 0.0197, -0.0847 0.4211 0.0197, -0.0849 0.4211 0.0197, -0.0853 0.419 0.0197, -0.0858 0.4169 0.0197, -0.0229 0.3692 0.0236, -0.0068 0.3692 0.0236, -0.0068 0.4283 0.0236, -0.0235 0.4283 0.0236, -0.0543 0.3995 0.0236, -0.0539 0.405 0.0236, -0.0523 0.4108 0.0236, -0.0496 0.4159 0.0236, -0.0454 0.4206 0.0236, -0.0453 0.4206 0.0236, -0.0389 0.4249 0.0236, -0.032 0.4273 0.0236, -0.0302 0.3698 0.0236, -0.037 0.3719 0.0236, -0.0431 0.3754 0.0236, -0.048 0.3801 0.0236, -0.0514 0.3854 0.0236, -0.0535 0.3916 0.0236, -0.0425 0.4135 0.0236, -0.0396 0.4165 0.0236, -0.0353 0.4193 0.0236, -0.0304 0.421 0.0236, -0.0234 0.4218 0.0236, -0.0147 0.4218 0.0236, -0.0147 0.3757 0.0236, -0.0231 0.3757 0.0236, -0.0293 0.3763 0.0236, -0.0343 0.3778 0.0236, -0.0383 0.3802 0.0236, -0.0417 0.3835 0.0236, -0.0441 0.3875 0.0236, -0.0459 0.3931 0.0236, -0.0464 0.3993 0.0236, -0.0459 0.4052 0.0236, -0.0445 0.4098 0.0236, -0.0234 0.4218 0.0197, -0.0147 0.4218 0.0197, -0.0304 0.421 0.0197, -0.0353 0.4193 0.0197, -0.0396 0.4165 0.0197, -0.0425 0.4135 0.0197, -0.0445 0.4098 0.0197, -0.0459 0.4052 0.0197, -0.0464 0.3993 0.0197, -0.0459 0.3931 0.0197, -0.0441 0.3875 0.0197, -0.0417 0.3835 0.0197, -0.0383 0.3802 0.0197, -0.0343 0.3778 0.0197, -0.0293 0.3763 0.0197, -0.0231 0.3757 0.0197, -0.0147 0.3757 0.0197, 0.0047 0.3757 0.0236, 0.0047 0.3692 0.0236, 0.0364 0.3692 0.0236, 0.0364 0.4283 0.0236, 0.0062 0.4283 0.0236, 0.0062 0.4218 0.0236, 0.0285 0.4218 0.0236, 0.0285 0.4023 0.0236, 0.0076 0.4023 0.0236, 0.0076 0.3958 0.0236, 0.0285 0.3958 0.0236, 0.0285 0.3757 0.0236, 0.0479 0.3787 0.0236, 0.0479 0.3723 0.0236, 0.0542 0.3697 0.0236, 0.0642 0.3685 0.0236, 0.0626 0.3685 0.0236, 0.0919 0.3976 0.0236, 0.0913 0.3908 0.0236, 0.0895 0.3845 0.0236, 0.0864 0.3789 0.0236, 0.0819 0.3742 0.0236, 0.0772 0.3712 0.0236, 0.0714 0.3692 0.0236, 0.0618 0.429 0.0236, 0.0678 0.4285 0.0236, 0.0743 0.4266 0.0236, 0.0799 0.4233 0.0236, 0.0853 0.4182 0.0236, 0.0887 0.4127 0.0236, 0.091 0.406 0.0236, 0.0548 0.4285 0.0236, 0.0479 0.4266 0.0236, 0.0479 0.4187 0.0236, 0.0618 0.4225 0.0236, 0.0546 0.4216 0.0236, 0.0839 0.3981 0.0236, 0.0837 0.4027 0.0236, 0.0821 0.409 0.0236, 0.0796 0.4136 0.0236, 0.0761 0.4175 0.0236, 0.072 0.4202 0.0236, 0.0676 0.4218 0.0236, 0.0631 0.375 0.0236, 0.0686 0.3756 0.0236, 0.0729 0.3772 0.0236, 0.0765 0.3796 0.0236, 0.0793 0.3825 0.0236, 0.0817 0.3866 0.0236, 0.0833 0.3917 0.0236, 0.049 0.3782 0.0236, 0.0552 0.3758 0.0236, 0.0969 0.3757 0.0236, 0.0969 0.3692 0.0236, 0.1271 0.3692 0.0236, 0.1271 0.4283 0.0236, 0.1192 0.4283 0.0236, 0.1192 0.3757 0.0236
            ]
        }
        coordIndex [
            0,1,2,-1,3,4,5,-1,6,7,8,-1,9,10,11,-1,12,13,14,-1,14,13,15,-1,14,15,16,-1,9,11,17,-1,17,11,12,-1,17,12,18,-1,18,12,19,-1,18,19,20,-1,10,21,11,-1,11,21,22,-1,11,22,23,-1,24,25,11,-1,11,25,26,-1,27,28,29,-1,29,28,30,-1,26,31,11,-1,11,31,30,-1,11,30,32,-1,32,30,28,-1,23,33,11,-1,11,33,34,-1,11,34,24,-1,35,36,37,-1,38,39,19,-1,19,39,40,-1,38,19,41,-1,41,19,42,-1,41,42,43,-1,37,36,40,-1,40,36,44,-1,40,44,19,-1,19,44,45,-1,19,45,20,-1,46,47,48,-1,46,48,49,-1,50,51,8,-1,8,51,52,-1,53,54,8,-1,8,54,55,-1,8,55,50,-1,37,6,35,-1,35,6,8,-1,35,8,56,-1,56,8,52,-1,47,57,48,-1,48,57,58,-1,48,58,53,-1,16,59,60,-1,60,59,61,-1,60,61,62,-1,62,61,63,-1,62,63,48,-1,48,63,64,-1,48,64,49,-1,65,66,67,-1,67,68,69,-1,70,71,72,-1,72,71,73,-1,74,75,76,-1,76,75,71,-1,76,71,77,-1,77,71,70,-1,69,78,79,-1,80,81,82,-1,67,66,83,-1,83,66,84,-1,83,84,85,-1,86,87,88,-1,80,82,89,-1,90,91,83,-1,79,92,69,-1,69,92,93,-1,69,93,67,-1,85,94,83,-1,83,94,95,-1,83,95,71,-1,71,95,96,-1,71,96,73,-1,97,98,99,-1,100,101,102,-1,103,104,105,-1,105,104,106,-1,105,106,107,-1,65,67,82,-1,82,67,108,-1,82,108,89,-1,97,99,109,-1,100,102,110,-1,91,111,83,-1,83,111,112,-1,83,112,67,-1,67,112,113,-1,67,113,68,-1,110,102,105,-1,105,102,114,-1,105,114,103,-1,115,116,3,-1,3,116,117,-1,3,117,118,-1,99,119,3,-1,3,119,120,-1,3,120,83,-1,83,120,121,-1,83,121,90,-1,122,123,3,-1,3,123,124,-1,125,126,3,-1,3,126,127,-1,3,127,115,-1,115,127,128,-1,115,128,129,-1,130,131,132,-1,132,131,133,-1,132,133,98,-1,98,133,134,-1,98,134,99,-1,135,136,137,-1,137,136,138,-1,137,138,101,-1,101,138,139,-1,101,139,102,-1,124,140,3,-1,3,140,141,-1,3,141,125,-1,118,142,3,-1,3,142,143,-1,3,143,107,-1,107,106,3,-1,3,106,144,-1,3,144,99,-1,99,144,145,-1,99,145,109,-1,146,147,148,-1,129,149,115,-1,115,149,146,-1,115,146,150,-1,150,146,148,-1,71,151,152,-1,151,71,153,-1,153,71,75,-1,153,75,154,-1,155,156,157,-1,157,156,71,-1,157,71,158,-1,158,71,152,-1,159,160,0,-1,155,161,156,-1,156,161,162,-1,156,162,159,-1,159,162,163,-1,159,163,164,-1,164,165,159,-1,159,165,166,-1,159,166,160,-1,0,2,159,-1,159,2,167,-1,159,167,168,-1,168,167,169,-1,168,169,170,-1,171,172,173,-1,174,175,176,-1,177,178,179,-1,180,181,182,-1,183,184,185,-1,186,187,170,-1,188,189,190,-1,190,189,191,-1,190,191,177,-1,177,191,192,-1,177,192,178,-1,179,193,194,-1,195,196,197,-1,197,196,198,-1,187,199,170,-1,170,199,200,-1,170,200,201,-1,198,202,197,-1,197,202,203,-1,197,203,171,-1,204,205,190,-1,176,206,207,-1,207,206,208,-1,194,209,179,-1,179,209,210,-1,179,210,177,-1,211,212,213,-1,213,212,214,-1,213,214,180,-1,180,214,215,-1,180,215,181,-1,216,217,206,-1,206,217,218,-1,206,218,219,-1,220,177,221,-1,205,222,190,-1,190,222,223,-1,190,223,206,-1,206,223,224,-1,206,224,208,-1,225,226,184,-1,184,226,227,-1,184,227,228,-1,186,170,229,-1,229,170,169,-1,229,169,230,-1,231,190,232,-1,232,190,170,-1,232,170,233,-1,233,170,201,-1,231,234,190,-1,190,234,235,-1,190,235,180,-1,219,236,206,-1,206,236,237,-1,206,237,197,-1,197,237,238,-1,197,238,195,-1,221,239,220,-1,220,239,240,-1,220,240,241,-1,220,242,177,-1,177,242,243,-1,177,243,190,-1,190,243,244,-1,190,244,204,-1,245,246,247,-1,247,246,248,-1,247,248,176,-1,176,248,249,-1,176,249,174,-1,228,250,184,-1,184,250,251,-1,184,251,185,-1,252,253,206,-1,206,253,254,-1,206,254,255,-1,182,256,180,-1,180,256,257,-1,180,257,190,-1,190,257,258,-1,190,258,188,-1,225,252,226,-1,226,252,206,-1,226,206,259,-1,259,206,176,-1,259,176,260,-1,260,176,175,-1,261,262,263,-1,263,262,264,-1,263,264,185,-1,185,264,265,-1,185,265,183,-1,266,267,268,-1,268,267,216,-1,255,269,206,-1,206,269,270,-1,206,270,216,-1,216,270,271,-1,216,271,268,-1,171,173,197,-1,197,173,272,-1,197,272,273,-1,273,272,274,-1,273,274,275,-1,275,274,60,-1,275,60,276,-1,276,60,62,-1,276,62,277,-1,278,279,280,-1,281,282,283,-1,278,280,284,-1,284,280,285,-1,284,285,286,-1,282,287,283,-1,283,287,288,-1,283,288,289,-1,290,291,278,-1,278,291,292,-1,284,293,294,-1,294,293,295,-1,296,297,283,-1,283,297,298,-1,283,298,281,-1,292,299,278,-1,278,299,300,-1,278,300,279,-1,286,301,284,-1,284,301,302,-1,284,302,293,-1,303,304,283,-1,305,296,306,-1,306,296,283,-1,306,283,307,-1,307,283,304,-1,7,308,8,-1,8,308,309,-1,8,309,283,-1,283,309,310,-1,283,310,303,-1,311,312,313,-1,313,312,314,-1,313,314,315,-1,316,317,318,-1,318,317,319,-1,318,319,320,-1,321,322,323,-1,324,325,314,-1,314,326,327,-1,325,328,314,-1,314,328,329,-1,314,329,315,-1,320,330,318,-1,318,330,331,-1,318,331,332,-1,327,333,314,-1,314,333,334,-1,314,334,321,-1,335,336,337,-1,337,336,338,-1,337,338,321,-1,321,338,339,-1,321,339,322,-1,323,340,321,-1,321,340,341,-1,321,341,314,-1,314,341,342,-1,314,342,324,-1,343,344,345,-1,345,344,346,-1,345,346,347,-1,316,318,348,-1,348,318,349,-1,348,349,346,-1,346,349,350,-1,346,350,347,-1,351,352,353,-1,353,352,354,-1,353,354,355,-1,355,354,318,-1,355,318,314,-1,314,318,332,-1,314,332,326,-1,356,357,351,-1,351,357,358,-1,351,358,352,-1,352,358,359,-1,352,359,314,-1,314,359,360,-1,314,360,355,-1,361,362,352,-1,352,362,363,-1,352,363,364,-1,312,365,314,-1,314,365,366,-1,314,366,367,-1,367,368,314,-1,314,368,369,-1,314,369,370,-1,370,371,314,-1,314,371,372,-1,314,372,373,-1,364,374,352,-1,352,374,375,-1,352,375,376,-1,376,375,377,-1,376,377,366,-1,366,377,378,-1,366,378,367,-1,373,379,314,-1,314,379,380,-1,314,380,352,-1,352,380,381,-1,352,381,361,-1,382,14,376,-1,12,14,19,-1,19,14,382,-1,19,382,383,-1,365,42,366,-1,366,42,19,-1,366,19,384,-1,384,19,383,-1,384,385,366,-1,366,385,386,-1,366,386,376,-1,376,386,387,-1,376,387,382,-1,388,389,390,-1,390,389,386,-1,390,386,391,-1,391,386,385,-1,391,385,392,-1,392,385,393,-1,53,8,48,-1,48,8,394,-1,48,394,395,-1,396,394,397,-1,397,394,8,-1,397,8,398,-1,398,8,283,-1,398,283,399,-1,399,283,400,-1,16,60,14,-1,14,60,274,-1,14,274,376,-1,376,274,272,-1,376,272,352,-1,352,272,173,-1,352,173,354,-1,395,399,48,-1,48,399,400,-1,48,400,62,-1,62,400,5,-1,62,5,277,-1,277,5,4,-1,289,290,283,-1,283,290,278,-1,283,278,400,-1,400,278,401,-1,400,401,5,-1,5,401,86,-1,5,86,3,-1,3,86,88,-1,3,88,122,-1,278,284,402,-1,403,79,78,-1,131,130,404,-1,404,130,405,-1,78,406,403,-1,403,406,404,-1,403,404,402,-1,402,404,405,-1,402,405,407,-1,408,148,147,-1,409,410,402,-1,147,409,408,-1,408,409,402,-1,408,402,411,-1,411,402,407,-1,411,407,135,-1,135,407,136,-1,410,87,86,-1,410,86,402,-1,402,86,401,-1,402,401,278,-1,412,194,193,-1,193,413,412,-1,412,413,414,-1,412,414,415,-1,2,1,416,-1,416,417,415,-1,230,169,418,-1,418,169,167,-1,75,74,419,-1,212,211,414,-1,414,211,420,-1,414,420,415,-1,415,420,418,-1,415,418,416,-1,416,418,167,-1,416,167,2,-1,75,419,154,-1,81,80,421,-1,421,80,415,-1,421,415,419,-1,419,415,417,-1,419,417,154,-1,422,423,424,-1,424,423,425,-1,349,318,423,-1,423,318,354,-1,423,354,425,-1,425,354,173,-1,425,173,172,-1,426,262,261,-1,427,428,422,-1,261,427,426,-1,426,427,422,-1,426,422,429,-1,429,422,424,-1,429,424,266,-1,266,424,267,-1,241,240,430,-1,430,240,422,-1,430,422,431,-1,431,422,428,-1,431,428,245,-1,245,428,246,-1,432,286,285,-1,285,433,432,-1,432,433,434,-1,432,434,435,-1,296,305,436,-1,312,311,437,-1,438,43,42,-1,437,439,435,-1,297,296,434,-1,434,296,436,-1,434,436,435,-1,435,436,438,-1,435,438,437,-1,438,42,437,-1,437,42,365,-1,437,365,312,-1,348,346,440,-1,440,346,435,-1,440,435,441,-1,441,435,439,-1,441,439,335,-1,335,439,336,-1,442,443,422,-1,432,444,445,-1,446,447,448,-1,448,447,449,-1,449,450,448,-1,448,450,432,-1,448,432,451,-1,451,432,445,-1,452,415,453,-1,452,454,455,-1,455,454,456,-1,455,456,457,-1,457,456,403,-1,457,403,458,-1,458,403,402,-1,458,402,448,-1,448,402,459,-1,448,459,446,-1,415,452,412,-1,460,461,462,-1,460,462,463,-1,463,462,464,-1,463,464,465,-1,461,460,435,-1,435,460,466,-1,435,466,467,-1,467,468,435,-1,435,468,469,-1,435,469,432,-1,432,469,470,-1,432,470,444,-1,453,471,452,-1,452,471,472,-1,452,472,454,-1,473,474,422,-1,422,474,475,-1,422,475,442,-1,473,476,474,-1,474,476,477,-1,474,477,478,-1,452,479,412,-1,412,479,474,-1,412,474,480,-1,480,474,478,-1,443,481,422,-1,422,481,482,-1,422,482,423,-1,423,482,483,-1,483,484,423,-1,423,484,463,-1,423,463,485,-1,485,463,465,-1,486,337,487,-1,487,337,321,-1,487,321,488,-1,488,321,334,-1,488,334,489,-1,489,334,333,-1,489,333,490,-1,490,333,327,-1,490,327,491,-1,491,327,326,-1,491,326,492,-1,492,326,332,-1,492,332,493,-1,493,332,331,-1,493,331,494,-1,494,331,330,-1,494,330,495,-1,495,330,320,-1,495,320,496,-1,496,320,319,-1,496,319,497,-1,497,319,317,-1,497,317,498,-1,498,317,316,-1,486,441,337,-1,337,441,335,-1,440,498,348,-1,348,498,316,-1,440,441,498,-1,498,441,486,-1,498,486,497,-1,497,486,496,-1,496,486,495,-1,495,486,487,-1,495,487,488,-1,488,489,495,-1,495,489,490,-1,495,490,491,-1,491,492,495,-1,495,492,493,-1,495,493,494,-1,499,268,500,-1,500,268,271,-1,500,271,501,-1,501,271,270,-1,501,270,502,-1,502,270,269,-1,502,269,503,-1,503,269,255,-1,503,255,504,-1,504,255,254,-1,504,254,505,-1,505,254,253,-1,505,253,506,-1,506,253,252,-1,506,252,507,-1,507,252,225,-1,507,225,508,-1,508,225,184,-1,508,184,509,-1,509,184,183,-1,509,183,510,-1,510,183,265,-1,510,265,511,-1,511,265,264,-1,499,429,268,-1,268,429,266,-1,426,511,262,-1,262,511,264,-1,426,429,511,-1,511,429,499,-1,511,499,510,-1,510,499,509,-1,500,501,507,-1,507,501,502,-1,507,502,503,-1,500,507,499,-1,499,507,508,-1,499,508,509,-1,503,504,507,-1,507,504,505,-1,507,505,506,-1,512,263,513,-1,513,263,185,-1,513,185,514,-1,514,185,251,-1,514,251,515,-1,515,251,250,-1,515,250,516,-1,516,250,228,-1,516,228,517,-1,517,228,227,-1,517,227,518,-1,518,227,226,-1,518,226,519,-1,519,226,259,-1,519,259,520,-1,520,259,260,-1,520,260,521,-1,521,260,175,-1,521,175,522,-1,522,175,174,-1,522,174,523,-1,523,174,249,-1,523,249,524,-1,524,249,248,-1,512,427,263,-1,263,427,261,-1,428,524,246,-1,246,524,248,-1,514,515,520,-1,428,427,524,-1,524,427,512,-1,524,512,523,-1,523,512,522,-1,514,520,513,-1,515,516,517,-1,513,520,512,-1,512,520,521,-1,512,521,522,-1,517,518,515,-1,515,518,519,-1,515,519,520,-1,525,247,526,-1,526,247,176,-1,526,176,527,-1,527,176,207,-1,527,207,528,-1,528,207,208,-1,528,208,529,-1,529,208,224,-1,529,224,530,-1,530,224,223,-1,530,223,531,-1,531,223,222,-1,531,222,532,-1,532,222,205,-1,532,205,533,-1,533,205,204,-1,533,204,534,-1,534,204,244,-1,534,244,535,-1,535,244,243,-1,535,243,536,-1,536,243,242,-1,536,242,537,-1,537,242,220,-1,525,431,247,-1,247,431,245,-1,430,537,241,-1,241,537,220,-1,535,536,527,-1,430,431,537,-1,537,431,525,-1,537,525,536,-1,536,525,526,-1,536,526,527,-1,531,528,530,-1,530,528,529,-1,531,532,528,-1,528,532,533,-1,528,533,527,-1,527,533,534,-1,527,534,535,-1,538,69,539,-1,539,69,68,-1,539,68,540,-1,540,68,113,-1,540,113,541,-1,541,113,112,-1,541,112,542,-1,542,112,111,-1,542,111,543,-1,543,111,91,-1,543,91,544,-1,544,91,90,-1,544,90,545,-1,545,90,121,-1,545,121,546,-1,546,121,120,-1,546,120,547,-1,547,120,119,-1,547,119,548,-1,548,119,99,-1,548,99,549,-1,549,99,134,-1,549,134,550,-1,550,134,133,-1,538,406,69,-1,69,406,78,-1,404,550,131,-1,131,550,133,-1,404,406,550,-1,550,406,538,-1,538,539,550,-1,550,539,540,-1,550,540,549,-1,549,540,548,-1,544,541,543,-1,543,541,542,-1,544,545,541,-1,541,545,546,-1,541,546,540,-1,540,546,547,-1,540,547,548,-1,551,552,83,-1,83,552,3,-1,197,273,553,-1,553,273,275,-1,275,276,553,-1,553,276,277,-1,553,277,552,-1,552,277,4,-1,552,4,3,-1,553,554,197,-1,197,554,206,-1,554,555,206,-1,206,555,190,-1,83,71,551,-1,551,71,156,-1,156,159,551,-1,551,159,168,-1,551,168,555,-1,555,168,170,-1,555,170,190,-1,553,552,554,-1,554,552,551,-1,554,551,555,-1,410,556,87,-1,87,556,88,-1,557,146,558,-1,558,146,149,-1,558,149,559,-1,559,149,129,-1,559,129,560,-1,560,129,128,-1,560,128,561,-1,561,128,127,-1,561,127,562,-1,562,127,126,-1,562,126,563,-1,563,126,125,-1,563,125,564,-1,564,125,141,-1,564,141,565,-1,565,141,140,-1,565,140,566,-1,566,140,124,-1,566,124,567,-1,567,124,123,-1,567,123,568,-1,568,123,122,-1,568,122,556,-1,556,122,88,-1,557,409,146,-1,146,409,147,-1,410,409,556,-1,556,409,557,-1,557,558,556,-1,556,558,559,-1,556,559,568,-1,568,559,567,-1,563,560,562,-1,562,560,561,-1,563,564,560,-1,560,564,565,-1,560,565,559,-1,559,565,566,-1,559,566,567,-1,569,137,570,-1,570,137,101,-1,570,101,571,-1,571,101,100,-1,571,100,572,-1,572,100,110,-1,572,110,573,-1,573,110,105,-1,573,105,574,-1,574,105,107,-1,574,107,575,-1,575,107,143,-1,575,143,576,-1,576,143,142,-1,576,142,577,-1,577,142,118,-1,577,118,578,-1,578,118,117,-1,578,117,579,-1,579,117,116,-1,579,116,580,-1,580,116,115,-1,580,115,581,-1,581,115,150,-1,569,411,137,-1,137,411,135,-1,408,581,148,-1,148,581,150,-1,581,408,411,-1,411,569,581,-1,581,569,570,-1,581,570,580,-1,580,570,579,-1,571,572,577,-1,577,572,573,-1,573,574,577,-1,577,574,575,-1,577,575,576,-1,571,577,570,-1,570,577,578,-1,570,578,579,-1,582,132,583,-1,583,132,98,-1,583,98,584,-1,584,98,97,-1,584,97,585,-1,585,97,109,-1,585,109,586,-1,586,109,145,-1,586,145,587,-1,587,145,144,-1,587,144,588,-1,588,144,106,-1,588,106,589,-1,589,106,104,-1,589,104,590,-1,590,104,103,-1,590,103,591,-1,591,103,114,-1,591,114,592,-1,592,114,102,-1,592,102,593,-1,593,102,139,-1,593,139,594,-1,594,139,138,-1,582,405,132,-1,132,405,130,-1,407,594,136,-1,136,594,138,-1,594,407,405,-1,590,591,583,-1,583,591,592,-1,583,584,590,-1,590,584,585,-1,590,585,586,-1,586,587,590,-1,590,587,588,-1,590,588,589,-1,405,582,594,-1,594,582,583,-1,594,583,593,-1,593,583,592,-1,595,313,596,-1,596,313,315,-1,596,315,597,-1,597,315,329,-1,597,329,598,-1,598,329,328,-1,598,328,599,-1,599,328,325,-1,599,325,600,-1,600,325,324,-1,600,324,601,-1,601,324,342,-1,601,342,602,-1,602,342,341,-1,602,341,603,-1,603,341,340,-1,603,340,604,-1,604,340,323,-1,604,323,605,-1,605,323,322,-1,605,322,606,-1,606,322,339,-1,606,339,607,-1,607,339,338,-1,595,437,313,-1,313,437,311,-1,439,607,336,-1,336,607,338,-1,439,437,607,-1,607,437,595,-1,607,595,606,-1,606,595,605,-1,605,595,604,-1,604,595,596,-1,604,596,597,-1,597,598,604,-1,604,598,599,-1,604,599,600,-1,600,601,604,-1,604,601,602,-1,604,602,603,-1,608,306,609,-1,609,306,307,-1,609,307,610,-1,610,307,304,-1,610,304,611,-1,611,304,303,-1,611,303,612,-1,612,303,310,-1,612,310,613,-1,613,310,309,-1,613,309,614,-1,309,308,614,-1,614,308,7,-1,614,7,615,-1,615,7,6,-1,615,6,616,-1,616,6,37,-1,616,37,617,-1,617,37,40,-1,617,40,618,-1,618,40,39,-1,618,39,619,-1,619,39,38,-1,619,38,620,-1,620,38,41,-1,608,436,306,-1,306,436,305,-1,438,620,43,-1,43,620,41,-1,438,436,620,-1,620,436,608,-1,620,608,619,-1,619,608,618,-1,618,608,617,-1,617,608,609,-1,617,609,610,-1,610,611,617,-1,617,611,612,-1,617,612,613,-1,613,614,617,-1,617,614,615,-1,617,615,616,-1,621,280,622,-1,622,280,279,-1,622,279,623,-1,623,279,300,-1,623,300,624,-1,624,300,299,-1,624,299,625,-1,625,299,292,-1,625,292,626,-1,626,292,291,-1,626,291,627,-1,627,291,290,-1,627,290,628,-1,628,290,289,-1,628,289,629,-1,629,289,288,-1,629,288,630,-1,630,288,287,-1,630,287,631,-1,631,287,282,-1,631,282,632,-1,632,282,281,-1,632,281,633,-1,633,281,298,-1,621,433,280,-1,280,433,285,-1,434,633,297,-1,297,633,298,-1,434,433,633,-1,633,433,621,-1,633,621,632,-1,632,621,631,-1,631,621,630,-1,630,621,622,-1,630,622,623,-1,623,624,630,-1,630,624,625,-1,630,625,626,-1,626,627,630,-1,630,627,628,-1,630,628,629,-1,634,76,635,-1,635,76,77,-1,635,77,636,-1,636,77,70,-1,636,70,637,-1,637,70,72,-1,637,72,638,-1,638,72,73,-1,638,73,639,-1,639,73,96,-1,639,96,640,-1,640,96,95,-1,640,95,641,-1,641,95,94,-1,641,94,642,-1,642,94,85,-1,642,85,643,-1,643,85,84,-1,643,84,644,-1,644,84,66,-1,644,66,645,-1,645,66,65,-1,645,65,646,-1,646,65,82,-1,634,419,76,-1,76,419,74,-1,421,646,81,-1,81,646,82,-1,421,419,646,-1,646,419,634,-1,646,634,635,-1,644,637,643,-1,643,637,638,-1,643,638,639,-1,635,636,646,-1,646,636,637,-1,646,637,645,-1,645,637,644,-1,639,640,643,-1,643,640,641,-1,643,641,642,-1,647,0,648,-1,648,0,160,-1,648,160,649,-1,649,160,166,-1,649,166,650,-1,650,166,165,-1,650,165,651,-1,651,165,164,-1,651,164,652,-1,164,163,652,-1,652,163,162,-1,652,162,653,-1,653,162,161,-1,653,161,654,-1,654,161,155,-1,654,155,655,-1,655,155,157,-1,655,157,656,-1,656,157,158,-1,656,158,657,-1,657,158,152,-1,657,152,658,-1,658,152,151,-1,658,151,659,-1,659,151,153,-1,647,416,0,-1,0,416,1,-1,417,659,154,-1,154,659,153,-1,417,416,659,-1,659,416,647,-1,659,647,648,-1,657,650,656,-1,656,650,651,-1,648,649,659,-1,659,649,650,-1,659,650,658,-1,658,650,657,-1,651,652,656,-1,656,652,653,-1,656,653,655,-1,655,653,654,-1,660,213,661,-1,661,213,180,-1,661,180,662,-1,662,180,235,-1,662,235,663,-1,663,235,234,-1,663,234,664,-1,664,234,231,-1,664,231,665,-1,665,231,232,-1,665,232,666,-1,666,232,233,-1,666,233,667,-1,667,233,201,-1,667,201,668,-1,668,201,200,-1,668,200,669,-1,669,200,199,-1,669,199,670,-1,670,199,187,-1,670,187,671,-1,671,187,186,-1,671,186,672,-1,672,186,229,-1,660,420,213,-1,213,420,211,-1,418,672,230,-1,230,672,229,-1,418,420,672,-1,672,420,660,-1,672,660,661,-1,664,665,663,-1,663,665,666,-1,663,666,667,-1,661,662,672,-1,672,662,663,-1,672,663,671,-1,671,663,670,-1,667,668,663,-1,663,668,669,-1,663,669,670,-1,673,179,674,-1,674,179,178,-1,674,178,675,-1,675,178,192,-1,675,192,676,-1,676,192,191,-1,676,191,677,-1,677,191,189,-1,677,189,678,-1,678,189,188,-1,678,188,679,-1,679,188,258,-1,679,258,680,-1,680,258,257,-1,680,257,681,-1,681,257,256,-1,681,256,682,-1,682,256,182,-1,682,182,683,-1,683,182,181,-1,683,181,684,-1,684,181,215,-1,684,215,685,-1,685,215,214,-1,673,413,179,-1,179,413,193,-1,414,685,212,-1,212,685,214,-1,414,413,685,-1,685,413,673,-1,685,673,674,-1,683,676,682,-1,682,676,677,-1,682,677,678,-1,674,675,685,-1,685,675,676,-1,685,676,684,-1,684,676,683,-1,678,679,682,-1,682,679,680,-1,682,680,681,-1,686,171,687,-1,687,171,203,-1,687,203,688,-1,688,203,202,-1,688,202,689,-1,689,202,198,-1,689,198,690,-1,690,198,196,-1,690,196,691,-1,691,196,195,-1,691,195,692,-1,692,195,238,-1,692,238,693,-1,693,238,237,-1,693,237,694,-1,694,237,236,-1,694,236,695,-1,695,236,219,-1,695,219,696,-1,696,219,218,-1,696,218,697,-1,697,218,217,-1,697,217,698,-1,698,217,216,-1,686,425,171,-1,171,425,172,-1,424,698,267,-1,267,698,216,-1,696,697,688,-1,424,425,698,-1,698,425,686,-1,698,686,697,-1,697,686,687,-1,697,687,688,-1,692,689,691,-1,691,689,690,-1,692,693,689,-1,689,693,694,-1,689,694,688,-1,688,694,695,-1,688,695,696,-1,286,432,450,-1,286,450,301,-1,301,450,449,-1,301,449,302,-1,302,449,447,-1,302,447,293,-1,293,447,446,-1,293,446,295,-1,295,446,459,-1,295,459,294,-1,294,459,402,-1,294,402,284,-1,79,403,456,-1,79,456,92,-1,92,456,454,-1,92,454,93,-1,93,454,472,-1,93,472,67,-1,67,472,471,-1,67,471,108,-1,108,471,453,-1,108,453,89,-1,89,453,415,-1,89,415,80,-1,194,412,480,-1,194,480,209,-1,209,480,478,-1,209,478,210,-1,210,478,477,-1,210,477,177,-1,177,477,476,-1,177,476,221,-1,221,476,473,-1,221,473,239,-1,239,473,422,-1,239,422,240,-1,349,423,485,-1,349,485,350,-1,350,485,465,-1,350,465,347,-1,347,465,464,-1,347,464,345,-1,345,464,462,-1,345,462,343,-1,343,462,461,-1,343,461,344,-1,344,461,435,-1,344,435,346,-1,699,700,355,-1,355,700,353,-1,700,701,353,-1,353,701,351,-1,701,702,351,-1,351,702,356,-1,702,703,356,-1,356,703,357,-1,703,704,357,-1,357,704,358,-1,704,705,358,-1,358,705,359,-1,705,706,359,-1,359,706,360,-1,706,699,360,-1,360,699,355,-1,707,703,708,-1,708,703,702,-1,709,706,707,-1,707,706,705,-1,707,705,703,-1,703,705,704,-1,709,710,706,-1,706,710,711,-1,706,711,699,-1,699,711,712,-1,699,712,713,-1,713,714,699,-1,699,714,708,-1,699,708,700,-1,700,708,702,-1,700,702,701,-1,707,708,715,-1,715,708,716,-1,709,707,717,-1,717,707,715,-1,709,717,718,-1,709,718,710,-1,710,718,719,-1,710,719,711,-1,712,711,720,-1,720,711,719,-1,712,720,721,-1,712,721,713,-1,713,721,722,-1,713,722,714,-1,708,714,716,-1,716,714,722,-1,723,724,375,-1,375,724,377,-1,724,725,377,-1,377,725,378,-1,725,726,378,-1,378,726,367,-1,727,380,379,-1,727,379,728,-1,728,379,373,-1,728,373,729,-1,729,373,372,-1,729,372,730,-1,730,372,371,-1,730,371,731,-1,731,371,370,-1,731,370,732,-1,732,370,369,-1,732,369,733,-1,733,369,368,-1,733,368,734,-1,734,368,367,-1,734,367,726,-1,723,375,374,-1,723,374,735,-1,735,374,364,-1,735,364,736,-1,736,364,363,-1,736,363,737,-1,737,363,362,-1,737,362,738,-1,738,362,361,-1,738,361,739,-1,739,361,381,-1,739,381,740,-1,740,381,380,-1,740,380,727,-1,729,730,741,-1,741,730,731,-1,741,731,742,-1,742,731,732,-1,742,732,743,-1,743,732,733,-1,743,733,744,-1,744,733,734,-1,744,734,745,-1,745,734,726,-1,745,726,746,-1,746,726,725,-1,746,725,747,-1,747,725,724,-1,747,724,748,-1,748,724,723,-1,748,723,749,-1,749,723,735,-1,749,735,750,-1,750,735,736,-1,750,736,751,-1,751,736,737,-1,751,737,752,-1,752,737,738,-1,752,738,753,-1,753,738,739,-1,753,739,754,-1,754,739,740,-1,754,740,755,-1,755,740,727,-1,755,727,756,-1,756,727,728,-1,756,728,757,-1,757,728,729,-1,757,729,741,-1,745,746,758,-1,758,746,759,-1,745,758,760,-1,745,760,744,-1,744,760,761,-1,744,761,743,-1,743,761,762,-1,743,762,742,-1,742,762,763,-1,742,763,741,-1,741,763,764,-1,741,764,757,-1,757,764,765,-1,757,765,756,-1,756,765,766,-1,756,766,755,-1,755,766,767,-1,755,767,754,-1,754,767,768,-1,754,768,753,-1,753,768,769,-1,753,769,752,-1,752,769,770,-1,752,770,751,-1,751,770,771,-1,751,771,750,-1,750,771,772,-1,750,772,749,-1,749,772,773,-1,749,773,748,-1,747,748,774,-1,774,748,773,-1,746,747,759,-1,759,747,774,-1,775,776,386,-1,386,776,387,-1,776,777,387,-1,387,777,382,-1,777,778,382,-1,382,778,383,-1,778,779,383,-1,383,779,384,-1,779,780,384,-1,384,780,385,-1,780,781,385,-1,385,781,393,-1,781,782,393,-1,393,782,392,-1,782,783,392,-1,392,783,391,-1,783,784,391,-1,391,784,390,-1,784,785,390,-1,390,785,388,-1,785,786,388,-1,388,786,389,-1,786,775,389,-1,389,775,386,-1,777,776,775,-1,775,786,777,-1,777,786,785,-1,777,785,778,-1,780,779,781,-1,781,779,778,-1,781,778,782,-1,782,778,785,-1,782,785,783,-1,783,785,784,-1,787,788,12,-1,12,788,13,-1,13,788,789,-1,790,61,59,-1,790,59,791,-1,791,59,16,-1,791,16,789,-1,789,16,15,-1,789,15,13,-1,792,53,58,-1,792,58,793,-1,793,58,57,-1,793,57,794,-1,794,57,47,-1,794,47,795,-1,795,47,46,-1,795,46,796,-1,796,46,49,-1,796,49,797,-1,797,49,64,-1,797,64,798,-1,798,64,790,-1,790,64,63,-1,790,63,61,-1,36,35,799,-1,799,35,800,-1,35,56,800,-1,800,56,52,-1,800,52,801,-1,801,52,51,-1,801,51,802,-1,802,51,50,-1,802,50,803,-1,803,50,55,-1,803,55,804,-1,804,55,54,-1,804,54,805,-1,805,54,53,-1,805,53,792,-1,36,799,44,-1,44,799,806,-1,44,806,45,-1,45,806,807,-1,45,807,20,-1,807,808,20,-1,20,808,18,-1,809,9,17,-1,809,17,810,-1,810,17,18,-1,810,18,808,-1,811,24,34,-1,811,34,812,-1,812,34,33,-1,812,33,813,-1,813,33,23,-1,813,23,814,-1,814,23,22,-1,814,22,815,-1,815,22,21,-1,815,21,816,-1,816,21,10,-1,816,10,817,-1,817,10,9,-1,817,9,809,-1,818,28,27,-1,818,27,819,-1,819,27,29,-1,819,29,820,-1,820,29,30,-1,820,30,821,-1,821,30,31,-1,821,31,822,-1,822,31,26,-1,822,26,823,-1,823,26,25,-1,823,25,824,-1,824,25,24,-1,824,24,811,-1,787,12,11,-1,787,11,825,-1,825,11,32,-1,825,32,826,-1,826,32,28,-1,826,28,818,-1,819,790,818,-1,818,790,791,-1,818,791,826,-1,826,791,789,-1,826,789,825,-1,825,789,788,-1,825,788,787,-1,808,807,810,-1,810,807,806,-1,810,806,809,-1,809,806,799,-1,809,799,817,-1,817,799,800,-1,817,800,816,-1,816,800,801,-1,816,801,815,-1,815,801,802,-1,815,802,814,-1,814,802,803,-1,814,803,813,-1,813,803,804,-1,813,804,812,-1,812,804,805,-1,812,805,811,-1,811,805,792,-1,811,792,824,-1,824,792,793,-1,824,793,823,-1,823,793,794,-1,823,794,822,-1,822,794,795,-1,822,795,821,-1,821,795,796,-1,821,796,820,-1,820,796,797,-1,820,797,819,-1,819,797,798,-1,819,798,790,-1,827,828,394,-1,394,828,395,-1,828,829,395,-1,395,829,399,-1,829,830,399,-1,399,830,398,-1,830,831,398,-1,398,831,397,-1,831,832,397,-1,397,832,396,-1,832,827,396,-1,396,827,394,-1,831,830,832,-1,832,830,829,-1,832,829,827,-1,827,829,828,-1,715,716,717,-1,717,716,722,-1,717,722,718,-1,718,722,721,-1,718,721,719,-1,719,721,720,-1,759,774,758,-1,758,774,773,-1,758,773,772,-1,766,765,758,-1,758,765,764,-1,758,764,760,-1,772,771,758,-1,758,771,770,-1,758,770,769,-1,769,768,758,-1,758,768,767,-1,758,767,766,-1,763,762,764,-1,764,762,761,-1,764,761,760,-1,
        ]
    }
}
Shape{
    appearance Appearance {
        material  Material 	{
            diffuseColor 0.7529411764705882 0.7529411764705882 0.7529411764705882
            specularColor 0.3764705882352941 0.3764705882352941 0.3764705882352941
            ambientIntensity 0.7529
            transparency 0.0
            shininess 0.5
        }
    }
    geometry IndexedFaceSet {
        ccw TRUE
        solid FALSE
        coord DEF co Coordinate {
            point [
                -0.3819 0.4483 0.311, -0.3819 0.4483 0.315, -0.3836 0.4619 0.311, -0.3836 0.4619 0.315, -0.3889 0.4746 0.311, -0.3889 0.4746 0.315, -0.3972 0.4855 0.311, -0.3972 0.4855 0.315, -0.4081 0.4938 0.311, -0.4081 0.4938 0.315, -0.4208 0.4991 0.311, -0.4208 0.4991 0.315, -0.4344 0.5009 0.311, -0.4344 0.5009 0.315, -0.448 0.4991 0.311, -0.448 0.4991 0.315, -0.4607 0.4938 0.311, -0.4607 0.4938 0.315, -0.4716 0.4855 0.311, -0.4716 0.4855 0.315, -0.4799 0.4746 0.311, -0.4799 0.4746 0.315, -0.4852 0.4619 0.311, -0.4852 0.4619 0.315, -0.487 0.4483 0.311, -0.487 0.4483 0.315, -0.4852 0.4347 0.311, -0.4852 0.4347 0.315, -0.4799 0.422 0.311, -0.4799 0.422 0.315, -0.4716 0.4111 0.311, -0.4716 0.4111 0.315, -0.4607 0.4028 0.311, -0.4607 0.4028 0.315, -0.448 0.3975 0.311, -0.448 0.3975 0.315, -0.4344 0.3957 0.311, -0.4344 0.3957 0.315, -0.4208 0.3975 0.311, -0.4208 0.3975 0.315, -0.4081 0.4028 0.311, -0.4081 0.4028 0.315, -0.3972 0.4111 0.311, -0.3972 0.4111 0.315, -0.3889 0.422 0.311, -0.3889 0.422 0.315, -0.3836 0.4347 0.311, -0.3836 0.4347 0.315, -0.4344 0.4483 0.311
            ]
        }
        coordIndex [
            0,1,2,-1,2,1,3,-1,2,3,4,-1,4,3,5,-1,4,5,6,-1,6,5,7,-1,6,7,8,-1,8,7,9,-1,8,9,10,-1,10,9,11,-1,10,11,12,-1,12,11,13,-1,12,13,14,-1,14,13,15,-1,14,15,16,-1,16,15,17,-1,16,17,18,-1,18,17,19,-1,18,19,20,-1,20,19,21,-1,20,21,22,-1,22,21,23,-1,22,23,24,-1,24,23,25,-1,24,25,26,-1,26,25,27,-1,26,27,28,-1,28,27,29,-1,28,29,30,-1,30,29,31,-1,30,31,32,-1,32,31,33,-1,32,33,34,-1,34,33,35,-1,34,35,36,-1,36,35,37,-1,36,37,38,-1,38,37,39,-1,38,39,40,-1,40,39,41,-1,40,41,42,-1,42,41,43,-1,42,43,44,-1,44,43,45,-1,44,45,46,-1,46,45,47,-1,46,47,0,-1,0,47,1,-1,44,46,48,-1,48,46,0,-1,48,0,2,-1,38,40,48,-1,48,40,42,-1,48,42,44,-1,32,34,48,-1,48,34,36,-1,48,36,38,-1,26,28,48,-1,48,28,30,-1,48,30,32,-1,20,22,48,-1,48,22,24,-1,48,24,26,-1,14,16,48,-1,48,16,18,-1,48,18,20,-1,8,10,48,-1,48,10,12,-1,48,12,14,-1,2,4,48,-1,48,4,6,-1,48,6,8,-1,
        ]
    }
}