#VRML V2.0 utf8
# 3D model generated by easyeda2kicad.py (https://github.com/uPesy/easyeda2kicad.py)

Shape{
    appearance Appearance {
        material  Material 	{
            diffuseColor 0.5019607843137255 0.5019607843137255 0.5019607843137255
            specularColor 0.25098039215686274 0.25098039215686274 0.25098039215686274
            ambientIntensity 0.502
            transparency 0.0
            shininess 0.5
        }
    }
    geometry IndexedFaceSet {
        ccw TRUE
        solid FALSE
        coord DEF co Coordinate {
            point [
                -0.1551 -0.1402 0.0039, -0.2929 -0.1402 0.0039, -0.2929 -0.0319 0.0039, -0.1551 -0.0319 0.0039, -0.1551 -0.0115 0.0039, -0.054 -0.1303 0.0039, -0.0115 -0.0115 0.0039, -0.2929 -0.2878 0.0039, -0.2929 -0.2386 0.0039, -0.054 -0.2878 0.0039, -0.1551 -0.2386 0.0039, 0.0293 -0.0115 0.0039, 0.0309 -0.0117 0.0039, -0.0115 -0.1303 0.0039, 0.2976 -0.1402 0.0039, 0.1598 -0.1402 0.0039, 0.2976 -0.0319 0.0039, 0.1598 -0.0319 0.0039, 0.0587 -0.1303 0.0039, 0.032 -0.0117 0.0039, 0.0343 -0.0115 0.0039, -0.0115 0.1453 0.0039, -0.0076 -0.0069 0.0039, -0.0076 -0.0113 0.0039, 0.0135 -0.0113 0.0039, 0.0212 -0.0092 0.0039, 0.0212 -0.0049 0.0039, 0.0135 0.0281 0.0039, 0.0254 -0.0109 0.0039, -0.0067 0.0281 0.0039, -0.0067 0.0238 0.0039, 0.0082 0.0065 0.0039, 0.0082 -0.0069 0.0039, -0.0057 0.0065 0.0039, -0.0057 0.0108 0.0039, 0.0082 0.0108 0.0039, 0.0082 0.0238 0.0039, 0.0343 0.0238 0.0039, 0.0372 0.0228 0.0039, 0.0219 -0.0053 0.0039, 0.0399 0.021 0.0039, 0.0423 0.0183 0.0039, 0.0452 0.008 0.0039, 0.0448 0.0038 0.0039, 0.0437 0.0004 0.0039, 0.0349 -0.007 0.0039, 0.0313 -0.0074 0.0039, 0.0378 -0.0059 0.0039, 0.0402 -0.0043 0.0039, 0.0421 -0.0024 0.0039, 0.026 -0.0068 0.0039, 0.0344 0.0283 0.0039, 0.0304 0.0286 0.0039, 0.0587 0.1453 0.0039, 0.0257 0.0283 0.0039, 0.0212 0.027 0.0039, 0.0212 0.0218 0.0039, 0.0256 0.0237 0.0039, 0.0304 0.0243 0.0039, 0.0439 0.0153 0.0039, 0.045 0.0111 0.0039, 0.074 -0.0113 0.0039, 0.0538 -0.0113 0.0039, 0.0368 -0.0112 0.0039, 0.0407 -0.0099 0.0039, 0.074 0.0281 0.0039, 0.1598 0.1551 0.0039, 0.0687 0.0281 0.0039, 0.2976 -0.2386 0.0039, 0.2976 -0.2878 0.0039, 0.1598 -0.2386 0.0039, 0.0587 -0.2878 0.0039, 0.1598 -0.0115 0.0039, 0.1598 0.0469 0.0039, 0.2976 0.0469 0.0039, 0.2976 0.1551 0.0039, 0.0484 0.0178 0.0039, 0.0461 0.0214 0.0039, 0.0425 0.0248 0.0039, 0.2976 0.3028 0.0039, 0.2976 0.2535 0.0039, 0.0587 0.3028 0.0039, 0.1598 0.2535 0.0039, 0.0388 0.027 0.0039, 0.0438 -0.0079 0.0039, 0.0468 -0.0048 0.0039, 0.0538 -0.0069 0.0039, 0.0489 -0.001 0.0039, 0.0687 -0.0069 0.0039, 0.0501 0.0031 0.0039, 0.0504 0.0077 0.0039, 0.0499 0.0133 0.0039, -0.0499 -0.0113 0.0039, -0.0451 -0.0005 0.0039, -0.0428 -0.004 0.0039, -0.2929 0.1551 0.0039, -0.1551 0.1551 0.0039, -0.2929 0.0469 0.0039, -0.1551 0.0469 0.0039, -0.0396 -0.0071 0.0039, -0.0354 -0.0095 0.0039, -0.0309 -0.0108 0.0039, -0.0648 0.0281 0.0039, -0.054 0.1453 0.0039, -0.0701 0.0281 0.0039, -0.2929 0.2535 0.0039, -0.2929 0.3028 0.0039, -0.1945 0.2535 0.0039, -0.054 0.3028 0.0039, -0.026 -0.0113 0.0039, -0.0153 -0.0113 0.0039, -0.0153 0.0281 0.0039, -0.0264 0.0281 0.0039, -0.0411 0.023 0.0039, -0.0438 0.0199 0.0039, -0.0457 0.0165 0.0039, -0.0797 -0.0113 0.0039, -0.0854 -0.0113 0.0039, -0.1551 0.2142 0.0039, -0.0557 -0.0113 0.0039, -0.0594 -0.0002 0.0039, -0.0757 -0.0002 0.0039, -0.0321 0.0275 0.0039, -0.0367 0.0259 0.0039, -0.041 0.023 0.0039, -0.0467 0.0126 0.0039, -0.047 0.0089 0.0039, -0.0465 0.0037 0.0039, 0.2976 -0.2878 0.1614, 0.2976 0.0469 0.063, 0.2976 -0.2386 0.063, 0.2976 -0.1402 0.063, 0.2976 0.3028 0.1614, 0.2976 0.2535 0.063, 0.2976 0.1551 0.063, 0.2976 -0.0319 0.063, -0.054 0.3028 0.063, -0.2929 0.3028 0.1614, 0.0587 0.3028 0.063, -0.2929 0.0469 0.063, -0.2929 -0.0319 0.063, -0.2929 -0.2878 0.1614, -0.2929 0.2535 0.063, -0.2929 0.1551 0.063, -0.2929 -0.2386 0.063, -0.2929 -0.1402 0.063, 0.0587 -0.2878 0.063, -0.054 -0.2878 0.063, -0.2279 0.2404 0.1614, -0.2325 0.2369 0.1614, -0.2648 0.2617 0.1614, -0.2626 0.2671 0.1614, -0.2378 0.2347 0.1614, -0.2435 0.234 0.1614, -0.2492 0.2347 0.1614, -0.2546 0.2369 0.1614, -0.2591 0.2404 0.1614, -0.2626 0.245 0.1614, -0.2648 0.2503 0.1614, -0.2656 0.256 0.1614, -0.2591 0.2716 0.1614, -0.2546 0.2751 0.1614, -0.2492 0.2773 0.1614, -0.2435 0.2781 0.1614, -0.2378 0.2773 0.1614, -0.2325 0.2751 0.1614, -0.2279 0.2716 0.1614, -0.2244 0.2671 0.1614, -0.2222 0.2617 0.1614, -0.2215 0.256 0.1614, -0.2222 0.2503 0.1614, -0.2244 0.245 0.1614
            ]
        }
        coordIndex [
            0,1,2,-1,3,4,5,-1,5,4,6,-1,7,8,9,-1,9,8,10,-1,9,10,5,-1,5,10,0,-1,5,0,3,-1,3,0,2,-1,11,12,13,-1,14,15,16,-1,16,15,17,-1,13,12,18,-1,18,12,19,-1,18,19,20,-1,21,22,6,-1,6,22,23,-1,6,23,24,-1,25,24,26,-1,26,24,27,-1,25,28,24,-1,24,28,11,-1,24,11,6,-1,6,11,13,-1,6,13,5,-1,27,29,21,-1,21,29,30,-1,21,30,22,-1,31,32,33,-1,33,32,22,-1,33,22,34,-1,34,22,30,-1,34,30,35,-1,35,30,36,-1,37,38,39,-1,39,38,40,-1,39,40,41,-1,42,43,39,-1,39,43,44,-1,45,46,47,-1,47,46,48,-1,44,49,39,-1,39,49,48,-1,39,48,50,-1,50,48,46,-1,51,52,53,-1,53,52,21,-1,52,54,21,-1,21,54,55,-1,21,55,27,-1,27,55,56,-1,27,56,26,-1,26,56,57,-1,26,57,39,-1,39,57,58,-1,39,58,37,-1,41,59,39,-1,39,59,60,-1,39,60,42,-1,61,20,62,-1,62,20,63,-1,62,63,64,-1,61,65,66,-1,66,65,67,-1,68,69,70,-1,70,69,71,-1,70,71,15,-1,15,71,18,-1,15,18,17,-1,17,18,20,-1,17,20,72,-1,72,20,61,-1,72,61,73,-1,73,61,66,-1,73,66,74,-1,74,66,75,-1,76,77,67,-1,67,77,78,-1,79,80,81,-1,81,80,82,-1,81,82,53,-1,53,82,66,-1,53,66,51,-1,51,66,67,-1,51,67,83,-1,83,67,78,-1,64,84,62,-1,62,84,85,-1,62,85,86,-1,86,85,87,-1,86,87,88,-1,87,89,88,-1,88,89,90,-1,88,90,67,-1,67,90,91,-1,67,91,76,-1,92,93,94,-1,95,96,97,-1,97,96,98,-1,94,99,92,-1,92,99,100,-1,92,100,101,-1,21,102,103,-1,103,102,104,-1,105,106,107,-1,107,106,108,-1,109,110,6,-1,6,110,111,-1,6,111,21,-1,21,111,112,-1,113,114,102,-1,102,114,115,-1,116,6,117,-1,117,6,4,-1,117,4,104,-1,104,4,98,-1,104,98,103,-1,103,98,96,-1,103,96,108,-1,108,96,118,-1,108,118,107,-1,101,109,92,-1,92,109,6,-1,92,6,119,-1,119,6,116,-1,119,116,120,-1,120,116,121,-1,112,122,21,-1,21,122,123,-1,21,123,102,-1,102,123,124,-1,102,124,113,-1,115,125,102,-1,102,125,126,-1,102,126,92,-1,92,126,127,-1,92,127,93,-1,128,69,68,-1,129,74,75,-1,68,130,128,-1,128,130,131,-1,128,131,132,-1,80,79,133,-1,133,79,132,-1,133,132,134,-1,75,134,129,-1,129,134,132,-1,129,132,135,-1,135,132,131,-1,135,131,16,-1,16,131,14,-1,108,106,136,-1,136,106,137,-1,136,137,138,-1,138,137,132,-1,138,132,81,-1,81,132,79,-1,139,140,141,-1,106,105,137,-1,137,105,142,-1,137,142,143,-1,95,97,143,-1,143,97,139,-1,143,139,137,-1,137,139,141,-1,8,7,144,-1,144,7,141,-1,144,141,145,-1,145,141,140,-1,145,140,1,-1,1,140,2,-1,71,69,146,-1,146,69,128,-1,146,128,147,-1,147,128,141,-1,147,141,9,-1,9,141,7,-1,148,149,128,-1,150,151,137,-1,128,149,141,-1,141,149,152,-1,141,152,153,-1,153,154,141,-1,141,154,155,-1,141,155,156,-1,156,157,141,-1,141,157,158,-1,141,158,137,-1,137,158,159,-1,137,159,150,-1,151,160,137,-1,137,160,161,-1,137,161,162,-1,162,163,137,-1,137,163,164,-1,137,164,132,-1,132,164,165,-1,165,166,132,-1,132,166,167,-1,132,167,168,-1,168,169,132,-1,132,169,170,-1,132,170,128,-1,128,170,171,-1,128,171,148,-1,
        ]
    }
}
Shape{
    appearance Appearance {
        material  Material 	{
            diffuseColor 0.0 0.0 0.0
            specularColor 0.0 0.0 0.0
            ambientIntensity 0.0
            transparency 0.0
            shininess 0.5
        }
    }
    geometry IndexedFaceSet {
        ccw TRUE
        solid FALSE
        coord DEF co Coordinate {
            point [
                -0.2215 0.256 0.161, -0.2215 0.256 0.1614, -0.2222 0.2617 0.161, -0.2222 0.2617 0.1614, -0.2244 0.2671 0.161, -0.2244 0.2671 0.1614, -0.2279 0.2716 0.161, -0.2279 0.2716 0.1614, -0.2325 0.2751 0.161, -0.2325 0.2751 0.1614, -0.2378 0.2773 0.161, -0.2378 0.2773 0.1614, -0.2435 0.2781 0.161, -0.2435 0.2781 0.1614, -0.2492 0.2773 0.161, -0.2492 0.2773 0.1614, -0.2546 0.2751 0.161, -0.2546 0.2751 0.1614, -0.2591 0.2716 0.161, -0.2591 0.2716 0.1614, -0.2626 0.2671 0.161, -0.2626 0.2671 0.1614, -0.2648 0.2617 0.161, -0.2648 0.2617 0.1614, -0.2656 0.256 0.161, -0.2656 0.256 0.1614, -0.2648 0.2503 0.161, -0.2648 0.2503 0.1614, -0.2626 0.245 0.161, -0.2626 0.245 0.1614, -0.2591 0.2404 0.161, -0.2591 0.2404 0.1614, -0.2546 0.2369 0.161, -0.2546 0.2369 0.1614, -0.2492 0.2347 0.161, -0.2492 0.2347 0.1614, -0.2435 0.234 0.161, -0.2435 0.234 0.1614, -0.2378 0.2347 0.161, -0.2378 0.2347 0.1614, -0.2325 0.2369 0.161, -0.2325 0.2369 0.1614, -0.2279 0.2404 0.161, -0.2279 0.2404 0.1614, -0.2244 0.245 0.161, -0.2244 0.245 0.1614, -0.2222 0.2503 0.161, -0.2222 0.2503 0.1614, -0.2435 0.256 0.161
            ]
        }
        coordIndex [
            0,1,2,-1,2,1,3,-1,2,3,4,-1,4,3,5,-1,4,5,6,-1,6,5,7,-1,6,7,8,-1,8,7,9,-1,8,9,10,-1,10,9,11,-1,10,11,12,-1,12,11,13,-1,12,13,14,-1,14,13,15,-1,14,15,16,-1,16,15,17,-1,16,17,18,-1,18,17,19,-1,18,19,20,-1,20,19,21,-1,20,21,22,-1,22,21,23,-1,22,23,24,-1,24,23,25,-1,24,25,26,-1,26,25,27,-1,26,27,28,-1,28,27,29,-1,28,29,30,-1,30,29,31,-1,30,31,32,-1,32,31,33,-1,32,33,34,-1,34,33,35,-1,34,35,36,-1,36,35,37,-1,36,37,38,-1,38,37,39,-1,38,39,40,-1,40,39,41,-1,40,41,42,-1,42,41,43,-1,42,43,44,-1,44,43,45,-1,44,45,46,-1,46,45,47,-1,46,47,0,-1,0,47,1,-1,44,46,48,-1,48,46,0,-1,48,0,2,-1,38,40,48,-1,48,40,42,-1,48,42,44,-1,32,34,48,-1,48,34,36,-1,48,36,38,-1,26,28,48,-1,48,28,30,-1,48,30,32,-1,20,22,48,-1,48,22,24,-1,48,24,26,-1,14,16,48,-1,48,16,18,-1,48,18,20,-1,8,10,48,-1,48,10,12,-1,48,12,14,-1,2,4,48,-1,48,4,6,-1,48,6,8,-1,
        ]
    }
}
Shape{
    appearance Appearance {
        material  Material 	{
            diffuseColor 1.0 1.0 1.0
            specularColor 0.5019607843137255 0.5019607843137255 0.5019607843137255
            ambientIntensity 1.0
            transparency 0.0
            shininess 0.5
        }
    }
    geometry IndexedFaceSet {
        ccw TRUE
        solid FALSE
        coord DEF co Coordinate {
            point [
                -0.054 -0.2878 0.063, -0.054 -0.2917 0.063, 0.0587 -0.2878 0.063, 0.0587 -0.2917 0.063, 0.0587 -0.2878 0.0039, 0.0587 -0.2917 0.0, 0.0587 -0.1303 0.0039, 0.0587 -0.1303 0.0, -0.0115 -0.1303 0.0039, -0.054 -0.1303 0.0, -0.054 -0.1303 0.0039, -0.054 -0.2878 0.0039, -0.054 -0.2917 0.0, 0.0587 0.3067 0.063, -0.054 0.3067 0.063, 0.0587 0.3028 0.063, -0.054 0.3028 0.063, -0.054 0.3028 0.0039, -0.054 0.3067 0.0, -0.054 0.1453 0.0039, -0.054 0.1453 0.0, -0.0115 0.1453 0.0039, 0.0587 0.1453 0.0, 0.0587 0.1453 0.0039, 0.0587 0.3028 0.0039, 0.0587 0.3067 0.0, 0.2976 0.1551 0.063, 0.3016 0.1551 0.063, 0.2976 0.2535 0.063, 0.3016 0.2535 0.063, 0.2976 0.2535 0.0039, 0.3016 0.2535 0.0, 0.1598 0.2535 0.0039, 0.1598 0.2535 0.0, 0.1598 0.1551 0.0, 0.1598 0.1551 0.0039, 0.2976 0.1551 0.0039, 0.3016 0.1551 0.0, 0.3016 -0.2386 0.063, 0.3016 -0.1402 0.063, 0.2976 -0.2386 0.063, 0.2976 -0.1402 0.063, 0.1598 -0.1402 0.0, 0.1598 -0.2386 0.0, 0.1598 -0.1402 0.0039, 0.1598 -0.2386 0.0039, 0.2976 -0.2386 0.0039, 0.3016 -0.2386 0.0, 0.2976 -0.1402 0.0039, 0.3016 -0.1402 0.0, -0.2969 0.2535 0.063, -0.2969 0.1551 0.063, -0.2929 0.2535 0.063, -0.2929 0.1551 0.063, -0.2929 0.1551 0.0039, -0.2969 0.1551 0.0, -0.1551 0.1551 0.0039, -0.1551 0.1551 0.0, -0.1551 0.2142 0.0, -0.1551 0.2142 0.0039, -0.1945 0.2535 0.0, -0.1945 0.2535 0.0039, -0.2929 0.2535 0.0039, -0.2969 0.2535 0.0, -0.2969 -0.1402 0.063, -0.2969 -0.2386 0.063, -0.2929 -0.1402 0.063, -0.2929 -0.2386 0.063, -0.1551 -0.1402 0.0039, -0.1551 -0.1402 0.0, -0.2929 -0.1402 0.0039, -0.2969 -0.1402 0.0, -0.2929 -0.2386 0.0039, -0.2969 -0.2386 0.0, -0.1551 -0.2386 0.0039, -0.1551 -0.2386 0.0, 0.2976 -0.0319 0.063, 0.3016 -0.0319 0.063, 0.2976 0.0469 0.063, 0.3016 0.0469 0.063, 0.2976 0.0469 0.0039, 0.3016 0.0469 0.0, 0.1598 0.0469 0.0039, 0.1598 0.0469 0.0, 0.1598 -0.0115 0.0039, 0.1598 -0.0319 0.0, 0.1598 -0.0319 0.0039, 0.2976 -0.0319 0.0039, 0.3016 -0.0319 0.0, -0.2969 0.0469 0.063, -0.2969 -0.0319 0.063, -0.2929 0.0469 0.063, -0.2929 -0.0319 0.063, -0.1551 -0.0319 0.0039, -0.1551 -0.0319 0.0, -0.1551 -0.0115 0.0039, -0.1551 0.0469 0.0, -0.1551 0.0469 0.0039, -0.2929 0.0469 0.0039, -0.2969 0.0469 0.0, -0.2929 -0.0319 0.0039, -0.2969 -0.0319 0.0
            ]
        }
        coordIndex [
            0,1,2,-1,2,1,3,-1,2,3,4,-1,4,3,5,-1,4,5,6,-1,6,5,7,-1,6,7,8,-1,8,7,9,-1,8,9,10,-1,10,9,11,-1,11,9,12,-1,11,12,0,-1,0,12,1,-1,5,3,12,-1,12,3,1,-1,12,9,5,-1,5,9,7,-1,13,14,15,-1,15,14,16,-1,16,14,17,-1,17,14,18,-1,17,18,19,-1,19,18,20,-1,19,20,21,-1,21,20,22,-1,21,22,23,-1,23,22,24,-1,24,22,25,-1,24,25,15,-1,15,25,13,-1,18,14,25,-1,25,14,13,-1,25,22,18,-1,18,22,20,-1,26,27,28,-1,28,27,29,-1,28,29,30,-1,30,29,31,-1,30,31,32,-1,32,31,33,-1,33,34,32,-1,32,34,35,-1,35,34,36,-1,36,34,37,-1,36,37,26,-1,26,37,27,-1,31,29,37,-1,37,29,27,-1,34,33,37,-1,37,33,31,-1,38,39,40,-1,40,39,41,-1,42,43,44,-1,44,43,45,-1,45,43,46,-1,46,43,47,-1,46,47,40,-1,40,47,38,-1,41,39,48,-1,48,39,49,-1,48,49,44,-1,44,49,42,-1,49,39,47,-1,47,39,38,-1,49,47,42,-1,42,47,43,-1,50,51,52,-1,52,51,53,-1,53,51,54,-1,54,51,55,-1,54,55,56,-1,56,55,57,-1,57,58,56,-1,56,58,59,-1,58,60,59,-1,59,60,61,-1,61,60,62,-1,62,60,63,-1,62,63,52,-1,52,63,50,-1,55,51,63,-1,63,51,50,-1,63,60,55,-1,55,60,58,-1,55,58,57,-1,64,65,66,-1,66,65,67,-1,68,69,70,-1,70,69,71,-1,70,71,66,-1,66,71,64,-1,67,65,72,-1,72,65,73,-1,72,73,74,-1,74,73,75,-1,75,69,74,-1,74,69,68,-1,73,65,71,-1,71,65,64,-1,75,73,69,-1,69,73,71,-1,76,77,78,-1,78,77,79,-1,78,79,80,-1,80,79,81,-1,80,81,82,-1,82,81,83,-1,82,83,84,-1,84,83,85,-1,84,85,86,-1,86,85,87,-1,87,85,88,-1,87,88,76,-1,76,88,77,-1,81,79,88,-1,88,79,77,-1,85,83,88,-1,88,83,81,-1,89,90,91,-1,91,90,92,-1,93,94,95,-1,95,94,96,-1,95,96,97,-1,97,96,98,-1,98,96,99,-1,98,99,91,-1,91,99,89,-1,92,90,100,-1,100,90,101,-1,100,101,93,-1,93,101,94,-1,101,90,99,-1,99,90,89,-1,101,99,94,-1,94,99,96,-1,
        ]
    }
}
Shape{
    appearance Appearance {
        material  Material 	{
            diffuseColor 0.0 0.0 0.0
            specularColor 0.0 0.0 0.0
            ambientIntensity 0.0
            transparency 0.0
            shininess 0.5
        }
    }
    geometry IndexedFaceSet {
        ccw TRUE
        solid FALSE
        coord DEF co Coordinate {
            point [
                -0.0701 0.0281 0.0043, -0.0854 -0.0113 0.0043, -0.0701 0.0281 0.0039, -0.0854 -0.0113 0.0039, -0.0797 -0.0113 0.0043, -0.0797 -0.0113 0.0039, -0.0757 -0.0002 0.0043, -0.0757 -0.0002 0.0039, -0.0594 -0.0002 0.0043, -0.0594 -0.0002 0.0039, -0.0557 -0.0113 0.0043, -0.0557 -0.0113 0.0039, -0.0499 -0.0113 0.0043, -0.0499 -0.0113 0.0039, -0.0648 0.0281 0.0043, -0.0648 0.0281 0.0039, -0.0607 0.0041 0.0043, -0.0739 0.0041 0.0043, -0.0666 0.0206 0.0043, -0.067 0.0219 0.0043, -0.0673 0.0233 0.0043, -0.0674 0.0233 0.0043, -0.0676 0.0219 0.0043, -0.068 0.0206 0.0043, -0.0607 0.0041 0.0039, -0.0739 0.0041 0.0039, -0.0666 0.0206 0.0039, -0.067 0.0219 0.0039, -0.0673 0.0233 0.0039, -0.0674 0.0233 0.0039, -0.0676 0.0219 0.0039, -0.068 0.0206 0.0039, -0.026 -0.0113 0.0043, -0.0153 -0.0113 0.0043, -0.026 -0.0113 0.0039, -0.0153 -0.0113 0.0039, -0.0153 0.0281 0.0043, -0.0153 0.0281 0.0039, -0.0264 0.0281 0.0043, -0.0264 0.0281 0.0039, -0.047 0.0089 0.0043, -0.047 0.0089 0.0039, -0.0467 0.0126 0.0039, -0.0467 0.0126 0.0043, -0.0457 0.0165 0.0039, -0.0457 0.0165 0.0043, -0.0438 0.0199 0.0039, -0.0438 0.0199 0.0043, -0.0411 0.023 0.0039, -0.0411 0.023 0.0043, -0.041 0.023 0.0039, -0.041 0.023 0.0043, -0.0367 0.0259 0.0039, -0.0367 0.0259 0.0043, -0.0321 0.0275 0.0039, -0.0321 0.0275 0.0043, -0.0309 -0.0108 0.0039, -0.0309 -0.0108 0.0043, -0.0354 -0.0095 0.0039, -0.0354 -0.0095 0.0043, -0.0396 -0.0071 0.0039, -0.0396 -0.0071 0.0043, -0.0428 -0.004 0.0039, -0.0428 -0.004 0.0043, -0.0451 -0.0005 0.0039, -0.0451 -0.0005 0.0043, -0.0465 0.0037 0.0039, -0.0465 0.0037 0.0043, -0.0391 0.0183 0.0043, -0.0372 0.0203 0.0043, -0.0343 0.0222 0.0043, -0.0311 0.0233 0.0043, -0.0264 0.0238 0.0043, -0.0206 0.0238 0.0043, -0.0206 -0.0069 0.0043, -0.0262 -0.0069 0.0043, -0.0304 -0.0065 0.0043, -0.0337 -0.0055 0.0043, -0.0364 -0.0039 0.0043, -0.0386 -0.0017 0.0043, -0.0402 0.001 0.0043, -0.0414 0.0047 0.0043, -0.0417 0.0088 0.0043, -0.0414 0.0127 0.0043, -0.0405 0.0158 0.0043, -0.0264 0.0238 0.0039, -0.0206 0.0238 0.0039, -0.0311 0.0233 0.0039, -0.0343 0.0222 0.0039, -0.0372 0.0203 0.0039, -0.0391 0.0183 0.0039, -0.0405 0.0158 0.0039, -0.0414 0.0127 0.0039, -0.0417 0.0088 0.0039, -0.0414 0.0047 0.0039, -0.0402 0.001 0.0039, -0.0386 -0.0017 0.0039, -0.0364 -0.0039 0.0039, -0.0337 -0.0055 0.0039, -0.0304 -0.0065 0.0039, -0.0262 -0.0069 0.0039, -0.0206 -0.0069 0.0039, -0.0076 -0.0069 0.0043, -0.0076 -0.0113 0.0043, -0.0076 -0.0069 0.0039, -0.0076 -0.0113 0.0039, 0.0135 -0.0113 0.0043, 0.0135 -0.0113 0.0039, 0.0135 0.0281 0.0043, 0.0135 0.0281 0.0039, -0.0067 0.0281 0.0043, -0.0067 0.0281 0.0039, -0.0067 0.0238 0.0043, -0.0067 0.0238 0.0039, 0.0082 0.0238 0.0043, 0.0082 0.0238 0.0039, 0.0082 0.0108 0.0043, 0.0082 0.0108 0.0039, -0.0057 0.0108 0.0043, -0.0057 0.0108 0.0039, -0.0057 0.0065 0.0043, -0.0057 0.0065 0.0039, 0.0082 0.0065 0.0043, 0.0082 0.0065 0.0039, 0.0082 -0.0069 0.0043, 0.0082 -0.0069 0.0039, 0.0212 -0.0049 0.0043, 0.0212 -0.0092 0.0043, 0.0212 -0.0049 0.0039, 0.0212 -0.0092 0.0039, 0.0254 -0.0109 0.0043, 0.032 -0.0117 0.0043, 0.032 -0.0117 0.0039, 0.0309 -0.0117 0.0039, 0.0309 -0.0117 0.0043, 0.0293 -0.0115 0.0039, 0.0254 -0.0109 0.0039, 0.0343 -0.0115 0.0039, 0.0368 -0.0112 0.0043, 0.0368 -0.0112 0.0039, 0.0407 -0.0099 0.0043, 0.0407 -0.0099 0.0039, 0.0438 -0.0079 0.0043, 0.0438 -0.0079 0.0039, 0.0468 -0.0048 0.0043, 0.0468 -0.0048 0.0039, 0.0489 -0.001 0.0043, 0.0489 -0.001 0.0039, 0.0501 0.0031 0.0043, 0.0501 0.0031 0.0039, 0.0504 0.0077 0.0043, 0.0504 0.0077 0.0039, 0.0304 0.0286 0.0043, 0.0304 0.0286 0.0039, 0.0344 0.0283 0.0039, 0.0344 0.0283 0.0043, 0.0388 0.027 0.0039, 0.0388 0.027 0.0043, 0.0425 0.0248 0.0039, 0.0425 0.0248 0.0043, 0.0461 0.0214 0.0039, 0.0461 0.0214 0.0043, 0.0484 0.0178 0.0039, 0.0484 0.0178 0.0043, 0.0499 0.0133 0.0039, 0.0499 0.0133 0.0043, 0.0212 0.027 0.0043, 0.0212 0.027 0.0039, 0.0257 0.0283 0.0039, 0.0257 0.0283 0.0043, 0.0212 0.0218 0.0043, 0.0212 0.0218 0.0039, 0.0304 0.0243 0.0043, 0.0304 0.0243 0.0039, 0.0256 0.0237 0.0039, 0.0256 0.0237 0.0043, 0.0452 0.008 0.0043, 0.0452 0.008 0.0039, 0.045 0.0111 0.0039, 0.045 0.0111 0.0043, 0.0439 0.0153 0.0039, 0.0439 0.0153 0.0043, 0.0423 0.0183 0.0039, 0.0423 0.0183 0.0043, 0.0399 0.021 0.0039, 0.0399 0.021 0.0043, 0.0372 0.0228 0.0039, 0.0372 0.0228 0.0043, 0.0343 0.0238 0.0039, 0.0343 0.0238 0.0043, 0.0313 -0.0074 0.0043, 0.0313 -0.0074 0.0039, 0.0349 -0.007 0.0039, 0.0349 -0.007 0.0043, 0.0378 -0.0059 0.0039, 0.0378 -0.0059 0.0043, 0.0402 -0.0043 0.0039, 0.0402 -0.0043 0.0043, 0.0421 -0.0024 0.0039, 0.0421 -0.0024 0.0043, 0.0437 0.0004 0.0039, 0.0437 0.0004 0.0043, 0.0448 0.0038 0.0039, 0.0448 0.0038 0.0043, 0.0219 -0.0053 0.0039, 0.0219 -0.0053 0.0043, 0.026 -0.0068 0.0039, 0.026 -0.0068 0.0043, 0.0538 -0.0069 0.0043, 0.0538 -0.0113 0.0043, 0.0538 -0.0069 0.0039, 0.0538 -0.0113 0.0039, 0.074 -0.0113 0.0043, 0.074 -0.0113 0.0039, 0.074 0.0281 0.0043, 0.074 0.0281 0.0039, 0.0687 0.0281 0.0043, 0.0687 0.0281 0.0039, 0.0687 -0.0069 0.0043, 0.0687 -0.0069 0.0039
            ]
        }
        coordIndex [
            0,1,2,-1,2,1,3,-1,1,4,3,-1,3,4,5,-1,4,6,5,-1,5,6,7,-1,6,8,7,-1,7,8,9,-1,8,10,9,-1,9,10,11,-1,10,12,11,-1,11,12,13,-1,12,14,13,-1,13,14,15,-1,14,0,15,-1,15,0,2,-1,16,8,17,-1,17,8,6,-1,18,14,16,-1,16,14,12,-1,16,12,8,-1,8,12,10,-1,18,19,14,-1,14,19,20,-1,14,20,0,-1,0,20,21,-1,0,21,22,-1,22,23,0,-1,0,23,17,-1,0,17,1,-1,1,17,6,-1,1,6,4,-1,16,17,24,-1,24,17,25,-1,18,16,26,-1,26,16,24,-1,18,26,27,-1,18,27,19,-1,19,27,28,-1,19,28,20,-1,21,20,29,-1,29,20,28,-1,21,29,30,-1,21,30,22,-1,22,30,31,-1,22,31,23,-1,17,23,25,-1,25,23,31,-1,32,33,34,-1,34,33,35,-1,33,36,35,-1,35,36,37,-1,36,38,37,-1,37,38,39,-1,40,41,42,-1,40,42,43,-1,43,42,44,-1,43,44,45,-1,45,44,46,-1,45,46,47,-1,47,46,48,-1,47,48,49,-1,49,48,50,-1,49,50,51,-1,51,50,52,-1,51,52,53,-1,53,52,54,-1,53,54,55,-1,55,54,39,-1,55,39,38,-1,32,34,56,-1,32,56,57,-1,57,56,58,-1,57,58,59,-1,59,58,60,-1,59,60,61,-1,61,60,62,-1,61,62,63,-1,63,62,64,-1,63,64,65,-1,65,64,66,-1,65,66,67,-1,67,66,41,-1,67,41,40,-1,45,47,68,-1,68,47,49,-1,68,49,69,-1,69,49,51,-1,69,51,70,-1,70,51,53,-1,70,53,71,-1,71,53,55,-1,71,55,72,-1,72,55,38,-1,72,38,73,-1,73,38,36,-1,73,36,74,-1,74,36,33,-1,74,33,75,-1,75,33,32,-1,75,32,76,-1,76,32,57,-1,76,57,77,-1,77,57,59,-1,77,59,78,-1,78,59,61,-1,78,61,79,-1,79,61,63,-1,79,63,80,-1,80,63,65,-1,80,65,81,-1,81,65,67,-1,81,67,82,-1,82,67,40,-1,82,40,83,-1,83,40,43,-1,83,43,84,-1,84,43,45,-1,84,45,68,-1,72,73,85,-1,85,73,86,-1,72,85,87,-1,72,87,71,-1,71,87,88,-1,71,88,70,-1,70,88,89,-1,70,89,69,-1,69,89,90,-1,69,90,68,-1,68,90,91,-1,68,91,84,-1,84,91,92,-1,84,92,83,-1,83,92,93,-1,83,93,82,-1,82,93,94,-1,82,94,81,-1,81,94,95,-1,81,95,80,-1,80,95,96,-1,80,96,79,-1,79,96,97,-1,79,97,78,-1,78,97,98,-1,78,98,77,-1,77,98,99,-1,77,99,76,-1,76,99,100,-1,76,100,75,-1,74,75,101,-1,101,75,100,-1,73,74,86,-1,86,74,101,-1,102,103,104,-1,104,103,105,-1,103,106,105,-1,105,106,107,-1,106,108,107,-1,107,108,109,-1,108,110,109,-1,109,110,111,-1,110,112,111,-1,111,112,113,-1,112,114,113,-1,113,114,115,-1,114,116,115,-1,115,116,117,-1,116,118,117,-1,117,118,119,-1,118,120,119,-1,119,120,121,-1,120,122,121,-1,121,122,123,-1,122,124,123,-1,123,124,125,-1,124,102,125,-1,125,102,104,-1,106,103,102,-1,102,124,106,-1,106,124,122,-1,106,122,108,-1,112,110,114,-1,114,110,108,-1,114,108,116,-1,116,108,122,-1,116,122,118,-1,118,122,120,-1,126,127,128,-1,128,127,129,-1,129,127,130,-1,131,132,133,-1,131,133,134,-1,134,133,135,-1,134,135,130,-1,130,135,136,-1,130,136,129,-1,132,131,137,-1,137,131,138,-1,137,138,139,-1,139,138,140,-1,139,140,141,-1,141,140,142,-1,141,142,143,-1,143,142,144,-1,143,144,145,-1,145,144,146,-1,145,146,147,-1,147,146,148,-1,147,148,149,-1,149,148,150,-1,149,150,151,-1,152,153,154,-1,152,154,155,-1,155,154,156,-1,155,156,157,-1,157,156,158,-1,157,158,159,-1,159,158,160,-1,159,160,161,-1,161,160,162,-1,161,162,163,-1,163,162,164,-1,163,164,165,-1,165,164,151,-1,165,151,150,-1,166,167,168,-1,166,168,169,-1,169,168,153,-1,169,153,152,-1,166,170,167,-1,167,170,171,-1,172,173,174,-1,172,174,175,-1,175,174,171,-1,175,171,170,-1,176,177,178,-1,176,178,179,-1,179,178,180,-1,179,180,181,-1,181,180,182,-1,181,182,183,-1,183,182,184,-1,183,184,185,-1,185,184,186,-1,185,186,187,-1,187,186,188,-1,187,188,189,-1,189,188,173,-1,189,173,172,-1,190,191,192,-1,190,192,193,-1,193,192,194,-1,193,194,195,-1,195,194,196,-1,195,196,197,-1,197,196,198,-1,197,198,199,-1,199,198,200,-1,199,200,201,-1,201,200,202,-1,201,202,203,-1,203,202,177,-1,203,177,176,-1,126,128,204,-1,126,204,205,-1,205,204,206,-1,205,206,207,-1,207,206,191,-1,207,191,190,-1,193,131,190,-1,190,131,134,-1,190,134,207,-1,207,134,130,-1,207,130,205,-1,205,130,127,-1,205,127,126,-1,170,166,175,-1,175,166,169,-1,175,169,172,-1,172,169,152,-1,172,152,189,-1,189,152,155,-1,189,155,187,-1,187,155,157,-1,187,157,185,-1,185,157,159,-1,185,159,183,-1,183,159,161,-1,183,161,181,-1,181,161,163,-1,181,163,179,-1,179,163,165,-1,179,165,176,-1,176,165,150,-1,176,150,203,-1,203,150,148,-1,203,148,201,-1,201,148,146,-1,201,146,199,-1,199,146,144,-1,199,144,197,-1,197,144,142,-1,197,142,195,-1,195,142,140,-1,195,140,193,-1,193,140,138,-1,193,138,131,-1,208,209,210,-1,210,209,211,-1,209,212,211,-1,211,212,213,-1,212,214,213,-1,213,214,215,-1,214,216,215,-1,215,216,217,-1,216,218,217,-1,217,218,219,-1,218,208,219,-1,219,208,210,-1,216,214,218,-1,218,214,212,-1,218,212,208,-1,208,212,209,-1,
        ]
    }
}
Shape{
    appearance Appearance {
        material  Material 	{
            diffuseColor 0.5019607843137255 0.5019607843137255 0.5019607843137255
            specularColor 0.25098039215686274 0.25098039215686274 0.25098039215686274
            ambientIntensity 0.502
            transparency 0.0
            shininess 0.5
        }
    }
    geometry IndexedFaceSet {
        ccw TRUE
        solid FALSE
        coord DEF co Coordinate {
            point [
                -0.0607 0.0041 0.0039, -0.0739 0.0041 0.0039, -0.0666 0.0206 0.0039, -0.068 0.0206 0.0039, -0.067 0.0219 0.0039, -0.0676 0.0219 0.0039, -0.0673 0.0233 0.0039, -0.0674 0.0233 0.0039, -0.0206 0.0238 0.0039, -0.0206 -0.0069 0.0039, -0.0264 0.0238 0.0039, -0.0262 -0.0069 0.0039, -0.0304 -0.0065 0.0039, -0.0417 0.0088 0.0039, -0.0414 0.0127 0.0039, -0.0405 0.0158 0.0039, -0.0311 0.0233 0.0039, -0.0337 -0.0055 0.0039, -0.0364 -0.0039 0.0039, -0.0386 -0.0017 0.0039, -0.0402 0.001 0.0039, -0.0414 0.0047 0.0039, -0.0391 0.0183 0.0039, -0.0372 0.0203 0.0039, -0.0343 0.0222 0.0039
            ]
        }
        coordIndex [
            0,1,2,-1,2,1,3,-1,2,3,4,-1,4,3,5,-1,4,5,6,-1,6,5,7,-1,8,9,10,-1,10,9,11,-1,10,11,12,-1,13,14,10,-1,10,14,15,-1,10,15,16,-1,12,17,10,-1,10,17,18,-1,10,18,19,-1,19,20,10,-1,10,20,21,-1,10,21,13,-1,22,23,15,-1,15,23,24,-1,15,24,16,-1,
        ]
    }
}