M48
; DRILL file KiCad 10.0.3 date 2026-06-15T19:33:45
; FORMAT={-:-/ absolute / inch / decimal}
; #@! TF.CreationDate,2026-06-15T19:33:45-04:00
; #@! TF.GenerationSoftware,Kicad,Pcbnew,10.0.3
; #@! TF.FileFunction,Plated,1,2,PTH
FMAT,2
INCH
; #@! TA.AperFunction,Plated,PTH,ViaDrill
T1C0.0118
; #@! TA.AperFunction,Plated,PTH,ComponentDrill
T2C0.0394
; #@! TA.AperFunction,Plated,PTH,ComponentDrill
T3C0.0866
%
G90
G05
T1
X3.7156Y-3.1417
X3.7953Y-2.06
X3.7972Y-1.4331
X3.7975Y-2.4458
X3.8435Y-1.248
X3.8657Y-1.1944
X3.9035Y-1.2874
X3.9441Y-1.2783
X3.9626Y-2.0108
X3.9835Y-1.2006
X4.0139Y-1.378
X4.0157Y-1.9567
X4.0157Y-3.122
X4.0266Y-2.3789
X4.0305Y-1.999
X4.0423Y-1.0984
X4.0512Y-1.1959
X4.0551Y-1.8717
X4.0561Y-1.2972
X4.0763Y-1.2456
X4.0803Y-1.748
X4.0886Y-3.2411
X4.1058Y-1.9746
X4.1063Y-1.7854
X4.1075Y-3.0843
X4.1083Y-3.4665
X4.1152Y-1.8415
X4.1189Y-1.1994
X4.128Y-1.2982
X4.1299Y-1.6634
X4.1329Y-2.0512
X4.1378Y-2.7165
X4.1378Y-3.372
X4.1427Y-1.5394
X4.1486Y-1.5945
X4.1624Y-2.3947
X4.1654Y-2.497
X4.1703Y-2.625
X4.1713Y-1.9803
X4.1742Y-1.6506
X4.1772Y-1.2687
X4.1841Y-1.8415
X4.189Y-1.498
X4.2018Y-1.3868
X4.2037Y-1.2274
X4.2087Y-2.3553
X4.2156Y-2.1191
X4.2168Y-1.4266
X4.2244Y-2.497
X4.2283Y-1.0817
X4.2337Y-1.4848
X4.2349Y-2.8085
X4.2352Y-1.7785
X4.2411Y-2.7274
X4.25Y-1.7264
X4.254Y-3.3228
X4.2589Y-1.3317
X4.2608Y-2.4419
X4.2844Y-2.1171
X4.2854Y-2.25
X4.2953Y-3.4306
X4.3002Y-1.685
X4.3061Y-2.6486
X4.3091Y-3.0589
X4.3159Y-1.3386
X4.3189Y-2.9291
X4.3197Y-2.1155
X4.333Y-2.3981
X4.3445Y-1.2313
X4.3561Y-3.0583
X4.3573Y-1.5089
X4.3602Y-1.4518
X4.3697Y-2.8087
X4.3789Y-1.2945
X4.3991Y-1.3301
X4.3996Y-1.1467
X4.4055Y-1.5522
X4.4242Y-1.7569
X4.4321Y-1.2185
X4.4478Y-1.1083
X4.4695Y-1.4278
X4.4823Y-1.8474
X4.4941Y-1.5984
X4.4961Y-3.1654
X4.5128Y-2.6427
X4.5197Y-3.063
X4.5413Y-1.1496
X4.5413Y-1.3553
X4.7067Y-2.2116
X4.7136Y-2.4026
X4.7539Y-3.0157
X4.8248Y-1.6874
X4.8248Y-1.7506
X4.8268Y-1.9065
X4.8268Y-1.9596
X4.8346Y-2.3031
X4.8681Y-2.0049
X4.8681Y-2.1683
X4.9169Y-2.0247
X4.9409Y-3.2972
X4.9488Y-3.4528
X4.9921Y-3.3858
X5.0394Y-3.3268
X5.0423Y-2.0778
X5.0591Y-1.6978
X5.063Y-1.7372
X5.0659Y-1.7933
X5.0882Y-1.9518
X5.0915Y-2.1693
X5.0974Y-2.2305
X5.1245Y-1.9405
X5.1555Y-1.1486
X5.1913Y-1.1677
X5.2047Y-1.9813
X5.2136Y-1.2864
X5.2352Y-1.9803
X5.2486Y-2.3031
X5.2579Y-1.1939
X5.2657Y-1.9911
X5.2756Y-1.263
X5.2894Y-1.9742
X5.3022Y-1.2407
X5.3248Y-1.8701
X5.3268Y-2.1949
X5.3297Y-2.2618
X5.3337Y-1.2175
X5.3553Y-1.2982
X5.3642Y-2.129
X5.3691Y-2.1654
X5.374Y-1.4055
X5.3819Y-2.1004
X5.3957Y-1.503
X5.4144Y-2.3583
X5.4207Y-1.6316
X5.4419Y-1.6073
X5.4675Y-2.036
T2
X3.7657Y-1.1762
X3.9183Y-2.3327
X4.0699Y-2.124
X4.3209Y-1.8484
X4.4488Y-3.4646
X4.6207Y-1.3561
X4.6207Y-1.4561
X4.6207Y-1.5561
X4.6207Y-1.6561
X4.6207Y-1.7561
X4.6207Y-1.8561
X4.6207Y-1.9561
X4.6207Y-2.0561
X4.6207Y-2.1561
X4.6207Y-2.2561
X4.6207Y-2.3561
X4.6207Y-2.4561
X4.6207Y-2.5561
X4.6207Y-2.6561
X4.6207Y-2.7561
X4.6207Y-2.8561
X4.6207Y-2.9561
X4.6207Y-3.0561
X4.6207Y-3.1561
X4.6207Y-3.2561
X4.6207Y-3.3561
X4.6207Y-3.4561
X5.3159Y-1.1585
X5.5207Y-1.3561
X5.5207Y-1.4561
X5.5207Y-1.5561
X5.5207Y-1.6561
X5.5207Y-1.7561
X5.5207Y-1.8561
X5.5207Y-1.9561
X5.5207Y-2.0561
X5.5207Y-2.1561
X5.5207Y-2.2561
X5.5207Y-2.3561
X5.5207Y-2.4561
X5.5207Y-2.5561
X5.5207Y-2.6561
X5.5207Y-2.7561
X5.5207Y-2.8561
X5.5207Y-2.9561
X5.5207Y-3.0561
X5.5207Y-3.1561
X5.5207Y-3.2561
X5.5207Y-3.3561
X5.5207Y-3.4561
T3
X3.7992Y-3.4449
X5.5118Y-1.1594
M30
