%TF.GenerationSoftware,KiCad,Pcbnew,10.0.3*%
%TF.CreationDate,2026-06-15T19:15:35-04:00*%
%TF.ProjectId,fsr_matrix_readout_internal_adc,6673725f-6d61-4747-9269-785f72656164,rev?*%
%TF.SameCoordinates,Original*%
%TF.FileFunction,Paste,Top*%
%TF.FilePolarity,Positive*%
%FSLAX46Y46*%
G04 Gerber Fmt 4.6, Leading zero omitted, Abs format (unit mm)*
G04 Created by KiCad (PCBNEW 10.0.3) date 2026-06-15 19:15:35*
%MOMM*%
%LPD*%
G01*
G04 APERTURE LIST*
G04 Aperture macros list*
%AMRoundRect*
0 Rectangle with rounded corners*
0 $1 Rounding radius*
0 $2 $3 $4 $5 $6 $7 $8 $9 X,Y pos of 4 corners*
0 Add a 4 corners polygon primitive as box body*
4,1,4,$2,$3,$4,$5,$6,$7,$8,$9,$2,$3,0*
0 Add four circle primitives for the rounded corners*
1,1,$1+$1,$2,$3*
1,1,$1+$1,$4,$5*
1,1,$1+$1,$6,$7*
1,1,$1+$1,$8,$9*
0 Add four rect primitives between the rounded corners*
20,1,$1+$1,$2,$3,$4,$5,0*
20,1,$1+$1,$4,$5,$6,$7,0*
20,1,$1+$1,$6,$7,$8,$9,0*
20,1,$1+$1,$8,$9,$2,$3,0*%
G04 Aperture macros list end*
%ADD10RoundRect,0.225000X-0.225000X-0.250000X0.225000X-0.250000X0.225000X0.250000X-0.225000X0.250000X0*%
%ADD11RoundRect,0.225000X0.225000X0.250000X-0.225000X0.250000X-0.225000X-0.250000X0.225000X-0.250000X0*%
%ADD12R,0.850000X0.280000*%
%ADD13R,0.280000X0.850000*%
%ADD14R,2.550000X2.050000*%
%ADD15R,0.900000X0.400000*%
%ADD16RoundRect,0.225000X0.250000X-0.225000X0.250000X0.225000X-0.250000X0.225000X-0.250000X-0.225000X0*%
%ADD17RoundRect,0.225000X-0.250000X0.225000X-0.250000X-0.225000X0.250000X-0.225000X0.250000X0.225000X0*%
%ADD18RoundRect,0.100000X0.100000X-0.637500X0.100000X0.637500X-0.100000X0.637500X-0.100000X-0.637500X0*%
%ADD19R,0.200000X0.750000*%
%ADD20R,0.200000X0.665000*%
%ADD21R,0.665000X0.200000*%
%ADD22R,1.800000X0.600000*%
%ADD23R,3.000000X2.600000*%
%ADD24R,0.750000X0.200000*%
%ADD25RoundRect,0.100000X-0.100000X0.637500X-0.100000X-0.637500X0.100000X-0.637500X0.100000X0.637500X0*%
%ADD26RoundRect,0.150000X-0.512500X-0.150000X0.512500X-0.150000X0.512500X0.150000X-0.512500X0.150000X0*%
%ADD27R,1.000000X0.600000*%
G04 APERTURE END LIST*
D10*
%TO.C,C29*%
X107800000Y-60075000D03*
X109350000Y-60075000D03*
%TD*%
%TO.C,C2*%
X112750000Y-29200000D03*
X114300000Y-29200000D03*
%TD*%
D11*
%TO.C,R17*%
X112875000Y-81475000D03*
X111325000Y-81475000D03*
%TD*%
%TO.C,C41*%
X103800000Y-73000000D03*
X102250000Y-73000000D03*
%TD*%
D12*
%TO.C,U12*%
X131500000Y-56530000D03*
D13*
X132250000Y-57500000D03*
X132750000Y-57500000D03*
X133250000Y-57500000D03*
X133750000Y-57500000D03*
X134250000Y-57500000D03*
X134750000Y-57500000D03*
D12*
X135500000Y-56530000D03*
X135500000Y-55030000D03*
D13*
X134750000Y-54060000D03*
X134250000Y-54060000D03*
X133750000Y-54060000D03*
X133250000Y-54060000D03*
X132750000Y-54060000D03*
X132250000Y-54060000D03*
D12*
X131500000Y-55030000D03*
D14*
X133500000Y-55780000D03*
%TD*%
D15*
%TO.C,U13*%
X127100000Y-53450000D03*
X127100000Y-52800000D03*
X127100000Y-52150000D03*
X124900000Y-52150000D03*
X124900000Y-53450000D03*
%TD*%
D16*
%TO.C,C40*%
X110510000Y-69665000D03*
X110510000Y-68115000D03*
%TD*%
D10*
%TO.C,C17*%
X111525000Y-40950000D03*
X113075000Y-40950000D03*
%TD*%
D17*
%TO.C,C32*%
X101650000Y-66425000D03*
X101650000Y-67975000D03*
%TD*%
D16*
%TO.C,C16*%
X104975000Y-50875000D03*
X104975000Y-49325000D03*
%TD*%
D10*
%TO.C,R14*%
X105225000Y-73400000D03*
X106775000Y-73400000D03*
%TD*%
D16*
%TO.C,C43*%
X114190000Y-76275000D03*
X114190000Y-74725000D03*
%TD*%
D11*
%TO.C,R10*%
X112300000Y-61675000D03*
X110750000Y-61675000D03*
%TD*%
D17*
%TO.C,R1*%
X126750000Y-78965000D03*
X126750000Y-80515000D03*
%TD*%
D10*
%TO.C,R8*%
X101870000Y-70380000D03*
X103420000Y-70380000D03*
%TD*%
D18*
%TO.C,U15*%
X107550000Y-58362500D03*
X108200000Y-58362500D03*
X108850000Y-58362500D03*
X109500000Y-58362500D03*
X110150000Y-58362500D03*
X110800000Y-58362500D03*
X111450000Y-58362500D03*
X111450000Y-52637500D03*
X110800000Y-52637500D03*
X110150000Y-52637500D03*
X109500000Y-52637500D03*
X108850000Y-52637500D03*
X108200000Y-52637500D03*
X107550000Y-52637500D03*
%TD*%
D19*
%TO.C,U5*%
X103925000Y-28826250D03*
D20*
X103525000Y-28786250D03*
D21*
X102895000Y-28996250D03*
X102895000Y-29396250D03*
X102895000Y-29796250D03*
D20*
X103525000Y-30006250D03*
X103925000Y-30006250D03*
D21*
X104555000Y-29796250D03*
X104555000Y-29396250D03*
X104555000Y-28996250D03*
%TD*%
D11*
%TO.C,C13*%
X105650000Y-27721250D03*
X104100000Y-27721250D03*
%TD*%
%TO.C,R11*%
X111600000Y-49375000D03*
X110050000Y-49375000D03*
%TD*%
D10*
%TO.C,C11*%
X108200000Y-38350000D03*
X109750000Y-38350000D03*
%TD*%
D17*
%TO.C,C26*%
X105950000Y-52325000D03*
X105950000Y-53875000D03*
%TD*%
D10*
%TO.C,R5*%
X108687500Y-63250000D03*
X110237500Y-63250000D03*
%TD*%
D11*
%TO.C,C47*%
X105675000Y-89200000D03*
X104125000Y-89200000D03*
%TD*%
D17*
%TO.C,R7*%
X101650000Y-63450000D03*
X101650000Y-65000000D03*
%TD*%
D22*
%TO.C,FPC2*%
X98802500Y-62470000D03*
X98802500Y-63470000D03*
X98802500Y-64470000D03*
X98802500Y-65470000D03*
X98802500Y-66470000D03*
X98802500Y-67470000D03*
X98802500Y-68470000D03*
X98802500Y-69470000D03*
X98802500Y-70470000D03*
X98802500Y-71470000D03*
X98802500Y-72470000D03*
X98802500Y-73470000D03*
X98802500Y-74470000D03*
X98802500Y-75470000D03*
X98802500Y-76470000D03*
X98802500Y-77470000D03*
D23*
X96442500Y-79820000D03*
X96442500Y-60120000D03*
%TD*%
D10*
%TO.C,C39*%
X102885000Y-79330000D03*
X104435000Y-79330000D03*
%TD*%
D24*
%TO.C,U6*%
X113145000Y-32825000D03*
D21*
X113185000Y-32425000D03*
D20*
X112975000Y-31795000D03*
X112575000Y-31795000D03*
X112175000Y-31795000D03*
D21*
X111965000Y-32425000D03*
X111965000Y-32825000D03*
D20*
X112175000Y-33455000D03*
X112575000Y-33455000D03*
X112975000Y-33455000D03*
%TD*%
D25*
%TO.C,U14*%
X107100000Y-62137500D03*
X106450000Y-62137500D03*
X105800000Y-62137500D03*
X105150000Y-62137500D03*
X104500000Y-62137500D03*
X103850000Y-62137500D03*
X103200000Y-62137500D03*
X103200000Y-67862500D03*
X103850000Y-67862500D03*
X104500000Y-67862500D03*
X105150000Y-67862500D03*
X105800000Y-67862500D03*
X106450000Y-67862500D03*
X107100000Y-67862500D03*
%TD*%
D16*
%TO.C,C15*%
X108225000Y-41350000D03*
X108225000Y-39800000D03*
%TD*%
D10*
%TO.C,R12*%
X107075000Y-49375000D03*
X108625000Y-49375000D03*
%TD*%
D11*
%TO.C,C31*%
X113275000Y-65125000D03*
X111725000Y-65125000D03*
%TD*%
D24*
%TO.C,U3*%
X108745000Y-35600000D03*
D21*
X108785000Y-35200000D03*
D20*
X108575000Y-34570000D03*
X108175000Y-34570000D03*
X107775000Y-34570000D03*
D21*
X107565000Y-35200000D03*
X107565000Y-35600000D03*
D20*
X107775000Y-36230000D03*
X108175000Y-36230000D03*
X108575000Y-36230000D03*
%TD*%
D16*
%TO.C,C27*%
X108650000Y-69275000D03*
X108650000Y-67725000D03*
%TD*%
%TO.C,C48*%
X113750000Y-79275000D03*
X113750000Y-77725000D03*
%TD*%
%TO.C,R9*%
X105975000Y-58500000D03*
X105975000Y-56950000D03*
%TD*%
D25*
%TO.C,U16*%
X112200000Y-73137500D03*
X111550000Y-73137500D03*
X110900000Y-73137500D03*
X110250000Y-73137500D03*
X109600000Y-73137500D03*
X108950000Y-73137500D03*
X108300000Y-73137500D03*
X108300000Y-78862500D03*
X108950000Y-78862500D03*
X109600000Y-78862500D03*
X110250000Y-78862500D03*
X110900000Y-78862500D03*
X111550000Y-78862500D03*
X112200000Y-78862500D03*
%TD*%
D11*
%TO.C,C6*%
X110650000Y-29225000D03*
X109100000Y-29225000D03*
%TD*%
D24*
%TO.C,U4*%
X105595000Y-44050000D03*
D21*
X105635000Y-43650000D03*
D20*
X105425000Y-43020000D03*
X105025000Y-43020000D03*
X104625000Y-43020000D03*
D21*
X104415000Y-43650000D03*
X104415000Y-44050000D03*
D20*
X104625000Y-44680000D03*
X105025000Y-44680000D03*
X105425000Y-44680000D03*
%TD*%
D16*
%TO.C,C24*%
X130375000Y-56655000D03*
X130375000Y-55105000D03*
%TD*%
D11*
%TO.C,C42*%
X106775000Y-76600000D03*
X105225000Y-76600000D03*
%TD*%
%TO.C,R15*%
X106775000Y-75000000D03*
X105225000Y-75000000D03*
%TD*%
D16*
%TO.C,C18*%
X120250000Y-86775000D03*
X120250000Y-85225000D03*
%TD*%
D11*
%TO.C,R3*%
X121775000Y-83750000D03*
X120225000Y-83750000D03*
%TD*%
%TO.C,C5*%
X100975000Y-29575000D03*
X99425000Y-29575000D03*
%TD*%
%TO.C,C36*%
X111600000Y-50850000D03*
X110050000Y-50850000D03*
%TD*%
D17*
%TO.C,C21*%
X120750000Y-80725000D03*
X120750000Y-82275000D03*
%TD*%
D10*
%TO.C,C10*%
X111300000Y-35325000D03*
X112850000Y-35325000D03*
%TD*%
D24*
%TO.C,U8*%
X103620000Y-49325000D03*
D21*
X103660000Y-48925000D03*
D20*
X103450000Y-48295000D03*
X103050000Y-48295000D03*
X102650000Y-48295000D03*
D21*
X102440000Y-48925000D03*
X102440000Y-49325000D03*
D20*
X102650000Y-49955000D03*
X103050000Y-49955000D03*
X103450000Y-49955000D03*
%TD*%
D12*
%TO.C,U11*%
X131450000Y-48250000D03*
D13*
X132200000Y-49220000D03*
X132700000Y-49220000D03*
X133200000Y-49220000D03*
X133700000Y-49220000D03*
X134200000Y-49220000D03*
X134700000Y-49220000D03*
D12*
X135450000Y-48250000D03*
X135450000Y-46750000D03*
D13*
X134700000Y-45780000D03*
X134200000Y-45780000D03*
X133700000Y-45780000D03*
X133200000Y-45780000D03*
X132700000Y-45780000D03*
X132200000Y-45780000D03*
D12*
X131450000Y-46750000D03*
D14*
X133450000Y-47500000D03*
%TD*%
D10*
%TO.C,C45*%
X101125000Y-77700000D03*
X102675000Y-77700000D03*
%TD*%
D16*
%TO.C,C19*%
X125500000Y-86775000D03*
X125500000Y-85225000D03*
%TD*%
D17*
%TO.C,R2*%
X126750000Y-81975000D03*
X126750000Y-83525000D03*
%TD*%
D10*
%TO.C,C9*%
X106100000Y-29200000D03*
X107650000Y-29200000D03*
%TD*%
D25*
%TO.C,U17*%
X106450000Y-81137500D03*
X105800000Y-81137500D03*
X105150000Y-81137500D03*
X104500000Y-81137500D03*
X103850000Y-81137500D03*
X103200000Y-81137500D03*
X102550000Y-81137500D03*
X102550000Y-86862500D03*
X103200000Y-86862500D03*
X103850000Y-86862500D03*
X104500000Y-86862500D03*
X105150000Y-86862500D03*
X105800000Y-86862500D03*
X106450000Y-86862500D03*
%TD*%
D16*
%TO.C,C7*%
X109850000Y-36875000D03*
X109850000Y-35325000D03*
%TD*%
D17*
%TO.C,R16*%
X114200000Y-71725000D03*
X114200000Y-73275000D03*
%TD*%
D16*
%TO.C,C34*%
X104500000Y-58500000D03*
X104500000Y-56950000D03*
%TD*%
%TO.C,C49*%
X108000000Y-87075000D03*
X108000000Y-85525000D03*
%TD*%
D10*
%TO.C,C37*%
X107050000Y-50850000D03*
X108600000Y-50850000D03*
%TD*%
D16*
%TO.C,R13*%
X112000000Y-70075000D03*
X112000000Y-68525000D03*
%TD*%
D24*
%TO.C,U7*%
X106970000Y-39850000D03*
D21*
X107010000Y-39450000D03*
D20*
X106800000Y-38820000D03*
X106400000Y-38820000D03*
X106000000Y-38820000D03*
D21*
X105790000Y-39450000D03*
X105790000Y-39850000D03*
D20*
X106000000Y-40480000D03*
X106400000Y-40480000D03*
X106800000Y-40480000D03*
%TD*%
D11*
%TO.C,R20*%
X108675000Y-88600000D03*
X107125000Y-88600000D03*
%TD*%
D16*
%TO.C,C20*%
X128306250Y-83525000D03*
X128306250Y-81975000D03*
%TD*%
D11*
%TO.C,C35*%
X112425000Y-60075000D03*
X110875000Y-60075000D03*
%TD*%
D26*
%TO.C,U10*%
X122418750Y-80550000D03*
X122418750Y-81500000D03*
X122418750Y-82450000D03*
X124693750Y-82450000D03*
X124693750Y-80550000D03*
%TD*%
D16*
%TO.C,C23*%
X130325000Y-48375000D03*
X130325000Y-46825000D03*
%TD*%
D11*
%TO.C,C33*%
X106425000Y-70375000D03*
X104875000Y-70375000D03*
%TD*%
D16*
%TO.C,C14*%
X114325000Y-34525000D03*
X114325000Y-32975000D03*
%TD*%
D22*
%TO.C,FPC1*%
X98802500Y-37000000D03*
X98802500Y-38000000D03*
X98802500Y-39000000D03*
X98802500Y-40000000D03*
X98802500Y-41000000D03*
X98802500Y-42000000D03*
X98802500Y-43000000D03*
X98802500Y-44000000D03*
X98802500Y-45000000D03*
X98802500Y-46000000D03*
X98802500Y-47000000D03*
X98802500Y-48000000D03*
X98802500Y-49000000D03*
X98802500Y-50000000D03*
X98802500Y-51000000D03*
X98802500Y-52000000D03*
D23*
X96442500Y-54350000D03*
X96442500Y-34650000D03*
%TD*%
D16*
%TO.C,R18*%
X101000000Y-80775000D03*
X101000000Y-79225000D03*
%TD*%
%TO.C,R19*%
X101000000Y-86775000D03*
X101000000Y-85225000D03*
%TD*%
D27*
%TO.C,U9*%
X121900000Y-85050000D03*
X121900000Y-86000000D03*
X121900000Y-86950000D03*
X124100000Y-86950000D03*
X124100000Y-85050000D03*
%TD*%
D19*
%TO.C,U2*%
X108950000Y-30230000D03*
D20*
X108550000Y-30190000D03*
D21*
X107920000Y-30400000D03*
X107920000Y-30800000D03*
X107920000Y-31200000D03*
D20*
X108550000Y-31410000D03*
X108950000Y-31410000D03*
D21*
X109580000Y-31200000D03*
X109580000Y-30800000D03*
X109580000Y-30400000D03*
%TD*%
D10*
%TO.C,C22*%
X122668750Y-79000000D03*
X124218750Y-79000000D03*
%TD*%
%TO.C,R6*%
X108675000Y-65100000D03*
X110225000Y-65100000D03*
%TD*%
%TO.C,C38*%
X108535000Y-71340000D03*
X110085000Y-71340000D03*
%TD*%
D19*
%TO.C,U1*%
X99550000Y-30855000D03*
D20*
X99150000Y-30815000D03*
D21*
X98520000Y-31025000D03*
X98520000Y-31425000D03*
X98520000Y-31825000D03*
D20*
X99150000Y-32035000D03*
X99550000Y-32035000D03*
D21*
X100180000Y-31825000D03*
X100180000Y-31425000D03*
X100180000Y-31025000D03*
%TD*%
D11*
%TO.C,C30*%
X113262500Y-63250000D03*
X111712500Y-63250000D03*
%TD*%
D17*
%TO.C,R4*%
X120750000Y-77725000D03*
X120750000Y-79275000D03*
%TD*%
%TO.C,C1*%
X101975000Y-32550000D03*
X101975000Y-34100000D03*
%TD*%
%TO.C,C25*%
X123675000Y-51975000D03*
X123675000Y-53525000D03*
%TD*%
D16*
%TO.C,C8*%
X106725000Y-45850000D03*
X106725000Y-44300000D03*
%TD*%
D10*
%TO.C,C28*%
X103250000Y-60325000D03*
X104800000Y-60325000D03*
%TD*%
D16*
%TO.C,C46*%
X101000000Y-83775000D03*
X101000000Y-82225000D03*
%TD*%
D10*
%TO.C,C12*%
X104625000Y-47825000D03*
X106175000Y-47825000D03*
%TD*%
%TO.C,C4*%
X106700000Y-42825000D03*
X108250000Y-42825000D03*
%TD*%
%TO.C,C44*%
X108325000Y-81475000D03*
X109875000Y-81475000D03*
%TD*%
M02*
